%TF.GenerationSoftware,KiCad,Pcbnew,9.0.2*%
%TF.CreationDate,2025-07-15T11:24:56-07:00*%
%TF.ProjectId,PeakDetector_Breakout,5065616b-4465-4746-9563-746f725f4272,rev?*%
%TF.SameCoordinates,Original*%
%TF.FileFunction,Legend,Top*%
%TF.FilePolarity,Positive*%
%FSLAX46Y46*%
G04 Gerber Fmt 4.6, Leading zero omitted, Abs format (unit mm)*
G04 Created by KiCad (PCBNEW 9.0.2) date 2025-07-15 11:24:56*
%MOMM*%
%LPD*%
G01*
G04 APERTURE LIST*
%ADD10C,0.100000*%
%ADD11C,0.125000*%
%ADD12C,0.150000*%
%ADD13C,0.120000*%
%TA.AperFunction,Profile*%
%ADD14C,0.050000*%
%TD*%
G04 APERTURE END LIST*
D10*
X135447693Y-93916038D02*
X135352455Y-93868419D01*
X135352455Y-93868419D02*
X135209598Y-93868419D01*
X135209598Y-93868419D02*
X135066741Y-93916038D01*
X135066741Y-93916038D02*
X134971503Y-94011276D01*
X134971503Y-94011276D02*
X134923884Y-94106514D01*
X134923884Y-94106514D02*
X134876265Y-94296990D01*
X134876265Y-94296990D02*
X134876265Y-94439847D01*
X134876265Y-94439847D02*
X134923884Y-94630323D01*
X134923884Y-94630323D02*
X134971503Y-94725561D01*
X134971503Y-94725561D02*
X135066741Y-94820800D01*
X135066741Y-94820800D02*
X135209598Y-94868419D01*
X135209598Y-94868419D02*
X135304836Y-94868419D01*
X135304836Y-94868419D02*
X135447693Y-94820800D01*
X135447693Y-94820800D02*
X135495312Y-94773180D01*
X135495312Y-94773180D02*
X135495312Y-94439847D01*
X135495312Y-94439847D02*
X135304836Y-94439847D01*
X135923884Y-94868419D02*
X135923884Y-93868419D01*
X135923884Y-93868419D02*
X136495312Y-94868419D01*
X136495312Y-94868419D02*
X136495312Y-93868419D01*
X136971503Y-94868419D02*
X136971503Y-93868419D01*
X136971503Y-93868419D02*
X137209598Y-93868419D01*
X137209598Y-93868419D02*
X137352455Y-93916038D01*
X137352455Y-93916038D02*
X137447693Y-94011276D01*
X137447693Y-94011276D02*
X137495312Y-94106514D01*
X137495312Y-94106514D02*
X137542931Y-94296990D01*
X137542931Y-94296990D02*
X137542931Y-94439847D01*
X137542931Y-94439847D02*
X137495312Y-94630323D01*
X137495312Y-94630323D02*
X137447693Y-94725561D01*
X137447693Y-94725561D02*
X137352455Y-94820800D01*
X137352455Y-94820800D02*
X137209598Y-94868419D01*
X137209598Y-94868419D02*
X136971503Y-94868419D01*
X134781027Y-96408419D02*
X135114360Y-97408419D01*
X135114360Y-97408419D02*
X135447693Y-96408419D01*
X135733408Y-97360800D02*
X135876265Y-97408419D01*
X135876265Y-97408419D02*
X136114360Y-97408419D01*
X136114360Y-97408419D02*
X136209598Y-97360800D01*
X136209598Y-97360800D02*
X136257217Y-97313180D01*
X136257217Y-97313180D02*
X136304836Y-97217942D01*
X136304836Y-97217942D02*
X136304836Y-97122704D01*
X136304836Y-97122704D02*
X136257217Y-97027466D01*
X136257217Y-97027466D02*
X136209598Y-96979847D01*
X136209598Y-96979847D02*
X136114360Y-96932228D01*
X136114360Y-96932228D02*
X135923884Y-96884609D01*
X135923884Y-96884609D02*
X135828646Y-96836990D01*
X135828646Y-96836990D02*
X135781027Y-96789371D01*
X135781027Y-96789371D02*
X135733408Y-96694133D01*
X135733408Y-96694133D02*
X135733408Y-96598895D01*
X135733408Y-96598895D02*
X135781027Y-96503657D01*
X135781027Y-96503657D02*
X135828646Y-96456038D01*
X135828646Y-96456038D02*
X135923884Y-96408419D01*
X135923884Y-96408419D02*
X136161979Y-96408419D01*
X136161979Y-96408419D02*
X136304836Y-96456038D01*
X136685789Y-97360800D02*
X136828646Y-97408419D01*
X136828646Y-97408419D02*
X137066741Y-97408419D01*
X137066741Y-97408419D02*
X137161979Y-97360800D01*
X137161979Y-97360800D02*
X137209598Y-97313180D01*
X137209598Y-97313180D02*
X137257217Y-97217942D01*
X137257217Y-97217942D02*
X137257217Y-97122704D01*
X137257217Y-97122704D02*
X137209598Y-97027466D01*
X137209598Y-97027466D02*
X137161979Y-96979847D01*
X137161979Y-96979847D02*
X137066741Y-96932228D01*
X137066741Y-96932228D02*
X136876265Y-96884609D01*
X136876265Y-96884609D02*
X136781027Y-96836990D01*
X136781027Y-96836990D02*
X136733408Y-96789371D01*
X136733408Y-96789371D02*
X136685789Y-96694133D01*
X136685789Y-96694133D02*
X136685789Y-96598895D01*
X136685789Y-96598895D02*
X136733408Y-96503657D01*
X136733408Y-96503657D02*
X136781027Y-96456038D01*
X136781027Y-96456038D02*
X136876265Y-96408419D01*
X136876265Y-96408419D02*
X137114360Y-96408419D01*
X137114360Y-96408419D02*
X137257217Y-96456038D01*
X134781027Y-91582419D02*
X135114360Y-92582419D01*
X135114360Y-92582419D02*
X135447693Y-91582419D01*
X135781027Y-92582419D02*
X135781027Y-91582419D01*
X135781027Y-91582419D02*
X136019122Y-91582419D01*
X136019122Y-91582419D02*
X136161979Y-91630038D01*
X136161979Y-91630038D02*
X136257217Y-91725276D01*
X136257217Y-91725276D02*
X136304836Y-91820514D01*
X136304836Y-91820514D02*
X136352455Y-92010990D01*
X136352455Y-92010990D02*
X136352455Y-92153847D01*
X136352455Y-92153847D02*
X136304836Y-92344323D01*
X136304836Y-92344323D02*
X136257217Y-92439561D01*
X136257217Y-92439561D02*
X136161979Y-92534800D01*
X136161979Y-92534800D02*
X136019122Y-92582419D01*
X136019122Y-92582419D02*
X135781027Y-92582419D01*
X136781027Y-92582419D02*
X136781027Y-91582419D01*
X136781027Y-91582419D02*
X137019122Y-91582419D01*
X137019122Y-91582419D02*
X137161979Y-91630038D01*
X137161979Y-91630038D02*
X137257217Y-91725276D01*
X137257217Y-91725276D02*
X137304836Y-91820514D01*
X137304836Y-91820514D02*
X137352455Y-92010990D01*
X137352455Y-92010990D02*
X137352455Y-92153847D01*
X137352455Y-92153847D02*
X137304836Y-92344323D01*
X137304836Y-92344323D02*
X137257217Y-92439561D01*
X137257217Y-92439561D02*
X137161979Y-92534800D01*
X137161979Y-92534800D02*
X137019122Y-92582419D01*
X137019122Y-92582419D02*
X136781027Y-92582419D01*
X134781027Y-98948419D02*
X135114360Y-99948419D01*
X135114360Y-99948419D02*
X135447693Y-98948419D01*
X135971503Y-98948419D02*
X136161979Y-98948419D01*
X136161979Y-98948419D02*
X136257217Y-98996038D01*
X136257217Y-98996038D02*
X136352455Y-99091276D01*
X136352455Y-99091276D02*
X136400074Y-99281752D01*
X136400074Y-99281752D02*
X136400074Y-99615085D01*
X136400074Y-99615085D02*
X136352455Y-99805561D01*
X136352455Y-99805561D02*
X136257217Y-99900800D01*
X136257217Y-99900800D02*
X136161979Y-99948419D01*
X136161979Y-99948419D02*
X135971503Y-99948419D01*
X135971503Y-99948419D02*
X135876265Y-99900800D01*
X135876265Y-99900800D02*
X135781027Y-99805561D01*
X135781027Y-99805561D02*
X135733408Y-99615085D01*
X135733408Y-99615085D02*
X135733408Y-99281752D01*
X135733408Y-99281752D02*
X135781027Y-99091276D01*
X135781027Y-99091276D02*
X135876265Y-98996038D01*
X135876265Y-98996038D02*
X135971503Y-98948419D01*
X136828646Y-98948419D02*
X136828646Y-99757942D01*
X136828646Y-99757942D02*
X136876265Y-99853180D01*
X136876265Y-99853180D02*
X136923884Y-99900800D01*
X136923884Y-99900800D02*
X137019122Y-99948419D01*
X137019122Y-99948419D02*
X137209598Y-99948419D01*
X137209598Y-99948419D02*
X137304836Y-99900800D01*
X137304836Y-99900800D02*
X137352455Y-99853180D01*
X137352455Y-99853180D02*
X137400074Y-99757942D01*
X137400074Y-99757942D02*
X137400074Y-98948419D01*
X137733408Y-98948419D02*
X138304836Y-98948419D01*
X138019122Y-99948419D02*
X138019122Y-98948419D01*
D11*
X144798712Y-87875556D02*
X144941569Y-87923175D01*
X144941569Y-87923175D02*
X145179664Y-87923175D01*
X145179664Y-87923175D02*
X145274902Y-87875556D01*
X145274902Y-87875556D02*
X145322521Y-87827936D01*
X145322521Y-87827936D02*
X145370140Y-87732698D01*
X145370140Y-87732698D02*
X145370140Y-87637460D01*
X145370140Y-87637460D02*
X145322521Y-87542222D01*
X145322521Y-87542222D02*
X145274902Y-87494603D01*
X145274902Y-87494603D02*
X145179664Y-87446984D01*
X145179664Y-87446984D02*
X144989188Y-87399365D01*
X144989188Y-87399365D02*
X144893950Y-87351746D01*
X144893950Y-87351746D02*
X144846331Y-87304127D01*
X144846331Y-87304127D02*
X144798712Y-87208889D01*
X144798712Y-87208889D02*
X144798712Y-87113651D01*
X144798712Y-87113651D02*
X144846331Y-87018413D01*
X144846331Y-87018413D02*
X144893950Y-86970794D01*
X144893950Y-86970794D02*
X144989188Y-86923175D01*
X144989188Y-86923175D02*
X145227283Y-86923175D01*
X145227283Y-86923175D02*
X145370140Y-86970794D01*
X146227283Y-87256508D02*
X146227283Y-87923175D01*
X145798712Y-87256508D02*
X145798712Y-87780317D01*
X145798712Y-87780317D02*
X145846331Y-87875556D01*
X145846331Y-87875556D02*
X145941569Y-87923175D01*
X145941569Y-87923175D02*
X146084426Y-87923175D01*
X146084426Y-87923175D02*
X146179664Y-87875556D01*
X146179664Y-87875556D02*
X146227283Y-87827936D01*
X146703474Y-87256508D02*
X146703474Y-88256508D01*
X146703474Y-87304127D02*
X146798712Y-87256508D01*
X146798712Y-87256508D02*
X146989188Y-87256508D01*
X146989188Y-87256508D02*
X147084426Y-87304127D01*
X147084426Y-87304127D02*
X147132045Y-87351746D01*
X147132045Y-87351746D02*
X147179664Y-87446984D01*
X147179664Y-87446984D02*
X147179664Y-87732698D01*
X147179664Y-87732698D02*
X147132045Y-87827936D01*
X147132045Y-87827936D02*
X147084426Y-87875556D01*
X147084426Y-87875556D02*
X146989188Y-87923175D01*
X146989188Y-87923175D02*
X146798712Y-87923175D01*
X146798712Y-87923175D02*
X146703474Y-87875556D01*
X147989188Y-87875556D02*
X147893950Y-87923175D01*
X147893950Y-87923175D02*
X147703474Y-87923175D01*
X147703474Y-87923175D02*
X147608236Y-87875556D01*
X147608236Y-87875556D02*
X147560617Y-87780317D01*
X147560617Y-87780317D02*
X147560617Y-87399365D01*
X147560617Y-87399365D02*
X147608236Y-87304127D01*
X147608236Y-87304127D02*
X147703474Y-87256508D01*
X147703474Y-87256508D02*
X147893950Y-87256508D01*
X147893950Y-87256508D02*
X147989188Y-87304127D01*
X147989188Y-87304127D02*
X148036807Y-87399365D01*
X148036807Y-87399365D02*
X148036807Y-87494603D01*
X148036807Y-87494603D02*
X147560617Y-87589841D01*
X148465379Y-87923175D02*
X148465379Y-87256508D01*
X148465379Y-87446984D02*
X148512998Y-87351746D01*
X148512998Y-87351746D02*
X148560617Y-87304127D01*
X148560617Y-87304127D02*
X148655855Y-87256508D01*
X148655855Y-87256508D02*
X148751093Y-87256508D01*
X149512998Y-87923175D02*
X149512998Y-86923175D01*
X149512998Y-87875556D02*
X149417760Y-87923175D01*
X149417760Y-87923175D02*
X149227284Y-87923175D01*
X149227284Y-87923175D02*
X149132046Y-87875556D01*
X149132046Y-87875556D02*
X149084427Y-87827936D01*
X149084427Y-87827936D02*
X149036808Y-87732698D01*
X149036808Y-87732698D02*
X149036808Y-87446984D01*
X149036808Y-87446984D02*
X149084427Y-87351746D01*
X149084427Y-87351746D02*
X149132046Y-87304127D01*
X149132046Y-87304127D02*
X149227284Y-87256508D01*
X149227284Y-87256508D02*
X149417760Y-87256508D01*
X149417760Y-87256508D02*
X149512998Y-87304127D01*
X149989189Y-87923175D02*
X149989189Y-87256508D01*
X149989189Y-86923175D02*
X149941570Y-86970794D01*
X149941570Y-86970794D02*
X149989189Y-87018413D01*
X149989189Y-87018413D02*
X150036808Y-86970794D01*
X150036808Y-86970794D02*
X149989189Y-86923175D01*
X149989189Y-86923175D02*
X149989189Y-87018413D01*
X150608236Y-87923175D02*
X150512998Y-87875556D01*
X150512998Y-87875556D02*
X150465379Y-87827936D01*
X150465379Y-87827936D02*
X150417760Y-87732698D01*
X150417760Y-87732698D02*
X150417760Y-87446984D01*
X150417760Y-87446984D02*
X150465379Y-87351746D01*
X150465379Y-87351746D02*
X150512998Y-87304127D01*
X150512998Y-87304127D02*
X150608236Y-87256508D01*
X150608236Y-87256508D02*
X150751093Y-87256508D01*
X150751093Y-87256508D02*
X150846331Y-87304127D01*
X150846331Y-87304127D02*
X150893950Y-87351746D01*
X150893950Y-87351746D02*
X150941569Y-87446984D01*
X150941569Y-87446984D02*
X150941569Y-87732698D01*
X150941569Y-87732698D02*
X150893950Y-87827936D01*
X150893950Y-87827936D02*
X150846331Y-87875556D01*
X150846331Y-87875556D02*
X150751093Y-87923175D01*
X150751093Y-87923175D02*
X150608236Y-87923175D01*
X151798712Y-87923175D02*
X151798712Y-86923175D01*
X151798712Y-87875556D02*
X151703474Y-87923175D01*
X151703474Y-87923175D02*
X151512998Y-87923175D01*
X151512998Y-87923175D02*
X151417760Y-87875556D01*
X151417760Y-87875556D02*
X151370141Y-87827936D01*
X151370141Y-87827936D02*
X151322522Y-87732698D01*
X151322522Y-87732698D02*
X151322522Y-87446984D01*
X151322522Y-87446984D02*
X151370141Y-87351746D01*
X151370141Y-87351746D02*
X151417760Y-87304127D01*
X151417760Y-87304127D02*
X151512998Y-87256508D01*
X151512998Y-87256508D02*
X151703474Y-87256508D01*
X151703474Y-87256508D02*
X151798712Y-87304127D01*
X152655855Y-87875556D02*
X152560617Y-87923175D01*
X152560617Y-87923175D02*
X152370141Y-87923175D01*
X152370141Y-87923175D02*
X152274903Y-87875556D01*
X152274903Y-87875556D02*
X152227284Y-87780317D01*
X152227284Y-87780317D02*
X152227284Y-87399365D01*
X152227284Y-87399365D02*
X152274903Y-87304127D01*
X152274903Y-87304127D02*
X152370141Y-87256508D01*
X152370141Y-87256508D02*
X152560617Y-87256508D01*
X152560617Y-87256508D02*
X152655855Y-87304127D01*
X152655855Y-87304127D02*
X152703474Y-87399365D01*
X152703474Y-87399365D02*
X152703474Y-87494603D01*
X152703474Y-87494603D02*
X152227284Y-87589841D01*
X144846331Y-89533119D02*
X144846331Y-88533119D01*
X144846331Y-88533119D02*
X145227283Y-88533119D01*
X145227283Y-88533119D02*
X145322521Y-88580738D01*
X145322521Y-88580738D02*
X145370140Y-88628357D01*
X145370140Y-88628357D02*
X145417759Y-88723595D01*
X145417759Y-88723595D02*
X145417759Y-88866452D01*
X145417759Y-88866452D02*
X145370140Y-88961690D01*
X145370140Y-88961690D02*
X145322521Y-89009309D01*
X145322521Y-89009309D02*
X145227283Y-89056928D01*
X145227283Y-89056928D02*
X144846331Y-89056928D01*
X146227283Y-89485500D02*
X146132045Y-89533119D01*
X146132045Y-89533119D02*
X145941569Y-89533119D01*
X145941569Y-89533119D02*
X145846331Y-89485500D01*
X145846331Y-89485500D02*
X145798712Y-89390261D01*
X145798712Y-89390261D02*
X145798712Y-89009309D01*
X145798712Y-89009309D02*
X145846331Y-88914071D01*
X145846331Y-88914071D02*
X145941569Y-88866452D01*
X145941569Y-88866452D02*
X146132045Y-88866452D01*
X146132045Y-88866452D02*
X146227283Y-88914071D01*
X146227283Y-88914071D02*
X146274902Y-89009309D01*
X146274902Y-89009309D02*
X146274902Y-89104547D01*
X146274902Y-89104547D02*
X145798712Y-89199785D01*
X147132045Y-89533119D02*
X147132045Y-89009309D01*
X147132045Y-89009309D02*
X147084426Y-88914071D01*
X147084426Y-88914071D02*
X146989188Y-88866452D01*
X146989188Y-88866452D02*
X146798712Y-88866452D01*
X146798712Y-88866452D02*
X146703474Y-88914071D01*
X147132045Y-89485500D02*
X147036807Y-89533119D01*
X147036807Y-89533119D02*
X146798712Y-89533119D01*
X146798712Y-89533119D02*
X146703474Y-89485500D01*
X146703474Y-89485500D02*
X146655855Y-89390261D01*
X146655855Y-89390261D02*
X146655855Y-89295023D01*
X146655855Y-89295023D02*
X146703474Y-89199785D01*
X146703474Y-89199785D02*
X146798712Y-89152166D01*
X146798712Y-89152166D02*
X147036807Y-89152166D01*
X147036807Y-89152166D02*
X147132045Y-89104547D01*
X147608236Y-89533119D02*
X147608236Y-88533119D01*
X147703474Y-89152166D02*
X147989188Y-89533119D01*
X147989188Y-88866452D02*
X147608236Y-89247404D01*
X149179665Y-89533119D02*
X149179665Y-88533119D01*
X149179665Y-88533119D02*
X149417760Y-88533119D01*
X149417760Y-88533119D02*
X149560617Y-88580738D01*
X149560617Y-88580738D02*
X149655855Y-88675976D01*
X149655855Y-88675976D02*
X149703474Y-88771214D01*
X149703474Y-88771214D02*
X149751093Y-88961690D01*
X149751093Y-88961690D02*
X149751093Y-89104547D01*
X149751093Y-89104547D02*
X149703474Y-89295023D01*
X149703474Y-89295023D02*
X149655855Y-89390261D01*
X149655855Y-89390261D02*
X149560617Y-89485500D01*
X149560617Y-89485500D02*
X149417760Y-89533119D01*
X149417760Y-89533119D02*
X149179665Y-89533119D01*
X150560617Y-89485500D02*
X150465379Y-89533119D01*
X150465379Y-89533119D02*
X150274903Y-89533119D01*
X150274903Y-89533119D02*
X150179665Y-89485500D01*
X150179665Y-89485500D02*
X150132046Y-89390261D01*
X150132046Y-89390261D02*
X150132046Y-89009309D01*
X150132046Y-89009309D02*
X150179665Y-88914071D01*
X150179665Y-88914071D02*
X150274903Y-88866452D01*
X150274903Y-88866452D02*
X150465379Y-88866452D01*
X150465379Y-88866452D02*
X150560617Y-88914071D01*
X150560617Y-88914071D02*
X150608236Y-89009309D01*
X150608236Y-89009309D02*
X150608236Y-89104547D01*
X150608236Y-89104547D02*
X150132046Y-89199785D01*
X150893951Y-88866452D02*
X151274903Y-88866452D01*
X151036808Y-88533119D02*
X151036808Y-89390261D01*
X151036808Y-89390261D02*
X151084427Y-89485500D01*
X151084427Y-89485500D02*
X151179665Y-89533119D01*
X151179665Y-89533119D02*
X151274903Y-89533119D01*
X151989189Y-89485500D02*
X151893951Y-89533119D01*
X151893951Y-89533119D02*
X151703475Y-89533119D01*
X151703475Y-89533119D02*
X151608237Y-89485500D01*
X151608237Y-89485500D02*
X151560618Y-89390261D01*
X151560618Y-89390261D02*
X151560618Y-89009309D01*
X151560618Y-89009309D02*
X151608237Y-88914071D01*
X151608237Y-88914071D02*
X151703475Y-88866452D01*
X151703475Y-88866452D02*
X151893951Y-88866452D01*
X151893951Y-88866452D02*
X151989189Y-88914071D01*
X151989189Y-88914071D02*
X152036808Y-89009309D01*
X152036808Y-89009309D02*
X152036808Y-89104547D01*
X152036808Y-89104547D02*
X151560618Y-89199785D01*
X152893951Y-89485500D02*
X152798713Y-89533119D01*
X152798713Y-89533119D02*
X152608237Y-89533119D01*
X152608237Y-89533119D02*
X152512999Y-89485500D01*
X152512999Y-89485500D02*
X152465380Y-89437880D01*
X152465380Y-89437880D02*
X152417761Y-89342642D01*
X152417761Y-89342642D02*
X152417761Y-89056928D01*
X152417761Y-89056928D02*
X152465380Y-88961690D01*
X152465380Y-88961690D02*
X152512999Y-88914071D01*
X152512999Y-88914071D02*
X152608237Y-88866452D01*
X152608237Y-88866452D02*
X152798713Y-88866452D01*
X152798713Y-88866452D02*
X152893951Y-88914071D01*
X153179666Y-88866452D02*
X153560618Y-88866452D01*
X153322523Y-88533119D02*
X153322523Y-89390261D01*
X153322523Y-89390261D02*
X153370142Y-89485500D01*
X153370142Y-89485500D02*
X153465380Y-89533119D01*
X153465380Y-89533119D02*
X153560618Y-89533119D01*
X154036809Y-89533119D02*
X153941571Y-89485500D01*
X153941571Y-89485500D02*
X153893952Y-89437880D01*
X153893952Y-89437880D02*
X153846333Y-89342642D01*
X153846333Y-89342642D02*
X153846333Y-89056928D01*
X153846333Y-89056928D02*
X153893952Y-88961690D01*
X153893952Y-88961690D02*
X153941571Y-88914071D01*
X153941571Y-88914071D02*
X154036809Y-88866452D01*
X154036809Y-88866452D02*
X154179666Y-88866452D01*
X154179666Y-88866452D02*
X154274904Y-88914071D01*
X154274904Y-88914071D02*
X154322523Y-88961690D01*
X154322523Y-88961690D02*
X154370142Y-89056928D01*
X154370142Y-89056928D02*
X154370142Y-89342642D01*
X154370142Y-89342642D02*
X154322523Y-89437880D01*
X154322523Y-89437880D02*
X154274904Y-89485500D01*
X154274904Y-89485500D02*
X154179666Y-89533119D01*
X154179666Y-89533119D02*
X154036809Y-89533119D01*
X154798714Y-89533119D02*
X154798714Y-88866452D01*
X154798714Y-89056928D02*
X154846333Y-88961690D01*
X154846333Y-88961690D02*
X154893952Y-88914071D01*
X154893952Y-88914071D02*
X154989190Y-88866452D01*
X154989190Y-88866452D02*
X155084428Y-88866452D01*
D10*
X134781027Y-89042419D02*
X135114360Y-90042419D01*
X135114360Y-90042419D02*
X135447693Y-89042419D01*
X135781027Y-90042419D02*
X135781027Y-89042419D01*
X136257217Y-90042419D02*
X136257217Y-89042419D01*
X136257217Y-89042419D02*
X136828645Y-90042419D01*
X136828645Y-90042419D02*
X136828645Y-89042419D01*
X144829884Y-91058419D02*
X144829884Y-90058419D01*
X144829884Y-90058419D02*
X145401312Y-91058419D01*
X145401312Y-91058419D02*
X145401312Y-90058419D01*
X146448931Y-90963180D02*
X146401312Y-91010800D01*
X146401312Y-91010800D02*
X146258455Y-91058419D01*
X146258455Y-91058419D02*
X146163217Y-91058419D01*
X146163217Y-91058419D02*
X146020360Y-91010800D01*
X146020360Y-91010800D02*
X145925122Y-90915561D01*
X145925122Y-90915561D02*
X145877503Y-90820323D01*
X145877503Y-90820323D02*
X145829884Y-90629847D01*
X145829884Y-90629847D02*
X145829884Y-90486990D01*
X145829884Y-90486990D02*
X145877503Y-90296514D01*
X145877503Y-90296514D02*
X145925122Y-90201276D01*
X145925122Y-90201276D02*
X146020360Y-90106038D01*
X146020360Y-90106038D02*
X146163217Y-90058419D01*
X146163217Y-90058419D02*
X146258455Y-90058419D01*
X146258455Y-90058419D02*
X146401312Y-90106038D01*
X146401312Y-90106038D02*
X146448931Y-90153657D01*
X146829884Y-91010800D02*
X146972741Y-91058419D01*
X146972741Y-91058419D02*
X147210836Y-91058419D01*
X147210836Y-91058419D02*
X147306074Y-91010800D01*
X147306074Y-91010800D02*
X147353693Y-90963180D01*
X147353693Y-90963180D02*
X147401312Y-90867942D01*
X147401312Y-90867942D02*
X147401312Y-90772704D01*
X147401312Y-90772704D02*
X147353693Y-90677466D01*
X147353693Y-90677466D02*
X147306074Y-90629847D01*
X147306074Y-90629847D02*
X147210836Y-90582228D01*
X147210836Y-90582228D02*
X147020360Y-90534609D01*
X147020360Y-90534609D02*
X146925122Y-90486990D01*
X146925122Y-90486990D02*
X146877503Y-90439371D01*
X146877503Y-90439371D02*
X146829884Y-90344133D01*
X146829884Y-90344133D02*
X146829884Y-90248895D01*
X146829884Y-90248895D02*
X146877503Y-90153657D01*
X146877503Y-90153657D02*
X146925122Y-90106038D01*
X146925122Y-90106038D02*
X147020360Y-90058419D01*
X147020360Y-90058419D02*
X147258455Y-90058419D01*
X147258455Y-90058419D02*
X147401312Y-90106038D01*
X147782265Y-90153657D02*
X147829884Y-90106038D01*
X147829884Y-90106038D02*
X147925122Y-90058419D01*
X147925122Y-90058419D02*
X148163217Y-90058419D01*
X148163217Y-90058419D02*
X148258455Y-90106038D01*
X148258455Y-90106038D02*
X148306074Y-90153657D01*
X148306074Y-90153657D02*
X148353693Y-90248895D01*
X148353693Y-90248895D02*
X148353693Y-90344133D01*
X148353693Y-90344133D02*
X148306074Y-90486990D01*
X148306074Y-90486990D02*
X147734646Y-91058419D01*
X147734646Y-91058419D02*
X148353693Y-91058419D01*
X148972741Y-90058419D02*
X149067979Y-90058419D01*
X149067979Y-90058419D02*
X149163217Y-90106038D01*
X149163217Y-90106038D02*
X149210836Y-90153657D01*
X149210836Y-90153657D02*
X149258455Y-90248895D01*
X149258455Y-90248895D02*
X149306074Y-90439371D01*
X149306074Y-90439371D02*
X149306074Y-90677466D01*
X149306074Y-90677466D02*
X149258455Y-90867942D01*
X149258455Y-90867942D02*
X149210836Y-90963180D01*
X149210836Y-90963180D02*
X149163217Y-91010800D01*
X149163217Y-91010800D02*
X149067979Y-91058419D01*
X149067979Y-91058419D02*
X148972741Y-91058419D01*
X148972741Y-91058419D02*
X148877503Y-91010800D01*
X148877503Y-91010800D02*
X148829884Y-90963180D01*
X148829884Y-90963180D02*
X148782265Y-90867942D01*
X148782265Y-90867942D02*
X148734646Y-90677466D01*
X148734646Y-90677466D02*
X148734646Y-90439371D01*
X148734646Y-90439371D02*
X148782265Y-90248895D01*
X148782265Y-90248895D02*
X148829884Y-90153657D01*
X148829884Y-90153657D02*
X148877503Y-90106038D01*
X148877503Y-90106038D02*
X148972741Y-90058419D01*
X149925122Y-90058419D02*
X150020360Y-90058419D01*
X150020360Y-90058419D02*
X150115598Y-90106038D01*
X150115598Y-90106038D02*
X150163217Y-90153657D01*
X150163217Y-90153657D02*
X150210836Y-90248895D01*
X150210836Y-90248895D02*
X150258455Y-90439371D01*
X150258455Y-90439371D02*
X150258455Y-90677466D01*
X150258455Y-90677466D02*
X150210836Y-90867942D01*
X150210836Y-90867942D02*
X150163217Y-90963180D01*
X150163217Y-90963180D02*
X150115598Y-91010800D01*
X150115598Y-91010800D02*
X150020360Y-91058419D01*
X150020360Y-91058419D02*
X149925122Y-91058419D01*
X149925122Y-91058419D02*
X149829884Y-91010800D01*
X149829884Y-91010800D02*
X149782265Y-90963180D01*
X149782265Y-90963180D02*
X149734646Y-90867942D01*
X149734646Y-90867942D02*
X149687027Y-90677466D01*
X149687027Y-90677466D02*
X149687027Y-90439371D01*
X149687027Y-90439371D02*
X149734646Y-90248895D01*
X149734646Y-90248895D02*
X149782265Y-90153657D01*
X149782265Y-90153657D02*
X149829884Y-90106038D01*
X149829884Y-90106038D02*
X149925122Y-90058419D01*
X151115598Y-90058419D02*
X150925122Y-90058419D01*
X150925122Y-90058419D02*
X150829884Y-90106038D01*
X150829884Y-90106038D02*
X150782265Y-90153657D01*
X150782265Y-90153657D02*
X150687027Y-90296514D01*
X150687027Y-90296514D02*
X150639408Y-90486990D01*
X150639408Y-90486990D02*
X150639408Y-90867942D01*
X150639408Y-90867942D02*
X150687027Y-90963180D01*
X150687027Y-90963180D02*
X150734646Y-91010800D01*
X150734646Y-91010800D02*
X150829884Y-91058419D01*
X150829884Y-91058419D02*
X151020360Y-91058419D01*
X151020360Y-91058419D02*
X151115598Y-91010800D01*
X151115598Y-91010800D02*
X151163217Y-90963180D01*
X151163217Y-90963180D02*
X151210836Y-90867942D01*
X151210836Y-90867942D02*
X151210836Y-90629847D01*
X151210836Y-90629847D02*
X151163217Y-90534609D01*
X151163217Y-90534609D02*
X151115598Y-90486990D01*
X151115598Y-90486990D02*
X151020360Y-90439371D01*
X151020360Y-90439371D02*
X150829884Y-90439371D01*
X150829884Y-90439371D02*
X150734646Y-90486990D01*
X150734646Y-90486990D02*
X150687027Y-90534609D01*
X150687027Y-90534609D02*
X150639408Y-90629847D01*
X152163217Y-91058419D02*
X151591789Y-91058419D01*
X151877503Y-91058419D02*
X151877503Y-90058419D01*
X151877503Y-90058419D02*
X151782265Y-90201276D01*
X151782265Y-90201276D02*
X151687027Y-90296514D01*
X151687027Y-90296514D02*
X151591789Y-90344133D01*
X152544170Y-91010800D02*
X152687027Y-91058419D01*
X152687027Y-91058419D02*
X152925122Y-91058419D01*
X152925122Y-91058419D02*
X153020360Y-91010800D01*
X153020360Y-91010800D02*
X153067979Y-90963180D01*
X153067979Y-90963180D02*
X153115598Y-90867942D01*
X153115598Y-90867942D02*
X153115598Y-90772704D01*
X153115598Y-90772704D02*
X153067979Y-90677466D01*
X153067979Y-90677466D02*
X153020360Y-90629847D01*
X153020360Y-90629847D02*
X152925122Y-90582228D01*
X152925122Y-90582228D02*
X152734646Y-90534609D01*
X152734646Y-90534609D02*
X152639408Y-90486990D01*
X152639408Y-90486990D02*
X152591789Y-90439371D01*
X152591789Y-90439371D02*
X152544170Y-90344133D01*
X152544170Y-90344133D02*
X152544170Y-90248895D01*
X152544170Y-90248895D02*
X152591789Y-90153657D01*
X152591789Y-90153657D02*
X152639408Y-90106038D01*
X152639408Y-90106038D02*
X152734646Y-90058419D01*
X152734646Y-90058419D02*
X152972741Y-90058419D01*
X152972741Y-90058419D02*
X153115598Y-90106038D01*
X153544170Y-91058419D02*
X153544170Y-90058419D01*
X153544170Y-90058419D02*
X154115598Y-91058419D01*
X154115598Y-91058419D02*
X154115598Y-90058419D01*
X154496551Y-90058419D02*
X155115598Y-90058419D01*
X155115598Y-90058419D02*
X154782265Y-90439371D01*
X154782265Y-90439371D02*
X154925122Y-90439371D01*
X154925122Y-90439371D02*
X155020360Y-90486990D01*
X155020360Y-90486990D02*
X155067979Y-90534609D01*
X155067979Y-90534609D02*
X155115598Y-90629847D01*
X155115598Y-90629847D02*
X155115598Y-90867942D01*
X155115598Y-90867942D02*
X155067979Y-90963180D01*
X155067979Y-90963180D02*
X155020360Y-91010800D01*
X155020360Y-91010800D02*
X154925122Y-91058419D01*
X154925122Y-91058419D02*
X154639408Y-91058419D01*
X154639408Y-91058419D02*
X154544170Y-91010800D01*
X154544170Y-91010800D02*
X154496551Y-90963180D01*
D12*
X141224095Y-86412819D02*
X141224095Y-87222342D01*
X141224095Y-87222342D02*
X141271714Y-87317580D01*
X141271714Y-87317580D02*
X141319333Y-87365200D01*
X141319333Y-87365200D02*
X141414571Y-87412819D01*
X141414571Y-87412819D02*
X141605047Y-87412819D01*
X141605047Y-87412819D02*
X141700285Y-87365200D01*
X141700285Y-87365200D02*
X141747904Y-87317580D01*
X141747904Y-87317580D02*
X141795523Y-87222342D01*
X141795523Y-87222342D02*
X141795523Y-86412819D01*
X142795523Y-87412819D02*
X142224095Y-87412819D01*
X142509809Y-87412819D02*
X142509809Y-86412819D01*
X142509809Y-86412819D02*
X142414571Y-86555676D01*
X142414571Y-86555676D02*
X142319333Y-86650914D01*
X142319333Y-86650914D02*
X142224095Y-86698533D01*
X143851333Y-100943580D02*
X143803714Y-100991200D01*
X143803714Y-100991200D02*
X143660857Y-101038819D01*
X143660857Y-101038819D02*
X143565619Y-101038819D01*
X143565619Y-101038819D02*
X143422762Y-100991200D01*
X143422762Y-100991200D02*
X143327524Y-100895961D01*
X143327524Y-100895961D02*
X143279905Y-100800723D01*
X143279905Y-100800723D02*
X143232286Y-100610247D01*
X143232286Y-100610247D02*
X143232286Y-100467390D01*
X143232286Y-100467390D02*
X143279905Y-100276914D01*
X143279905Y-100276914D02*
X143327524Y-100181676D01*
X143327524Y-100181676D02*
X143422762Y-100086438D01*
X143422762Y-100086438D02*
X143565619Y-100038819D01*
X143565619Y-100038819D02*
X143660857Y-100038819D01*
X143660857Y-100038819D02*
X143803714Y-100086438D01*
X143803714Y-100086438D02*
X143851333Y-100134057D01*
X144803714Y-101038819D02*
X144232286Y-101038819D01*
X144518000Y-101038819D02*
X144518000Y-100038819D01*
X144518000Y-100038819D02*
X144422762Y-100181676D01*
X144422762Y-100181676D02*
X144327524Y-100276914D01*
X144327524Y-100276914D02*
X144232286Y-100324533D01*
X146918819Y-97893666D02*
X146442628Y-98226999D01*
X146918819Y-98465094D02*
X145918819Y-98465094D01*
X145918819Y-98465094D02*
X145918819Y-98084142D01*
X145918819Y-98084142D02*
X145966438Y-97988904D01*
X145966438Y-97988904D02*
X146014057Y-97941285D01*
X146014057Y-97941285D02*
X146109295Y-97893666D01*
X146109295Y-97893666D02*
X146252152Y-97893666D01*
X146252152Y-97893666D02*
X146347390Y-97941285D01*
X146347390Y-97941285D02*
X146395009Y-97988904D01*
X146395009Y-97988904D02*
X146442628Y-98084142D01*
X146442628Y-98084142D02*
X146442628Y-98465094D01*
X146014057Y-97512713D02*
X145966438Y-97465094D01*
X145966438Y-97465094D02*
X145918819Y-97369856D01*
X145918819Y-97369856D02*
X145918819Y-97131761D01*
X145918819Y-97131761D02*
X145966438Y-97036523D01*
X145966438Y-97036523D02*
X146014057Y-96988904D01*
X146014057Y-96988904D02*
X146109295Y-96941285D01*
X146109295Y-96941285D02*
X146204533Y-96941285D01*
X146204533Y-96941285D02*
X146347390Y-96988904D01*
X146347390Y-96988904D02*
X146918819Y-97560332D01*
X146918819Y-97560332D02*
X146918819Y-96941285D01*
X152550333Y-96052819D02*
X152217000Y-95576628D01*
X151978905Y-96052819D02*
X151978905Y-95052819D01*
X151978905Y-95052819D02*
X152359857Y-95052819D01*
X152359857Y-95052819D02*
X152455095Y-95100438D01*
X152455095Y-95100438D02*
X152502714Y-95148057D01*
X152502714Y-95148057D02*
X152550333Y-95243295D01*
X152550333Y-95243295D02*
X152550333Y-95386152D01*
X152550333Y-95386152D02*
X152502714Y-95481390D01*
X152502714Y-95481390D02*
X152455095Y-95529009D01*
X152455095Y-95529009D02*
X152359857Y-95576628D01*
X152359857Y-95576628D02*
X151978905Y-95576628D01*
X153407476Y-95386152D02*
X153407476Y-96052819D01*
X153169381Y-95005200D02*
X152931286Y-95719485D01*
X152931286Y-95719485D02*
X153550333Y-95719485D01*
X151903580Y-100255666D02*
X151951200Y-100303285D01*
X151951200Y-100303285D02*
X151998819Y-100446142D01*
X151998819Y-100446142D02*
X151998819Y-100541380D01*
X151998819Y-100541380D02*
X151951200Y-100684237D01*
X151951200Y-100684237D02*
X151855961Y-100779475D01*
X151855961Y-100779475D02*
X151760723Y-100827094D01*
X151760723Y-100827094D02*
X151570247Y-100874713D01*
X151570247Y-100874713D02*
X151427390Y-100874713D01*
X151427390Y-100874713D02*
X151236914Y-100827094D01*
X151236914Y-100827094D02*
X151141676Y-100779475D01*
X151141676Y-100779475D02*
X151046438Y-100684237D01*
X151046438Y-100684237D02*
X150998819Y-100541380D01*
X150998819Y-100541380D02*
X150998819Y-100446142D01*
X150998819Y-100446142D02*
X151046438Y-100303285D01*
X151046438Y-100303285D02*
X151094057Y-100255666D01*
X151094057Y-99874713D02*
X151046438Y-99827094D01*
X151046438Y-99827094D02*
X150998819Y-99731856D01*
X150998819Y-99731856D02*
X150998819Y-99493761D01*
X150998819Y-99493761D02*
X151046438Y-99398523D01*
X151046438Y-99398523D02*
X151094057Y-99350904D01*
X151094057Y-99350904D02*
X151189295Y-99303285D01*
X151189295Y-99303285D02*
X151284533Y-99303285D01*
X151284533Y-99303285D02*
X151427390Y-99350904D01*
X151427390Y-99350904D02*
X151998819Y-99922332D01*
X151998819Y-99922332D02*
X151998819Y-99303285D01*
X148994333Y-96052819D02*
X148661000Y-95576628D01*
X148422905Y-96052819D02*
X148422905Y-95052819D01*
X148422905Y-95052819D02*
X148803857Y-95052819D01*
X148803857Y-95052819D02*
X148899095Y-95100438D01*
X148899095Y-95100438D02*
X148946714Y-95148057D01*
X148946714Y-95148057D02*
X148994333Y-95243295D01*
X148994333Y-95243295D02*
X148994333Y-95386152D01*
X148994333Y-95386152D02*
X148946714Y-95481390D01*
X148946714Y-95481390D02*
X148899095Y-95529009D01*
X148899095Y-95529009D02*
X148803857Y-95576628D01*
X148803857Y-95576628D02*
X148422905Y-95576628D01*
X149327667Y-95052819D02*
X149946714Y-95052819D01*
X149946714Y-95052819D02*
X149613381Y-95433771D01*
X149613381Y-95433771D02*
X149756238Y-95433771D01*
X149756238Y-95433771D02*
X149851476Y-95481390D01*
X149851476Y-95481390D02*
X149899095Y-95529009D01*
X149899095Y-95529009D02*
X149946714Y-95624247D01*
X149946714Y-95624247D02*
X149946714Y-95862342D01*
X149946714Y-95862342D02*
X149899095Y-95957580D01*
X149899095Y-95957580D02*
X149851476Y-96005200D01*
X149851476Y-96005200D02*
X149756238Y-96052819D01*
X149756238Y-96052819D02*
X149470524Y-96052819D01*
X149470524Y-96052819D02*
X149375286Y-96005200D01*
X149375286Y-96005200D02*
X149327667Y-95957580D01*
X142600819Y-97956666D02*
X142124628Y-98289999D01*
X142600819Y-98528094D02*
X141600819Y-98528094D01*
X141600819Y-98528094D02*
X141600819Y-98147142D01*
X141600819Y-98147142D02*
X141648438Y-98051904D01*
X141648438Y-98051904D02*
X141696057Y-98004285D01*
X141696057Y-98004285D02*
X141791295Y-97956666D01*
X141791295Y-97956666D02*
X141934152Y-97956666D01*
X141934152Y-97956666D02*
X142029390Y-98004285D01*
X142029390Y-98004285D02*
X142077009Y-98051904D01*
X142077009Y-98051904D02*
X142124628Y-98147142D01*
X142124628Y-98147142D02*
X142124628Y-98528094D01*
X142600819Y-97004285D02*
X142600819Y-97575713D01*
X142600819Y-97289999D02*
X141600819Y-97289999D01*
X141600819Y-97289999D02*
X141743676Y-97385237D01*
X141743676Y-97385237D02*
X141838914Y-97480475D01*
X141838914Y-97480475D02*
X141886533Y-97575713D01*
X152599580Y-93371666D02*
X152647200Y-93419285D01*
X152647200Y-93419285D02*
X152694819Y-93562142D01*
X152694819Y-93562142D02*
X152694819Y-93657380D01*
X152694819Y-93657380D02*
X152647200Y-93800237D01*
X152647200Y-93800237D02*
X152551961Y-93895475D01*
X152551961Y-93895475D02*
X152456723Y-93943094D01*
X152456723Y-93943094D02*
X152266247Y-93990713D01*
X152266247Y-93990713D02*
X152123390Y-93990713D01*
X152123390Y-93990713D02*
X151932914Y-93943094D01*
X151932914Y-93943094D02*
X151837676Y-93895475D01*
X151837676Y-93895475D02*
X151742438Y-93800237D01*
X151742438Y-93800237D02*
X151694819Y-93657380D01*
X151694819Y-93657380D02*
X151694819Y-93562142D01*
X151694819Y-93562142D02*
X151742438Y-93419285D01*
X151742438Y-93419285D02*
X151790057Y-93371666D01*
X151694819Y-93038332D02*
X151694819Y-92419285D01*
X151694819Y-92419285D02*
X152075771Y-92752618D01*
X152075771Y-92752618D02*
X152075771Y-92609761D01*
X152075771Y-92609761D02*
X152123390Y-92514523D01*
X152123390Y-92514523D02*
X152171009Y-92466904D01*
X152171009Y-92466904D02*
X152266247Y-92419285D01*
X152266247Y-92419285D02*
X152504342Y-92419285D01*
X152504342Y-92419285D02*
X152599580Y-92466904D01*
X152599580Y-92466904D02*
X152647200Y-92514523D01*
X152647200Y-92514523D02*
X152694819Y-92609761D01*
X152694819Y-92609761D02*
X152694819Y-92895475D01*
X152694819Y-92895475D02*
X152647200Y-92990713D01*
X152647200Y-92990713D02*
X152599580Y-93038332D01*
X144041905Y-93926819D02*
X144041905Y-92926819D01*
X144041905Y-92926819D02*
X144280000Y-92926819D01*
X144280000Y-92926819D02*
X144422857Y-92974438D01*
X144422857Y-92974438D02*
X144518095Y-93069676D01*
X144518095Y-93069676D02*
X144565714Y-93164914D01*
X144565714Y-93164914D02*
X144613333Y-93355390D01*
X144613333Y-93355390D02*
X144613333Y-93498247D01*
X144613333Y-93498247D02*
X144565714Y-93688723D01*
X144565714Y-93688723D02*
X144518095Y-93783961D01*
X144518095Y-93783961D02*
X144422857Y-93879200D01*
X144422857Y-93879200D02*
X144280000Y-93926819D01*
X144280000Y-93926819D02*
X144041905Y-93926819D01*
X145565714Y-93926819D02*
X144994286Y-93926819D01*
X145280000Y-93926819D02*
X145280000Y-92926819D01*
X145280000Y-92926819D02*
X145184762Y-93069676D01*
X145184762Y-93069676D02*
X145089524Y-93164914D01*
X145089524Y-93164914D02*
X144994286Y-93212533D01*
X142383142Y-96046819D02*
X141811714Y-96046819D01*
X142097428Y-96046819D02*
X142097428Y-95046819D01*
X142097428Y-95046819D02*
X142002190Y-95189676D01*
X142002190Y-95189676D02*
X141906952Y-95284914D01*
X141906952Y-95284914D02*
X141811714Y-95332533D01*
X142811714Y-96046819D02*
X142811714Y-95046819D01*
X142811714Y-95046819D02*
X143383142Y-96046819D01*
X143383142Y-96046819D02*
X143383142Y-95046819D01*
X144287904Y-95380152D02*
X144287904Y-96046819D01*
X144049809Y-94999200D02*
X143811714Y-95713485D01*
X143811714Y-95713485D02*
X144430761Y-95713485D01*
X145335523Y-96046819D02*
X144764095Y-96046819D01*
X145049809Y-96046819D02*
X145049809Y-95046819D01*
X145049809Y-95046819D02*
X144954571Y-95189676D01*
X144954571Y-95189676D02*
X144859333Y-95284914D01*
X144859333Y-95284914D02*
X144764095Y-95332533D01*
X146192666Y-95380152D02*
X146192666Y-96046819D01*
X145954571Y-94999200D02*
X145716476Y-95713485D01*
X145716476Y-95713485D02*
X146335523Y-95713485D01*
X146859333Y-95475390D02*
X146764095Y-95427771D01*
X146764095Y-95427771D02*
X146716476Y-95380152D01*
X146716476Y-95380152D02*
X146668857Y-95284914D01*
X146668857Y-95284914D02*
X146668857Y-95237295D01*
X146668857Y-95237295D02*
X146716476Y-95142057D01*
X146716476Y-95142057D02*
X146764095Y-95094438D01*
X146764095Y-95094438D02*
X146859333Y-95046819D01*
X146859333Y-95046819D02*
X147049809Y-95046819D01*
X147049809Y-95046819D02*
X147145047Y-95094438D01*
X147145047Y-95094438D02*
X147192666Y-95142057D01*
X147192666Y-95142057D02*
X147240285Y-95237295D01*
X147240285Y-95237295D02*
X147240285Y-95284914D01*
X147240285Y-95284914D02*
X147192666Y-95380152D01*
X147192666Y-95380152D02*
X147145047Y-95427771D01*
X147145047Y-95427771D02*
X147049809Y-95475390D01*
X147049809Y-95475390D02*
X146859333Y-95475390D01*
X146859333Y-95475390D02*
X146764095Y-95523009D01*
X146764095Y-95523009D02*
X146716476Y-95570628D01*
X146716476Y-95570628D02*
X146668857Y-95665866D01*
X146668857Y-95665866D02*
X146668857Y-95856342D01*
X146668857Y-95856342D02*
X146716476Y-95951580D01*
X146716476Y-95951580D02*
X146764095Y-95999200D01*
X146764095Y-95999200D02*
X146859333Y-96046819D01*
X146859333Y-96046819D02*
X147049809Y-96046819D01*
X147049809Y-96046819D02*
X147145047Y-95999200D01*
X147145047Y-95999200D02*
X147192666Y-95951580D01*
X147192666Y-95951580D02*
X147240285Y-95856342D01*
X147240285Y-95856342D02*
X147240285Y-95665866D01*
X147240285Y-95665866D02*
X147192666Y-95570628D01*
X147192666Y-95570628D02*
X147145047Y-95523009D01*
X147145047Y-95523009D02*
X147049809Y-95475390D01*
X138930095Y-92402819D02*
X138930095Y-91402819D01*
X139501523Y-92402819D02*
X139072952Y-91831390D01*
X139501523Y-91402819D02*
X138930095Y-91974247D01*
D13*
%TO.C,U1*%
X141186000Y-87808000D02*
X142786000Y-87808000D01*
X141186000Y-91008000D02*
X142786000Y-91008000D01*
X140736000Y-87958000D02*
X140496000Y-87628000D01*
X140976000Y-87628000D01*
X140736000Y-87958000D01*
G36*
X140736000Y-87958000D02*
G01*
X140496000Y-87628000D01*
X140976000Y-87628000D01*
X140736000Y-87958000D01*
G37*
%TO.C,C1*%
X141324420Y-100074000D02*
X141605580Y-100074000D01*
X141324420Y-101094000D02*
X141605580Y-101094000D01*
%TO.C,R2*%
X144511500Y-97489742D02*
X144511500Y-97964258D01*
X145556500Y-97489742D02*
X145556500Y-97964258D01*
%TO.C,R4*%
X152479742Y-96505500D02*
X152954258Y-96505500D01*
X152479742Y-97550500D02*
X152954258Y-97550500D01*
%TO.C,C2*%
X149604000Y-99948420D02*
X149604000Y-100229580D01*
X150624000Y-99948420D02*
X150624000Y-100229580D01*
%TO.C,R3*%
X148923742Y-96505500D02*
X149398258Y-96505500D01*
X148923742Y-97550500D02*
X149398258Y-97550500D01*
%TO.C,R1*%
X140193500Y-97552742D02*
X140193500Y-98027258D01*
X141238500Y-97552742D02*
X141238500Y-98027258D01*
%TO.C,C3*%
X153160000Y-93345580D02*
X153160000Y-93064420D01*
X154180000Y-93345580D02*
X154180000Y-93064420D01*
%TO.C,D1*%
X141756000Y-93472000D02*
X142406000Y-93472000D01*
X142406000Y-92352000D02*
X142406000Y-94592000D01*
X142406000Y-94592000D02*
X146646000Y-94592000D01*
X143006000Y-92352000D02*
X143006000Y-94592000D01*
X143126000Y-92352000D02*
X143126000Y-94592000D01*
X143246000Y-92352000D02*
X143246000Y-94592000D01*
X146646000Y-92352000D02*
X142406000Y-92352000D01*
X146646000Y-94592000D02*
X146646000Y-92352000D01*
X147296000Y-93472000D02*
X146646000Y-93472000D01*
%TD*%
D14*
X130000000Y-85852000D02*
X155956000Y-85852000D01*
X155956000Y-103992000D01*
X130000000Y-103992000D01*
X130000000Y-85852000D01*
M02*
