%TF.GenerationSoftware,KiCad,Pcbnew,9.0.2*%
%TF.CreationDate,2025-07-15T11:24:56-07:00*%
%TF.ProjectId,PeakDetector_Breakout,5065616b-4465-4746-9563-746f725f4272,rev?*%
%TF.SameCoordinates,Original*%
%TF.FileFunction,Legend,Bot*%
%TF.FilePolarity,Positive*%
%FSLAX46Y46*%
G04 Gerber Fmt 4.6, Leading zero omitted, Abs format (unit mm)*
G04 Created by KiCad (PCBNEW 9.0.2) date 2025-07-15 11:24:56*
%MOMM*%
%LPD*%
G01*
G04 APERTURE LIST*
%ADD10C,0.150000*%
%ADD11C,0.120000*%
%TA.AperFunction,Profile*%
%ADD12C,0.050000*%
%TD*%
G04 APERTURE END LIST*
D10*
X133085333Y-86532819D02*
X133085333Y-87247104D01*
X133085333Y-87247104D02*
X133132952Y-87389961D01*
X133132952Y-87389961D02*
X133228190Y-87485200D01*
X133228190Y-87485200D02*
X133371047Y-87532819D01*
X133371047Y-87532819D02*
X133466285Y-87532819D01*
X132656761Y-86628057D02*
X132609142Y-86580438D01*
X132609142Y-86580438D02*
X132513904Y-86532819D01*
X132513904Y-86532819D02*
X132275809Y-86532819D01*
X132275809Y-86532819D02*
X132180571Y-86580438D01*
X132180571Y-86580438D02*
X132132952Y-86628057D01*
X132132952Y-86628057D02*
X132085333Y-86723295D01*
X132085333Y-86723295D02*
X132085333Y-86818533D01*
X132085333Y-86818533D02*
X132132952Y-86961390D01*
X132132952Y-86961390D02*
X132704380Y-87532819D01*
X132704380Y-87532819D02*
X132085333Y-87532819D01*
D11*
%TO.C,J2*%
X131422000Y-90678000D02*
X134082000Y-90678000D01*
X131422000Y-100898000D02*
X131422000Y-90678000D01*
X131422000Y-100898000D02*
X134082000Y-100898000D01*
X132752000Y-88078000D02*
X134082000Y-88078000D01*
X134082000Y-88078000D02*
X134082000Y-89408000D01*
X134082000Y-100898000D02*
X134082000Y-90678000D01*
%TD*%
D12*
X130000000Y-85852000D02*
X155956000Y-85852000D01*
X155956000Y-103992000D01*
X130000000Y-103992000D01*
X130000000Y-85852000D01*
M02*
