%TF.GenerationSoftware,KiCad,Pcbnew,9.0.2*%
%TF.CreationDate,2025-07-15T11:24:56-07:00*%
%TF.ProjectId,PeakDetector_Breakout,5065616b-4465-4746-9563-746f725f4272,rev?*%
%TF.SameCoordinates,Original*%
%TF.FileFunction,Copper,L1,Top*%
%TF.FilePolarity,Positive*%
%FSLAX46Y46*%
G04 Gerber Fmt 4.6, Leading zero omitted, Abs format (unit mm)*
G04 Created by KiCad (PCBNEW 9.0.2) date 2025-07-15 11:24:56*
%MOMM*%
%LPD*%
G01*
G04 APERTURE LIST*
G04 Aperture macros list*
%AMRoundRect*
0 Rectangle with rounded corners*
0 $1 Rounding radius*
0 $2 $3 $4 $5 $6 $7 $8 $9 X,Y pos of 4 corners*
0 Add a 4 corners polygon primitive as box body*
4,1,4,$2,$3,$4,$5,$6,$7,$8,$9,$2,$3,0*
0 Add four circle primitives for the rounded corners*
1,1,$1+$1,$2,$3*
1,1,$1+$1,$4,$5*
1,1,$1+$1,$6,$7*
1,1,$1+$1,$8,$9*
0 Add four rect primitives between the rounded corners*
20,1,$1+$1,$2,$3,$4,$5,0*
20,1,$1+$1,$4,$5,$6,$7,0*
20,1,$1+$1,$6,$7,$8,$9,0*
20,1,$1+$1,$8,$9,$2,$3,0*%
G04 Aperture macros list end*
%TA.AperFunction,SMDPad,CuDef*%
%ADD10R,0.700000X0.510000*%
%TD*%
%TA.AperFunction,SMDPad,CuDef*%
%ADD11RoundRect,0.225000X-0.225000X-0.250000X0.225000X-0.250000X0.225000X0.250000X-0.225000X0.250000X0*%
%TD*%
%TA.AperFunction,SMDPad,CuDef*%
%ADD12RoundRect,0.200000X-0.275000X0.200000X-0.275000X-0.200000X0.275000X-0.200000X0.275000X0.200000X0*%
%TD*%
%TA.AperFunction,SMDPad,CuDef*%
%ADD13RoundRect,0.200000X-0.200000X-0.275000X0.200000X-0.275000X0.200000X0.275000X-0.200000X0.275000X0*%
%TD*%
%TA.AperFunction,SMDPad,CuDef*%
%ADD14RoundRect,0.225000X-0.250000X0.225000X-0.250000X-0.225000X0.250000X-0.225000X0.250000X0.225000X0*%
%TD*%
%TA.AperFunction,SMDPad,CuDef*%
%ADD15RoundRect,0.225000X0.250000X-0.225000X0.250000X0.225000X-0.250000X0.225000X-0.250000X-0.225000X0*%
%TD*%
%TA.AperFunction,ComponentPad*%
%ADD16R,1.600000X1.600000*%
%TD*%
%TA.AperFunction,ComponentPad*%
%ADD17O,1.600000X1.600000*%
%TD*%
%TA.AperFunction,ComponentPad*%
%ADD18R,1.700000X1.700000*%
%TD*%
%TA.AperFunction,ComponentPad*%
%ADD19O,1.700000X1.700000*%
%TD*%
%TA.AperFunction,ViaPad*%
%ADD20C,1.500000*%
%TD*%
%TA.AperFunction,Conductor*%
%ADD21C,0.200000*%
%TD*%
%TA.AperFunction,Profile*%
%ADD22C,0.050000*%
%TD*%
G04 APERTURE END LIST*
D10*
%TO.P,U1,1,+*%
%TO.N,/VIN*%
X140826000Y-88458000D03*
%TO.P,U1,2,V-*%
%TO.N,VSS*%
X140826000Y-89408000D03*
%TO.P,U1,3,-*%
%TO.N,/V_peak*%
X140826000Y-90358000D03*
%TO.P,U1,4,OUT*%
%TO.N,Net-(D1-A)*%
X143146000Y-90358000D03*
%TO.P,U1,5,V+*%
%TO.N,VDD*%
X143146000Y-88458000D03*
%TD*%
D11*
%TO.P,C1,1*%
%TO.N,Net-(C1-Pad1)*%
X140690000Y-100584000D03*
%TO.P,C1,2*%
%TO.N,0*%
X142240000Y-100584000D03*
%TD*%
D12*
%TO.P,R2,1*%
%TO.N,/V_peak*%
X145034000Y-96902000D03*
%TO.P,R2,2*%
%TO.N,0*%
X145034000Y-98552000D03*
%TD*%
D13*
%TO.P,R4,1*%
%TO.N,Net-(C2-Pad1)*%
X151892000Y-97028000D03*
%TO.P,R4,2*%
%TO.N,/VOUT*%
X153542000Y-97028000D03*
%TD*%
D14*
%TO.P,C2,1*%
%TO.N,Net-(C2-Pad1)*%
X150114000Y-99314000D03*
%TO.P,C2,2*%
%TO.N,0*%
X150114000Y-100864000D03*
%TD*%
D13*
%TO.P,R3,1*%
%TO.N,/V_peak*%
X148336000Y-97028000D03*
%TO.P,R3,2*%
%TO.N,Net-(C2-Pad1)*%
X149986000Y-97028000D03*
%TD*%
D12*
%TO.P,R1,1*%
%TO.N,/V_peak*%
X140716000Y-96965000D03*
%TO.P,R1,2*%
%TO.N,Net-(C1-Pad1)*%
X140716000Y-98615000D03*
%TD*%
D15*
%TO.P,C3,1*%
%TO.N,/VOUT*%
X153670000Y-93980000D03*
%TO.P,C3,2*%
%TO.N,0*%
X153670000Y-92430000D03*
%TD*%
D16*
%TO.P,D1,1,K*%
%TO.N,/V_peak*%
X140716000Y-93472000D03*
D17*
%TO.P,D1,2,A*%
%TO.N,Net-(D1-A)*%
X148336000Y-93472000D03*
%TD*%
D18*
%TO.P,J2,1,Pin_1*%
%TO.N,/VIN*%
X132752000Y-89408000D03*
D19*
%TO.P,J2,2,Pin_2*%
%TO.N,VDD*%
X132752000Y-91948000D03*
%TO.P,J2,3,Pin_3*%
%TO.N,0*%
X132752000Y-94488000D03*
%TO.P,J2,4,Pin_4*%
%TO.N,VSS*%
X132752000Y-97028000D03*
%TO.P,J2,5,Pin_5*%
%TO.N,/VOUT*%
X132752000Y-99568000D03*
%TD*%
D20*
%TO.N,0*%
X150876000Y-92202000D03*
X146304000Y-100584000D03*
X135878365Y-90750484D03*
X137160000Y-101092000D03*
%TD*%
D21*
%TO.N,Net-(C1-Pad1)*%
X140690000Y-98641000D02*
X140716000Y-98615000D01*
X140690000Y-100584000D02*
X140690000Y-98641000D01*
%TO.N,Net-(C2-Pad1)*%
X150114000Y-97156000D02*
X149986000Y-97028000D01*
X151892000Y-97028000D02*
X149986000Y-97028000D01*
X150114000Y-99314000D02*
X150114000Y-97156000D01*
%TO.N,/V_peak*%
X140826000Y-93362000D02*
X140716000Y-93472000D01*
X148210000Y-96902000D02*
X148336000Y-97028000D01*
X140716000Y-93472000D02*
X140716000Y-96965000D01*
X140826000Y-90358000D02*
X140826000Y-93362000D01*
X145034000Y-96902000D02*
X148210000Y-96902000D01*
X140716000Y-96965000D02*
X144843000Y-96965000D01*
%TO.N,Net-(D1-A)*%
X143146000Y-90358000D02*
X145222000Y-90358000D01*
X145222000Y-90358000D02*
X148336000Y-93472000D01*
%TO.N,/VOUT*%
X153670000Y-96900000D02*
X153542000Y-97028000D01*
X151130000Y-103124000D02*
X136308000Y-103124000D01*
X153542000Y-97028000D02*
X153670000Y-97156000D01*
X136308000Y-103124000D02*
X132752000Y-99568000D01*
X153670000Y-97156000D02*
X153670000Y-100584000D01*
X153670000Y-100584000D02*
X151130000Y-103124000D01*
X153670000Y-93980000D02*
X153670000Y-96900000D01*
%TO.N,/VIN*%
X140638000Y-88646000D02*
X133514000Y-88646000D01*
X140826000Y-88458000D02*
X140638000Y-88646000D01*
X133514000Y-88646000D02*
X132752000Y-89408000D01*
%TO.N,VSS*%
X140826000Y-89408000D02*
X140372000Y-89408000D01*
X140372000Y-89408000D02*
X132752000Y-97028000D01*
%TO.N,VDD*%
X131318000Y-91948000D02*
X132752000Y-91948000D01*
X143146000Y-88458000D02*
X142591000Y-87903000D01*
X131064000Y-88138000D02*
X131064000Y-91694000D01*
X131299000Y-87903000D02*
X131064000Y-88138000D01*
X131064000Y-91694000D02*
X131318000Y-91948000D01*
X142591000Y-87903000D02*
X131299000Y-87903000D01*
%TD*%
%TA.AperFunction,Conductor*%
%TO.N,0*%
G36*
X130628814Y-92158275D02*
G01*
X130642147Y-92156359D01*
X130662290Y-92165558D01*
X130683927Y-92170265D01*
X130701652Y-92183533D01*
X130705703Y-92185384D01*
X130712181Y-92191416D01*
X130833139Y-92312374D01*
X130833149Y-92312385D01*
X130837479Y-92316715D01*
X130837480Y-92316716D01*
X130949284Y-92428520D01*
X131014917Y-92466412D01*
X131036095Y-92478639D01*
X131036097Y-92478641D01*
X131086213Y-92507576D01*
X131086215Y-92507577D01*
X131238942Y-92548500D01*
X131238943Y-92548500D01*
X131466281Y-92548500D01*
X131533320Y-92568185D01*
X131576765Y-92616205D01*
X131596947Y-92655814D01*
X131596948Y-92655815D01*
X131721890Y-92827786D01*
X131872213Y-92978109D01*
X132044179Y-93103048D01*
X132044181Y-93103049D01*
X132044184Y-93103051D01*
X132053493Y-93107794D01*
X132104290Y-93155766D01*
X132121087Y-93223587D01*
X132098552Y-93289722D01*
X132053502Y-93328762D01*
X132044443Y-93333378D01*
X131872540Y-93458272D01*
X131872535Y-93458276D01*
X131722276Y-93608535D01*
X131722272Y-93608540D01*
X131597379Y-93780442D01*
X131500904Y-93969782D01*
X131435242Y-94171870D01*
X131435242Y-94171873D01*
X131424769Y-94238000D01*
X132318988Y-94238000D01*
X132286075Y-94295007D01*
X132252000Y-94422174D01*
X132252000Y-94553826D01*
X132286075Y-94680993D01*
X132318988Y-94738000D01*
X131424769Y-94738000D01*
X131435242Y-94804126D01*
X131435242Y-94804129D01*
X131500904Y-95006217D01*
X131597379Y-95195557D01*
X131722272Y-95367459D01*
X131722276Y-95367464D01*
X131872535Y-95517723D01*
X131872540Y-95517727D01*
X132044444Y-95642622D01*
X132053495Y-95647234D01*
X132104292Y-95695208D01*
X132121087Y-95763029D01*
X132098550Y-95829164D01*
X132053499Y-95868202D01*
X132044182Y-95872949D01*
X131872213Y-95997890D01*
X131721890Y-96148213D01*
X131596951Y-96320179D01*
X131500444Y-96509585D01*
X131434753Y-96711760D01*
X131401500Y-96921713D01*
X131401500Y-97134286D01*
X131426510Y-97292196D01*
X131434754Y-97344243D01*
X131470613Y-97454606D01*
X131500444Y-97546414D01*
X131596951Y-97735820D01*
X131721890Y-97907786D01*
X131872213Y-98058109D01*
X132044182Y-98183050D01*
X132052946Y-98187516D01*
X132103742Y-98235491D01*
X132120536Y-98303312D01*
X132097998Y-98369447D01*
X132052946Y-98408484D01*
X132044182Y-98412949D01*
X131872213Y-98537890D01*
X131721890Y-98688213D01*
X131596951Y-98860179D01*
X131500444Y-99049585D01*
X131434753Y-99251760D01*
X131408403Y-99418130D01*
X131401500Y-99461713D01*
X131401500Y-99674287D01*
X131403468Y-99686710D01*
X131434753Y-99884239D01*
X131434753Y-99884241D01*
X131434754Y-99884243D01*
X131492834Y-100062995D01*
X131500444Y-100086414D01*
X131596951Y-100275820D01*
X131721890Y-100447786D01*
X131872213Y-100598109D01*
X132044179Y-100723048D01*
X132044181Y-100723049D01*
X132044184Y-100723051D01*
X132233588Y-100819557D01*
X132435757Y-100885246D01*
X132645713Y-100918500D01*
X132645714Y-100918500D01*
X132858286Y-100918500D01*
X132858287Y-100918500D01*
X133068243Y-100885246D01*
X133110523Y-100871507D01*
X133180362Y-100869511D01*
X133236522Y-100901757D01*
X135614584Y-103279819D01*
X135648069Y-103341142D01*
X135643085Y-103410834D01*
X135601213Y-103466767D01*
X135535749Y-103491184D01*
X135526903Y-103491500D01*
X130624500Y-103491500D01*
X130557461Y-103471815D01*
X130511706Y-103419011D01*
X130500500Y-103367500D01*
X130500500Y-92279097D01*
X130506738Y-92257851D01*
X130508318Y-92235763D01*
X130516390Y-92224979D01*
X130520185Y-92212058D01*
X130536918Y-92197558D01*
X130550190Y-92179830D01*
X130562810Y-92175122D01*
X130572989Y-92166303D01*
X130594906Y-92163151D01*
X130615654Y-92155413D01*
X130628814Y-92158275D01*
G37*
%TD.AperFunction*%
%TA.AperFunction,Conductor*%
G36*
X155398539Y-86372185D02*
G01*
X155444294Y-86424989D01*
X155455500Y-86476500D01*
X155455500Y-103367500D01*
X155435815Y-103434539D01*
X155383011Y-103480294D01*
X155331500Y-103491500D01*
X151911097Y-103491500D01*
X151844058Y-103471815D01*
X151798303Y-103419011D01*
X151788359Y-103349853D01*
X151817384Y-103286297D01*
X151823416Y-103279819D01*
X151999632Y-103103602D01*
X154028506Y-101074727D01*
X154028511Y-101074724D01*
X154038714Y-101064520D01*
X154038716Y-101064520D01*
X154150520Y-100952716D01*
X154229577Y-100815784D01*
X154270500Y-100663057D01*
X154270500Y-97815402D01*
X154290185Y-97748363D01*
X154296887Y-97738932D01*
X154297468Y-97738189D01*
X154297469Y-97738188D01*
X154297472Y-97738185D01*
X154385478Y-97592606D01*
X154436086Y-97430196D01*
X154442500Y-97359616D01*
X154442500Y-96696384D01*
X154436086Y-96625804D01*
X154385478Y-96463394D01*
X154297472Y-96317815D01*
X154297471Y-96317814D01*
X154297468Y-96317809D01*
X154296881Y-96317060D01*
X154296622Y-96316410D01*
X154293591Y-96311396D01*
X154294425Y-96310891D01*
X154271039Y-96252145D01*
X154270500Y-96240597D01*
X154270500Y-94910424D01*
X154290185Y-94843385D01*
X154329402Y-94804886D01*
X154373044Y-94777968D01*
X154492968Y-94658044D01*
X154582003Y-94513697D01*
X154635349Y-94352708D01*
X154645500Y-94253345D01*
X154645499Y-93706656D01*
X154635349Y-93607292D01*
X154582003Y-93446303D01*
X154581999Y-93446297D01*
X154581998Y-93446294D01*
X154492970Y-93301959D01*
X154492967Y-93301955D01*
X154483339Y-93292327D01*
X154449854Y-93231004D01*
X154454838Y-93161312D01*
X154483345Y-93116959D01*
X154492573Y-93107731D01*
X154581542Y-92963492D01*
X154581547Y-92963481D01*
X154634855Y-92802606D01*
X154644999Y-92703322D01*
X154645000Y-92703309D01*
X154645000Y-92680000D01*
X152695001Y-92680000D01*
X152695001Y-92703322D01*
X152705144Y-92802607D01*
X152758452Y-92963481D01*
X152758457Y-92963492D01*
X152847424Y-93107728D01*
X152847427Y-93107732D01*
X152856660Y-93116965D01*
X152890145Y-93178288D01*
X152885161Y-93247980D01*
X152856663Y-93292324D01*
X152847033Y-93301953D01*
X152847029Y-93301959D01*
X152758001Y-93446294D01*
X152757996Y-93446305D01*
X152704651Y-93607290D01*
X152694500Y-93706647D01*
X152694500Y-94253337D01*
X152694501Y-94253355D01*
X152704650Y-94352707D01*
X152704651Y-94352710D01*
X152757996Y-94513694D01*
X152758001Y-94513705D01*
X152847029Y-94658040D01*
X152847032Y-94658044D01*
X152966956Y-94777968D01*
X153010597Y-94804886D01*
X153057321Y-94856832D01*
X153069500Y-94910424D01*
X153069500Y-96029244D01*
X153049815Y-96096283D01*
X153009651Y-96135360D01*
X152906814Y-96197528D01*
X152906810Y-96197531D01*
X152804681Y-96299661D01*
X152743358Y-96333146D01*
X152673666Y-96328162D01*
X152629319Y-96299661D01*
X152527188Y-96197530D01*
X152381606Y-96109522D01*
X152339120Y-96096283D01*
X152219196Y-96058914D01*
X152219194Y-96058913D01*
X152219192Y-96058913D01*
X152169778Y-96054423D01*
X152148616Y-96052500D01*
X151635384Y-96052500D01*
X151616145Y-96054248D01*
X151564807Y-96058913D01*
X151402393Y-96109522D01*
X151256811Y-96197530D01*
X151136530Y-96317811D01*
X151106402Y-96367650D01*
X151098467Y-96374916D01*
X151093998Y-96384703D01*
X151073150Y-96398100D01*
X151054874Y-96414838D01*
X151042719Y-96417657D01*
X151035220Y-96422477D01*
X151000285Y-96427500D01*
X150877715Y-96427500D01*
X150810676Y-96407815D01*
X150771598Y-96367650D01*
X150769694Y-96364500D01*
X150741472Y-96317815D01*
X150741470Y-96317813D01*
X150741469Y-96317811D01*
X150621188Y-96197530D01*
X150475606Y-96109522D01*
X150433120Y-96096283D01*
X150313196Y-96058914D01*
X150313194Y-96058913D01*
X150313192Y-96058913D01*
X150263778Y-96054423D01*
X150242616Y-96052500D01*
X149729384Y-96052500D01*
X149710145Y-96054248D01*
X149658807Y-96058913D01*
X149496393Y-96109522D01*
X149350811Y-96197530D01*
X149350810Y-96197531D01*
X149248681Y-96299661D01*
X149187358Y-96333146D01*
X149117666Y-96328162D01*
X149073319Y-96299661D01*
X148971188Y-96197530D01*
X148825606Y-96109522D01*
X148783120Y-96096283D01*
X148663196Y-96058914D01*
X148663194Y-96058913D01*
X148663192Y-96058913D01*
X148613778Y-96054423D01*
X148592616Y-96052500D01*
X148079384Y-96052500D01*
X148060145Y-96054248D01*
X148008807Y-96058913D01*
X147846393Y-96109522D01*
X147700813Y-96197529D01*
X147666988Y-96231355D01*
X147633160Y-96265182D01*
X147571840Y-96298666D01*
X147545481Y-96301500D01*
X145950520Y-96301500D01*
X145883481Y-96281815D01*
X145862839Y-96265181D01*
X145744188Y-96146530D01*
X145733920Y-96140323D01*
X145598606Y-96058522D01*
X145436196Y-96007914D01*
X145436194Y-96007913D01*
X145436192Y-96007913D01*
X145386778Y-96003423D01*
X145365616Y-96001500D01*
X144702384Y-96001500D01*
X144683145Y-96003248D01*
X144631807Y-96007913D01*
X144469393Y-96058522D01*
X144323811Y-96146530D01*
X144203531Y-96266810D01*
X144203528Y-96266814D01*
X144180655Y-96304651D01*
X144129127Y-96351838D01*
X144074539Y-96364500D01*
X141632520Y-96364500D01*
X141565481Y-96344815D01*
X141544839Y-96328181D01*
X141426188Y-96209530D01*
X141406336Y-96197529D01*
X141376347Y-96179399D01*
X141329162Y-96127871D01*
X141316500Y-96073284D01*
X141316500Y-94896499D01*
X141336185Y-94829460D01*
X141388989Y-94783705D01*
X141440500Y-94772499D01*
X141563871Y-94772499D01*
X141563872Y-94772499D01*
X141623483Y-94766091D01*
X141758331Y-94715796D01*
X141873546Y-94629546D01*
X141959796Y-94514331D01*
X142010091Y-94379483D01*
X142016500Y-94319873D01*
X142016499Y-92624128D01*
X142010091Y-92564517D01*
X141988853Y-92507576D01*
X141959797Y-92429671D01*
X141959793Y-92429664D01*
X141873547Y-92314455D01*
X141873544Y-92314452D01*
X141758335Y-92228206D01*
X141758328Y-92228202D01*
X141623482Y-92177908D01*
X141623483Y-92177908D01*
X141563883Y-92171501D01*
X141563881Y-92171500D01*
X141563873Y-92171500D01*
X141563865Y-92171500D01*
X141550500Y-92171500D01*
X141483461Y-92151815D01*
X141437706Y-92099011D01*
X141426500Y-92047500D01*
X141426500Y-91112749D01*
X141446185Y-91045710D01*
X141476190Y-91013482D01*
X141516598Y-90983233D01*
X141533546Y-90970546D01*
X141619796Y-90855331D01*
X141670091Y-90720483D01*
X141676500Y-90660873D01*
X141676499Y-90055128D01*
X141676499Y-90055127D01*
X142295500Y-90055127D01*
X142295500Y-90055134D01*
X142295500Y-90055135D01*
X142295500Y-90660870D01*
X142295501Y-90660876D01*
X142301908Y-90720483D01*
X142352202Y-90855328D01*
X142352206Y-90855335D01*
X142438452Y-90970544D01*
X142438455Y-90970547D01*
X142553664Y-91056793D01*
X142553671Y-91056797D01*
X142688517Y-91107091D01*
X142688516Y-91107091D01*
X142695444Y-91107835D01*
X142748127Y-91113500D01*
X143543872Y-91113499D01*
X143603483Y-91107091D01*
X143738331Y-91056796D01*
X143836598Y-90983232D01*
X143902062Y-90958816D01*
X143910909Y-90958500D01*
X144921903Y-90958500D01*
X144988942Y-90978185D01*
X145009584Y-90994819D01*
X147041922Y-93027157D01*
X147075407Y-93088480D01*
X147072173Y-93153154D01*
X147070365Y-93158717D01*
X147067522Y-93167468D01*
X147035500Y-93369648D01*
X147035500Y-93574351D01*
X147067522Y-93776534D01*
X147130781Y-93971223D01*
X147223715Y-94153613D01*
X147344028Y-94319213D01*
X147488786Y-94463971D01*
X147643749Y-94576556D01*
X147654390Y-94584287D01*
X147743212Y-94629544D01*
X147836776Y-94677218D01*
X147836778Y-94677218D01*
X147836781Y-94677220D01*
X147920371Y-94704380D01*
X148031465Y-94740477D01*
X148132557Y-94756488D01*
X148233648Y-94772500D01*
X148233649Y-94772500D01*
X148438351Y-94772500D01*
X148438352Y-94772500D01*
X148640534Y-94740477D01*
X148835219Y-94677220D01*
X149017610Y-94584287D01*
X149114774Y-94513694D01*
X149183213Y-94463971D01*
X149183215Y-94463968D01*
X149183219Y-94463966D01*
X149327966Y-94319219D01*
X149327968Y-94319215D01*
X149327971Y-94319213D01*
X149435020Y-94171870D01*
X149448287Y-94153610D01*
X149541220Y-93971219D01*
X149604477Y-93776534D01*
X149636500Y-93574352D01*
X149636500Y-93369648D01*
X149625779Y-93301959D01*
X149604477Y-93167465D01*
X149542951Y-92978109D01*
X149541220Y-92972781D01*
X149541218Y-92972778D01*
X149541218Y-92972776D01*
X149467341Y-92827786D01*
X149448287Y-92790390D01*
X149440556Y-92779749D01*
X149327971Y-92624786D01*
X149183213Y-92480028D01*
X149017613Y-92359715D01*
X149017612Y-92359714D01*
X149017610Y-92359713D01*
X148933218Y-92316713D01*
X148835223Y-92266781D01*
X148640534Y-92203522D01*
X148461220Y-92175122D01*
X148438352Y-92171500D01*
X148233648Y-92171500D01*
X148210780Y-92175122D01*
X148031468Y-92203522D01*
X148022717Y-92206365D01*
X148017154Y-92208173D01*
X147947313Y-92210167D01*
X147891157Y-92177922D01*
X147869912Y-92156677D01*
X152695000Y-92156677D01*
X152695000Y-92180000D01*
X153420000Y-92180000D01*
X153920000Y-92180000D01*
X154644999Y-92180000D01*
X154644999Y-92156692D01*
X154644998Y-92156677D01*
X154634855Y-92057392D01*
X154581547Y-91896518D01*
X154581542Y-91896507D01*
X154492575Y-91752271D01*
X154492572Y-91752267D01*
X154372732Y-91632427D01*
X154372728Y-91632424D01*
X154228492Y-91543457D01*
X154228481Y-91543452D01*
X154067606Y-91490144D01*
X153968322Y-91480000D01*
X153920000Y-91480000D01*
X153920000Y-92180000D01*
X153420000Y-92180000D01*
X153420000Y-91480000D01*
X153419999Y-91479999D01*
X153371693Y-91480000D01*
X153371675Y-91480001D01*
X153272392Y-91490144D01*
X153111518Y-91543452D01*
X153111507Y-91543457D01*
X152967271Y-91632424D01*
X152967267Y-91632427D01*
X152847427Y-91752267D01*
X152847424Y-91752271D01*
X152758457Y-91896507D01*
X152758452Y-91896518D01*
X152705144Y-92057393D01*
X152695000Y-92156677D01*
X147869912Y-92156677D01*
X145709590Y-89996355D01*
X145709588Y-89996352D01*
X145590717Y-89877481D01*
X145590716Y-89877480D01*
X145503904Y-89827360D01*
X145503904Y-89827359D01*
X145503900Y-89827358D01*
X145453785Y-89798423D01*
X145301057Y-89757499D01*
X145142943Y-89757499D01*
X145135347Y-89757499D01*
X145135331Y-89757500D01*
X143910909Y-89757500D01*
X143843870Y-89737815D01*
X143836598Y-89732767D01*
X143738330Y-89659203D01*
X143738328Y-89659202D01*
X143603482Y-89608908D01*
X143603483Y-89608908D01*
X143543883Y-89602501D01*
X143543881Y-89602500D01*
X143543873Y-89602500D01*
X143543864Y-89602500D01*
X142748129Y-89602500D01*
X142748123Y-89602501D01*
X142688516Y-89608908D01*
X142553671Y-89659202D01*
X142553664Y-89659206D01*
X142438455Y-89745452D01*
X142438452Y-89745455D01*
X142352206Y-89860664D01*
X142352202Y-89860671D01*
X142301910Y-89995513D01*
X142301909Y-89995517D01*
X142295500Y-90055127D01*
X141676499Y-90055127D01*
X141670091Y-89995517D01*
X141644285Y-89926331D01*
X141639302Y-89856642D01*
X141644287Y-89839665D01*
X141670091Y-89770483D01*
X141676500Y-89710873D01*
X141676499Y-89105128D01*
X141670091Y-89045517D01*
X141644285Y-88976331D01*
X141639302Y-88906642D01*
X141644287Y-88889665D01*
X141670090Y-88820485D01*
X141670091Y-88820483D01*
X141676500Y-88760873D01*
X141676500Y-88627500D01*
X141696185Y-88560461D01*
X141748989Y-88514706D01*
X141800500Y-88503500D01*
X142171501Y-88503500D01*
X142238540Y-88523185D01*
X142284295Y-88575989D01*
X142295501Y-88627500D01*
X142295501Y-88760876D01*
X142301908Y-88820483D01*
X142352202Y-88955328D01*
X142352206Y-88955335D01*
X142438452Y-89070544D01*
X142438455Y-89070547D01*
X142553664Y-89156793D01*
X142553671Y-89156797D01*
X142688517Y-89207091D01*
X142688516Y-89207091D01*
X142695444Y-89207835D01*
X142748127Y-89213500D01*
X143543872Y-89213499D01*
X143603483Y-89207091D01*
X143738331Y-89156796D01*
X143853546Y-89070546D01*
X143939796Y-88955331D01*
X143990091Y-88820483D01*
X143996500Y-88760873D01*
X143996499Y-88155128D01*
X143990091Y-88095517D01*
X143939796Y-87960669D01*
X143939795Y-87960668D01*
X143939793Y-87960664D01*
X143853547Y-87845455D01*
X143853544Y-87845452D01*
X143738335Y-87759206D01*
X143738328Y-87759202D01*
X143603482Y-87708908D01*
X143603483Y-87708908D01*
X143543883Y-87702501D01*
X143543881Y-87702500D01*
X143543873Y-87702500D01*
X143543865Y-87702500D01*
X143291098Y-87702500D01*
X143224059Y-87682815D01*
X143203417Y-87666181D01*
X142959717Y-87422481D01*
X142959716Y-87422480D01*
X142872904Y-87372360D01*
X142872904Y-87372359D01*
X142872900Y-87372358D01*
X142822785Y-87343423D01*
X142670057Y-87302499D01*
X142511943Y-87302499D01*
X142504347Y-87302499D01*
X142504331Y-87302500D01*
X131378057Y-87302500D01*
X131219943Y-87302500D01*
X131067215Y-87343423D01*
X131067214Y-87343423D01*
X131067212Y-87343424D01*
X131067209Y-87343425D01*
X131017096Y-87372359D01*
X131017095Y-87372360D01*
X130973689Y-87397420D01*
X130930285Y-87422479D01*
X130930282Y-87422481D01*
X130712181Y-87640583D01*
X130650858Y-87674068D01*
X130581166Y-87669084D01*
X130525233Y-87627212D01*
X130500816Y-87561748D01*
X130500500Y-87552902D01*
X130500500Y-86476500D01*
X130520185Y-86409461D01*
X130572989Y-86363706D01*
X130624500Y-86352500D01*
X155331500Y-86352500D01*
X155398539Y-86372185D01*
G37*
%TD.AperFunction*%
%TA.AperFunction,Conductor*%
G36*
X139956614Y-90775133D02*
G01*
X140012547Y-90817005D01*
X140029461Y-90847978D01*
X140032203Y-90855328D01*
X140032204Y-90855331D01*
X140109673Y-90958816D01*
X140118452Y-90970543D01*
X140118455Y-90970547D01*
X140175810Y-91013482D01*
X140217682Y-91069415D01*
X140225500Y-91112749D01*
X140225500Y-92047500D01*
X140205815Y-92114539D01*
X140153011Y-92160294D01*
X140101501Y-92171500D01*
X139868130Y-92171500D01*
X139868123Y-92171501D01*
X139808516Y-92177908D01*
X139673671Y-92228202D01*
X139673664Y-92228206D01*
X139558455Y-92314452D01*
X139558452Y-92314455D01*
X139472206Y-92429664D01*
X139472202Y-92429671D01*
X139421908Y-92564517D01*
X139415501Y-92624116D01*
X139415501Y-92624123D01*
X139415500Y-92624135D01*
X139415500Y-94319870D01*
X139415501Y-94319876D01*
X139421908Y-94379483D01*
X139472202Y-94514328D01*
X139472206Y-94514335D01*
X139558452Y-94629544D01*
X139558455Y-94629547D01*
X139673664Y-94715793D01*
X139673671Y-94715797D01*
X139718618Y-94732561D01*
X139808517Y-94766091D01*
X139868127Y-94772500D01*
X139991500Y-94772499D01*
X140058539Y-94792183D01*
X140104294Y-94844987D01*
X140115500Y-94896499D01*
X140115500Y-96073284D01*
X140095815Y-96140323D01*
X140055652Y-96179400D01*
X140005811Y-96209530D01*
X139885530Y-96329811D01*
X139797522Y-96475393D01*
X139746913Y-96637807D01*
X139740500Y-96708386D01*
X139740500Y-97221613D01*
X139746913Y-97292192D01*
X139746913Y-97292194D01*
X139746914Y-97292196D01*
X139797522Y-97454606D01*
X139870296Y-97574989D01*
X139885530Y-97600188D01*
X139987661Y-97702319D01*
X140021146Y-97763642D01*
X140016162Y-97833334D01*
X139987661Y-97877681D01*
X139885531Y-97979810D01*
X139885530Y-97979811D01*
X139797522Y-98125393D01*
X139746913Y-98287807D01*
X139740500Y-98358386D01*
X139740500Y-98871613D01*
X139746913Y-98942192D01*
X139746913Y-98942194D01*
X139746914Y-98942196D01*
X139797522Y-99104606D01*
X139885528Y-99250185D01*
X140005815Y-99370472D01*
X140029648Y-99384879D01*
X140036914Y-99392813D01*
X140046703Y-99397284D01*
X140060100Y-99418130D01*
X140076836Y-99436405D01*
X140079655Y-99448559D01*
X140084477Y-99456062D01*
X140089500Y-99490997D01*
X140089500Y-99643995D01*
X140069815Y-99711034D01*
X140030600Y-99749532D01*
X140011954Y-99761033D01*
X139892029Y-99880959D01*
X139803001Y-100025294D01*
X139802996Y-100025305D01*
X139749651Y-100186290D01*
X139739500Y-100285647D01*
X139739500Y-100882337D01*
X139739501Y-100882355D01*
X139749650Y-100981707D01*
X139749651Y-100981710D01*
X139802996Y-101142694D01*
X139803001Y-101142705D01*
X139892029Y-101287040D01*
X139892032Y-101287044D01*
X140011955Y-101406967D01*
X140011959Y-101406970D01*
X140156294Y-101495998D01*
X140156297Y-101495999D01*
X140156303Y-101496003D01*
X140317292Y-101549349D01*
X140416655Y-101559500D01*
X140963344Y-101559499D01*
X140963352Y-101559498D01*
X140963355Y-101559498D01*
X141017760Y-101553940D01*
X141062708Y-101549349D01*
X141223697Y-101496003D01*
X141368044Y-101406968D01*
X141377668Y-101397343D01*
X141438987Y-101363856D01*
X141508679Y-101368835D01*
X141553034Y-101397339D01*
X141562267Y-101406572D01*
X141562271Y-101406575D01*
X141706507Y-101495542D01*
X141706518Y-101495547D01*
X141867393Y-101548855D01*
X141966683Y-101558999D01*
X142490000Y-101558999D01*
X142513308Y-101558999D01*
X142513322Y-101558998D01*
X142612607Y-101548855D01*
X142773481Y-101495547D01*
X142773492Y-101495542D01*
X142917728Y-101406575D01*
X142917732Y-101406572D01*
X143037572Y-101286732D01*
X143037575Y-101286728D01*
X143126542Y-101142492D01*
X143126547Y-101142481D01*
X143128257Y-101137322D01*
X149139001Y-101137322D01*
X149149144Y-101236607D01*
X149202452Y-101397481D01*
X149202457Y-101397492D01*
X149291424Y-101541728D01*
X149291427Y-101541732D01*
X149411267Y-101661572D01*
X149411271Y-101661575D01*
X149555507Y-101750542D01*
X149555518Y-101750547D01*
X149716393Y-101803855D01*
X149815683Y-101813999D01*
X150364000Y-101813999D01*
X150412308Y-101813999D01*
X150412322Y-101813998D01*
X150511607Y-101803855D01*
X150672481Y-101750547D01*
X150672492Y-101750542D01*
X150816728Y-101661575D01*
X150816732Y-101661572D01*
X150936572Y-101541732D01*
X150936575Y-101541728D01*
X151025542Y-101397492D01*
X151025547Y-101397481D01*
X151078855Y-101236606D01*
X151088999Y-101137322D01*
X151089000Y-101137309D01*
X151089000Y-101114000D01*
X150364000Y-101114000D01*
X150364000Y-101813999D01*
X149815683Y-101813999D01*
X149863999Y-101813998D01*
X149864000Y-101813998D01*
X149864000Y-101114000D01*
X149139001Y-101114000D01*
X149139001Y-101137322D01*
X143128257Y-101137322D01*
X143165930Y-101023634D01*
X143165930Y-101023633D01*
X143179855Y-100981609D01*
X143179855Y-100981608D01*
X143189999Y-100882322D01*
X143190000Y-100882309D01*
X143190000Y-100834000D01*
X142490000Y-100834000D01*
X142490000Y-101558999D01*
X141966683Y-101558999D01*
X141990000Y-101558998D01*
X141990000Y-100334000D01*
X142490000Y-100334000D01*
X143189999Y-100334000D01*
X143189999Y-100285692D01*
X143189998Y-100285677D01*
X143179855Y-100186392D01*
X143126547Y-100025518D01*
X143126542Y-100025507D01*
X143037575Y-99881271D01*
X143037572Y-99881267D01*
X142917732Y-99761427D01*
X142917728Y-99761424D01*
X142773492Y-99672457D01*
X142773481Y-99672452D01*
X142612606Y-99619144D01*
X142513322Y-99609000D01*
X142490000Y-99609000D01*
X142490000Y-100334000D01*
X141990000Y-100334000D01*
X141990000Y-99608999D01*
X141966693Y-99609000D01*
X141966674Y-99609001D01*
X141867392Y-99619144D01*
X141706518Y-99672452D01*
X141706507Y-99672457D01*
X141562271Y-99761424D01*
X141562264Y-99761430D01*
X141553028Y-99770665D01*
X141552384Y-99771016D01*
X141552026Y-99771656D01*
X141521752Y-99787740D01*
X141491703Y-99804146D01*
X141490972Y-99804093D01*
X141490324Y-99804438D01*
X141456164Y-99801601D01*
X141422011Y-99799157D01*
X141421180Y-99798697D01*
X141420694Y-99798657D01*
X141418338Y-99797124D01*
X141389913Y-99781389D01*
X141383435Y-99776423D01*
X141368044Y-99761032D01*
X141344054Y-99746234D01*
X141339060Y-99742406D01*
X141322003Y-99719071D01*
X141302677Y-99697582D01*
X141301043Y-99690394D01*
X141297830Y-99685998D01*
X141297034Y-99672752D01*
X141290500Y-99643995D01*
X141290500Y-99522432D01*
X141310185Y-99455393D01*
X141350348Y-99416316D01*
X141426185Y-99370472D01*
X141546472Y-99250185D01*
X141634478Y-99104606D01*
X141685086Y-98942196D01*
X141691500Y-98871616D01*
X141691500Y-98808582D01*
X144059001Y-98808582D01*
X144065408Y-98879102D01*
X144065409Y-98879107D01*
X144115981Y-99041396D01*
X144203927Y-99186877D01*
X144324122Y-99307072D01*
X144469604Y-99395019D01*
X144469603Y-99395019D01*
X144631894Y-99445590D01*
X144631892Y-99445590D01*
X144702418Y-99451999D01*
X145284000Y-99451999D01*
X145365581Y-99451999D01*
X145436102Y-99445591D01*
X145436107Y-99445590D01*
X145598396Y-99395018D01*
X145743877Y-99307072D01*
X145864072Y-99186877D01*
X145952019Y-99041395D01*
X146002590Y-98879106D01*
X146009000Y-98808572D01*
X146009000Y-98802000D01*
X145284000Y-98802000D01*
X145284000Y-99451999D01*
X144702418Y-99451999D01*
X144783999Y-99451998D01*
X144784000Y-99451998D01*
X144784000Y-98802000D01*
X144059001Y-98802000D01*
X144059001Y-98808582D01*
X141691500Y-98808582D01*
X141691500Y-98358384D01*
X141685086Y-98287804D01*
X141634478Y-98125394D01*
X141546472Y-97979815D01*
X141546470Y-97979813D01*
X141546469Y-97979811D01*
X141444339Y-97877681D01*
X141440000Y-97869735D01*
X141432753Y-97864310D01*
X141423518Y-97839550D01*
X141410854Y-97816358D01*
X141411499Y-97807328D01*
X141408336Y-97798846D01*
X141413952Y-97773025D01*
X141415838Y-97746666D01*
X141421656Y-97737612D01*
X141423188Y-97730573D01*
X141444339Y-97702319D01*
X141544839Y-97601819D01*
X141606162Y-97568334D01*
X141632520Y-97565500D01*
X144180481Y-97565500D01*
X144247520Y-97585185D01*
X144268162Y-97601819D01*
X144306015Y-97639672D01*
X144339500Y-97700995D01*
X144334516Y-97770687D01*
X144306016Y-97815034D01*
X144203926Y-97917124D01*
X144115980Y-98062604D01*
X144065409Y-98224893D01*
X144059000Y-98295427D01*
X144059000Y-98302000D01*
X146008999Y-98302000D01*
X146008999Y-98295417D01*
X146002591Y-98224897D01*
X146002590Y-98224892D01*
X145952018Y-98062603D01*
X145864072Y-97917122D01*
X145761984Y-97815034D01*
X145757645Y-97807088D01*
X145750397Y-97801662D01*
X145741162Y-97776902D01*
X145728499Y-97753711D01*
X145729144Y-97744680D01*
X145725981Y-97736198D01*
X145731597Y-97710377D01*
X145733483Y-97684019D01*
X145739301Y-97674965D01*
X145740833Y-97667925D01*
X145761982Y-97639674D01*
X145836157Y-97565500D01*
X145862840Y-97538818D01*
X145924163Y-97505334D01*
X145950520Y-97502500D01*
X147373203Y-97502500D01*
X147440242Y-97522185D01*
X147485997Y-97574989D01*
X147491585Y-97589601D01*
X147492522Y-97592606D01*
X147575926Y-97730573D01*
X147580530Y-97738188D01*
X147700811Y-97858469D01*
X147700813Y-97858470D01*
X147700815Y-97858472D01*
X147846394Y-97946478D01*
X148008804Y-97997086D01*
X148079384Y-98003500D01*
X148079387Y-98003500D01*
X148592613Y-98003500D01*
X148592616Y-98003500D01*
X148663196Y-97997086D01*
X148825606Y-97946478D01*
X148971185Y-97858472D01*
X149014623Y-97815034D01*
X149073319Y-97756339D01*
X149134642Y-97722854D01*
X149204334Y-97727838D01*
X149248681Y-97756339D01*
X149350811Y-97858469D01*
X149350813Y-97858470D01*
X149350815Y-97858472D01*
X149447837Y-97917124D01*
X149453650Y-97920638D01*
X149500838Y-97972166D01*
X149513500Y-98026755D01*
X149513500Y-98383574D01*
X149493815Y-98450613D01*
X149454598Y-98489112D01*
X149410957Y-98516030D01*
X149291029Y-98635959D01*
X149202001Y-98780294D01*
X149201996Y-98780305D01*
X149148651Y-98941290D01*
X149138500Y-99040647D01*
X149138500Y-99587337D01*
X149138501Y-99587355D01*
X149148650Y-99686707D01*
X149148651Y-99686710D01*
X149201996Y-99847694D01*
X149202001Y-99847705D01*
X149291029Y-99992040D01*
X149291032Y-99992044D01*
X149300660Y-100001672D01*
X149334145Y-100062995D01*
X149329161Y-100132687D01*
X149300663Y-100177031D01*
X149291428Y-100186265D01*
X149291424Y-100186271D01*
X149202457Y-100330507D01*
X149202452Y-100330518D01*
X149149144Y-100491393D01*
X149139000Y-100590677D01*
X149139000Y-100614000D01*
X151088999Y-100614000D01*
X151088999Y-100590692D01*
X151088998Y-100590677D01*
X151078855Y-100491392D01*
X151025547Y-100330518D01*
X151025542Y-100330507D01*
X150936575Y-100186271D01*
X150936572Y-100186267D01*
X150927339Y-100177034D01*
X150893854Y-100115711D01*
X150898838Y-100046019D01*
X150927343Y-100001668D01*
X150936968Y-99992044D01*
X151026003Y-99847697D01*
X151079349Y-99686708D01*
X151089500Y-99587345D01*
X151089499Y-99040656D01*
X151079349Y-98941292D01*
X151026003Y-98780303D01*
X151025999Y-98780297D01*
X151025998Y-98780294D01*
X150936970Y-98635959D01*
X150936969Y-98635958D01*
X150936968Y-98635956D01*
X150817044Y-98516032D01*
X150817043Y-98516031D01*
X150817042Y-98516030D01*
X150773402Y-98489112D01*
X150726678Y-98437163D01*
X150714500Y-98383574D01*
X150714500Y-97815402D01*
X150719281Y-97798692D01*
X150719054Y-97782104D01*
X150730515Y-97759440D01*
X150733274Y-97749801D01*
X150738932Y-97740724D01*
X150741472Y-97738185D01*
X150772044Y-97687612D01*
X150772489Y-97686899D01*
X150797957Y-97664210D01*
X150823126Y-97641162D01*
X150824078Y-97640941D01*
X150824660Y-97640423D01*
X150829829Y-97639607D01*
X150877715Y-97628500D01*
X151000285Y-97628500D01*
X151067324Y-97648185D01*
X151106401Y-97688349D01*
X151135096Y-97735816D01*
X151136530Y-97738188D01*
X151256811Y-97858469D01*
X151256813Y-97858470D01*
X151256815Y-97858472D01*
X151402394Y-97946478D01*
X151564804Y-97997086D01*
X151635384Y-98003500D01*
X151635387Y-98003500D01*
X152148613Y-98003500D01*
X152148616Y-98003500D01*
X152219196Y-97997086D01*
X152381606Y-97946478D01*
X152527185Y-97858472D01*
X152570623Y-97815034D01*
X152629319Y-97756339D01*
X152690642Y-97722854D01*
X152760334Y-97727838D01*
X152804681Y-97756339D01*
X152906811Y-97858469D01*
X152906813Y-97858470D01*
X152906815Y-97858472D01*
X153003837Y-97917124D01*
X153009650Y-97920638D01*
X153056838Y-97972166D01*
X153069500Y-98026755D01*
X153069500Y-100283903D01*
X153049815Y-100350942D01*
X153033181Y-100371584D01*
X150917584Y-102487181D01*
X150856261Y-102520666D01*
X150829903Y-102523500D01*
X136608097Y-102523500D01*
X136541058Y-102503815D01*
X136520416Y-102487181D01*
X134085757Y-100052522D01*
X134052272Y-99991199D01*
X134055507Y-99926523D01*
X134069246Y-99884243D01*
X134102500Y-99674287D01*
X134102500Y-99461713D01*
X134069246Y-99251757D01*
X134003557Y-99049588D01*
X133907051Y-98860184D01*
X133907049Y-98860181D01*
X133907048Y-98860179D01*
X133782109Y-98688213D01*
X133631786Y-98537890D01*
X133459820Y-98412951D01*
X133459115Y-98412591D01*
X133451054Y-98408485D01*
X133400259Y-98360512D01*
X133383463Y-98292692D01*
X133405999Y-98226556D01*
X133451054Y-98187515D01*
X133459816Y-98183051D01*
X133539176Y-98125393D01*
X133631786Y-98058109D01*
X133631788Y-98058106D01*
X133631792Y-98058104D01*
X133782104Y-97907792D01*
X133782106Y-97907788D01*
X133782109Y-97907786D01*
X133907048Y-97735820D01*
X133907047Y-97735820D01*
X133907051Y-97735816D01*
X134003557Y-97546412D01*
X134069246Y-97344243D01*
X134102500Y-97134287D01*
X134102500Y-96921713D01*
X134069246Y-96711757D01*
X134055506Y-96669473D01*
X134053512Y-96599635D01*
X134085755Y-96543478D01*
X139825601Y-90803632D01*
X139886922Y-90770149D01*
X139956614Y-90775133D01*
G37*
%TD.AperFunction*%
%TA.AperFunction,Conductor*%
G36*
X139451942Y-89266185D02*
G01*
X139497697Y-89318989D01*
X139507641Y-89388147D01*
X139478616Y-89451703D01*
X139472584Y-89458181D01*
X134226382Y-94704380D01*
X134165059Y-94737865D01*
X134136396Y-94735815D01*
X134136396Y-94738000D01*
X133185012Y-94738000D01*
X133217925Y-94680993D01*
X133252000Y-94553826D01*
X133252000Y-94422174D01*
X133217925Y-94295007D01*
X133185012Y-94238000D01*
X134079231Y-94238000D01*
X134068757Y-94171873D01*
X134068757Y-94171870D01*
X134003095Y-93969782D01*
X133906620Y-93780442D01*
X133781727Y-93608540D01*
X133781723Y-93608535D01*
X133631464Y-93458276D01*
X133631459Y-93458272D01*
X133459555Y-93333377D01*
X133450500Y-93328763D01*
X133399706Y-93280788D01*
X133382912Y-93212966D01*
X133405451Y-93146832D01*
X133450508Y-93107793D01*
X133459816Y-93103051D01*
X133564276Y-93027157D01*
X133631786Y-92978109D01*
X133631788Y-92978106D01*
X133631792Y-92978104D01*
X133782104Y-92827792D01*
X133782106Y-92827788D01*
X133782109Y-92827786D01*
X133907048Y-92655820D01*
X133907047Y-92655820D01*
X133907051Y-92655816D01*
X134003557Y-92466412D01*
X134069246Y-92264243D01*
X134102500Y-92054287D01*
X134102500Y-91841713D01*
X134069246Y-91631757D01*
X134003557Y-91429588D01*
X133907051Y-91240184D01*
X133907049Y-91240181D01*
X133907048Y-91240179D01*
X133782109Y-91068213D01*
X133668569Y-90954673D01*
X133635084Y-90893350D01*
X133640068Y-90823658D01*
X133681940Y-90767725D01*
X133712915Y-90750810D01*
X133844331Y-90701796D01*
X133959546Y-90615546D01*
X134045796Y-90500331D01*
X134096091Y-90365483D01*
X134102500Y-90305873D01*
X134102499Y-89370499D01*
X134122183Y-89303461D01*
X134174987Y-89257706D01*
X134226499Y-89246500D01*
X139384903Y-89246500D01*
X139451942Y-89266185D01*
G37*
%TD.AperFunction*%
%TD*%
D22*
X130000000Y-85852000D02*
X155956000Y-85852000D01*
X155956000Y-103992000D01*
X130000000Y-103992000D01*
X130000000Y-85852000D01*
M02*
