%TF.GenerationSoftware,KiCad,Pcbnew,9.0.2*%
%TF.CreationDate,2025-07-15T11:24:56-07:00*%
%TF.ProjectId,PeakDetector_Breakout,5065616b-4465-4746-9563-746f725f4272,rev?*%
%TF.SameCoordinates,Original*%
%TF.FileFunction,Copper,L2,Bot*%
%TF.FilePolarity,Positive*%
%FSLAX46Y46*%
G04 Gerber Fmt 4.6, Leading zero omitted, Abs format (unit mm)*
G04 Created by KiCad (PCBNEW 9.0.2) date 2025-07-15 11:24:56*
%MOMM*%
%LPD*%
G01*
G04 APERTURE LIST*
%TA.AperFunction,ComponentPad*%
%ADD10R,1.600000X1.600000*%
%TD*%
%TA.AperFunction,ComponentPad*%
%ADD11O,1.600000X1.600000*%
%TD*%
%TA.AperFunction,ComponentPad*%
%ADD12R,1.700000X1.700000*%
%TD*%
%TA.AperFunction,ComponentPad*%
%ADD13O,1.700000X1.700000*%
%TD*%
%TA.AperFunction,ViaPad*%
%ADD14C,1.500000*%
%TD*%
%TA.AperFunction,Profile*%
%ADD15C,0.050000*%
%TD*%
G04 APERTURE END LIST*
D10*
%TO.P,D1,1,K*%
%TO.N,/V_peak*%
X140716000Y-93472000D03*
D11*
%TO.P,D1,2,A*%
%TO.N,Net-(D1-A)*%
X148336000Y-93472000D03*
%TD*%
D12*
%TO.P,J2,1,Pin_1*%
%TO.N,/VIN*%
X132752000Y-89408000D03*
D13*
%TO.P,J2,2,Pin_2*%
%TO.N,VDD*%
X132752000Y-91948000D03*
%TO.P,J2,3,Pin_3*%
%TO.N,0*%
X132752000Y-94488000D03*
%TO.P,J2,4,Pin_4*%
%TO.N,VSS*%
X132752000Y-97028000D03*
%TO.P,J2,5,Pin_5*%
%TO.N,/VOUT*%
X132752000Y-99568000D03*
%TD*%
D14*
%TO.N,0*%
X150876000Y-92202000D03*
X146304000Y-100584000D03*
X135878365Y-90750484D03*
X137160000Y-101092000D03*
%TD*%
%TA.AperFunction,Conductor*%
%TO.N,0*%
G36*
X155398539Y-86372185D02*
G01*
X155444294Y-86424989D01*
X155455500Y-86476500D01*
X155455500Y-103367500D01*
X155435815Y-103434539D01*
X155383011Y-103480294D01*
X155331500Y-103491500D01*
X130624500Y-103491500D01*
X130557461Y-103471815D01*
X130511706Y-103419011D01*
X130500500Y-103367500D01*
X130500500Y-88510135D01*
X131401500Y-88510135D01*
X131401500Y-90305870D01*
X131401501Y-90305876D01*
X131407908Y-90365483D01*
X131458202Y-90500328D01*
X131458206Y-90500335D01*
X131544452Y-90615544D01*
X131544455Y-90615547D01*
X131659664Y-90701793D01*
X131659671Y-90701797D01*
X131791082Y-90750810D01*
X131847016Y-90792681D01*
X131871433Y-90858145D01*
X131856582Y-90926418D01*
X131835431Y-90954673D01*
X131721889Y-91068215D01*
X131596951Y-91240179D01*
X131500444Y-91429585D01*
X131434753Y-91631760D01*
X131401500Y-91841713D01*
X131401500Y-92054286D01*
X131429045Y-92228202D01*
X131434754Y-92264243D01*
X131488504Y-92429669D01*
X131500444Y-92466414D01*
X131596951Y-92655820D01*
X131721890Y-92827786D01*
X131872213Y-92978109D01*
X132044179Y-93103048D01*
X132044181Y-93103049D01*
X132044184Y-93103051D01*
X132053493Y-93107794D01*
X132104290Y-93155766D01*
X132121087Y-93223587D01*
X132098552Y-93289722D01*
X132053502Y-93328762D01*
X132044443Y-93333378D01*
X131872540Y-93458272D01*
X131872535Y-93458276D01*
X131722276Y-93608535D01*
X131722272Y-93608540D01*
X131597379Y-93780442D01*
X131500904Y-93969782D01*
X131435242Y-94171870D01*
X131435242Y-94171873D01*
X131424769Y-94238000D01*
X132318988Y-94238000D01*
X132286075Y-94295007D01*
X132252000Y-94422174D01*
X132252000Y-94553826D01*
X132286075Y-94680993D01*
X132318988Y-94738000D01*
X131424769Y-94738000D01*
X131435242Y-94804126D01*
X131435242Y-94804129D01*
X131500904Y-95006217D01*
X131597379Y-95195557D01*
X131722272Y-95367459D01*
X131722276Y-95367464D01*
X131872535Y-95517723D01*
X131872540Y-95517727D01*
X132044444Y-95642622D01*
X132053495Y-95647234D01*
X132104292Y-95695208D01*
X132121087Y-95763029D01*
X132098550Y-95829164D01*
X132053499Y-95868202D01*
X132044182Y-95872949D01*
X131872213Y-95997890D01*
X131721890Y-96148213D01*
X131596951Y-96320179D01*
X131500444Y-96509585D01*
X131434753Y-96711760D01*
X131401500Y-96921713D01*
X131401500Y-97134286D01*
X131434753Y-97344239D01*
X131500444Y-97546414D01*
X131596951Y-97735820D01*
X131721890Y-97907786D01*
X131872213Y-98058109D01*
X132044182Y-98183050D01*
X132052946Y-98187516D01*
X132103742Y-98235491D01*
X132120536Y-98303312D01*
X132097998Y-98369447D01*
X132052946Y-98408484D01*
X132044182Y-98412949D01*
X131872213Y-98537890D01*
X131721890Y-98688213D01*
X131596951Y-98860179D01*
X131500444Y-99049585D01*
X131434753Y-99251760D01*
X131401500Y-99461713D01*
X131401500Y-99674286D01*
X131434753Y-99884239D01*
X131500444Y-100086414D01*
X131596951Y-100275820D01*
X131721890Y-100447786D01*
X131872213Y-100598109D01*
X132044179Y-100723048D01*
X132044181Y-100723049D01*
X132044184Y-100723051D01*
X132233588Y-100819557D01*
X132435757Y-100885246D01*
X132645713Y-100918500D01*
X132645714Y-100918500D01*
X132858286Y-100918500D01*
X132858287Y-100918500D01*
X133068243Y-100885246D01*
X133270412Y-100819557D01*
X133459816Y-100723051D01*
X133481789Y-100707086D01*
X133631786Y-100598109D01*
X133631788Y-100598106D01*
X133631792Y-100598104D01*
X133782104Y-100447792D01*
X133782106Y-100447788D01*
X133782109Y-100447786D01*
X133907048Y-100275820D01*
X133907047Y-100275820D01*
X133907051Y-100275816D01*
X134003557Y-100086412D01*
X134069246Y-99884243D01*
X134102500Y-99674287D01*
X134102500Y-99461713D01*
X134069246Y-99251757D01*
X134003557Y-99049588D01*
X133907051Y-98860184D01*
X133907049Y-98860181D01*
X133907048Y-98860179D01*
X133782109Y-98688213D01*
X133631786Y-98537890D01*
X133459820Y-98412951D01*
X133459115Y-98412591D01*
X133451054Y-98408485D01*
X133400259Y-98360512D01*
X133383463Y-98292692D01*
X133405999Y-98226556D01*
X133451054Y-98187515D01*
X133459816Y-98183051D01*
X133481789Y-98167086D01*
X133631786Y-98058109D01*
X133631788Y-98058106D01*
X133631792Y-98058104D01*
X133782104Y-97907792D01*
X133782106Y-97907788D01*
X133782109Y-97907786D01*
X133907048Y-97735820D01*
X133907047Y-97735820D01*
X133907051Y-97735816D01*
X134003557Y-97546412D01*
X134069246Y-97344243D01*
X134102500Y-97134287D01*
X134102500Y-96921713D01*
X134069246Y-96711757D01*
X134003557Y-96509588D01*
X133907051Y-96320184D01*
X133907049Y-96320181D01*
X133907048Y-96320179D01*
X133782109Y-96148213D01*
X133631786Y-95997890D01*
X133459817Y-95872949D01*
X133450504Y-95868204D01*
X133399707Y-95820230D01*
X133382912Y-95752409D01*
X133405449Y-95686274D01*
X133450507Y-95647232D01*
X133459558Y-95642620D01*
X133631459Y-95517727D01*
X133631464Y-95517723D01*
X133781723Y-95367464D01*
X133781727Y-95367459D01*
X133906620Y-95195557D01*
X134003095Y-95006217D01*
X134068757Y-94804129D01*
X134068757Y-94804126D01*
X134079231Y-94738000D01*
X133185012Y-94738000D01*
X133217925Y-94680993D01*
X133252000Y-94553826D01*
X133252000Y-94422174D01*
X133217925Y-94295007D01*
X133185012Y-94238000D01*
X134079231Y-94238000D01*
X134068757Y-94171873D01*
X134068757Y-94171870D01*
X134003095Y-93969782D01*
X133906620Y-93780442D01*
X133781727Y-93608540D01*
X133781723Y-93608535D01*
X133631464Y-93458276D01*
X133631459Y-93458272D01*
X133459555Y-93333377D01*
X133450500Y-93328763D01*
X133399706Y-93280788D01*
X133382912Y-93212966D01*
X133405451Y-93146832D01*
X133450508Y-93107793D01*
X133459816Y-93103051D01*
X133539007Y-93045515D01*
X133631786Y-92978109D01*
X133631788Y-92978106D01*
X133631792Y-92978104D01*
X133782104Y-92827792D01*
X133782106Y-92827788D01*
X133782109Y-92827786D01*
X133907048Y-92655820D01*
X133907047Y-92655820D01*
X133907051Y-92655816D01*
X133923193Y-92624135D01*
X139415500Y-92624135D01*
X139415500Y-94319870D01*
X139415501Y-94319876D01*
X139421908Y-94379483D01*
X139472202Y-94514328D01*
X139472206Y-94514335D01*
X139558452Y-94629544D01*
X139558455Y-94629547D01*
X139673664Y-94715793D01*
X139673671Y-94715797D01*
X139808517Y-94766091D01*
X139808516Y-94766091D01*
X139815444Y-94766835D01*
X139868127Y-94772500D01*
X141563872Y-94772499D01*
X141623483Y-94766091D01*
X141758331Y-94715796D01*
X141873546Y-94629546D01*
X141959796Y-94514331D01*
X142010091Y-94379483D01*
X142016500Y-94319873D01*
X142016499Y-93369648D01*
X147035500Y-93369648D01*
X147035500Y-93574351D01*
X147067522Y-93776534D01*
X147130781Y-93971223D01*
X147223715Y-94153613D01*
X147344028Y-94319213D01*
X147488786Y-94463971D01*
X147643749Y-94576556D01*
X147654390Y-94584287D01*
X147743212Y-94629544D01*
X147836776Y-94677218D01*
X147836778Y-94677218D01*
X147836781Y-94677220D01*
X147941137Y-94711127D01*
X148031465Y-94740477D01*
X148132557Y-94756488D01*
X148233648Y-94772500D01*
X148233649Y-94772500D01*
X148438351Y-94772500D01*
X148438352Y-94772500D01*
X148640534Y-94740477D01*
X148835219Y-94677220D01*
X149017610Y-94584287D01*
X149113901Y-94514328D01*
X149183213Y-94463971D01*
X149183215Y-94463968D01*
X149183219Y-94463966D01*
X149327966Y-94319219D01*
X149327968Y-94319215D01*
X149327971Y-94319213D01*
X149435020Y-94171870D01*
X149448287Y-94153610D01*
X149541220Y-93971219D01*
X149604477Y-93776534D01*
X149636500Y-93574352D01*
X149636500Y-93369648D01*
X149604477Y-93167466D01*
X149600675Y-93155766D01*
X149542951Y-92978109D01*
X149541220Y-92972781D01*
X149541218Y-92972778D01*
X149541218Y-92972776D01*
X149467341Y-92827786D01*
X149448287Y-92790390D01*
X149440556Y-92779749D01*
X149327971Y-92624786D01*
X149183213Y-92480028D01*
X149017613Y-92359715D01*
X149017612Y-92359714D01*
X149017610Y-92359713D01*
X148960653Y-92330691D01*
X148835223Y-92266781D01*
X148640534Y-92203522D01*
X148465995Y-92175878D01*
X148438352Y-92171500D01*
X148233648Y-92171500D01*
X148209329Y-92175351D01*
X148031465Y-92203522D01*
X147836776Y-92266781D01*
X147654386Y-92359715D01*
X147488786Y-92480028D01*
X147344028Y-92624786D01*
X147223715Y-92790386D01*
X147130781Y-92972776D01*
X147067522Y-93167465D01*
X147035500Y-93369648D01*
X142016499Y-93369648D01*
X142016499Y-92624128D01*
X142010091Y-92564517D01*
X141973500Y-92466412D01*
X141959797Y-92429671D01*
X141959793Y-92429664D01*
X141873547Y-92314455D01*
X141873544Y-92314452D01*
X141758335Y-92228206D01*
X141758328Y-92228202D01*
X141623482Y-92177908D01*
X141623483Y-92177908D01*
X141563883Y-92171501D01*
X141563881Y-92171500D01*
X141563873Y-92171500D01*
X141563864Y-92171500D01*
X139868129Y-92171500D01*
X139868123Y-92171501D01*
X139808516Y-92177908D01*
X139673671Y-92228202D01*
X139673664Y-92228206D01*
X139558455Y-92314452D01*
X139558452Y-92314455D01*
X139472206Y-92429664D01*
X139472202Y-92429671D01*
X139421908Y-92564517D01*
X139415501Y-92624116D01*
X139415501Y-92624123D01*
X139415500Y-92624135D01*
X133923193Y-92624135D01*
X134003557Y-92466412D01*
X134069246Y-92264243D01*
X134102500Y-92054287D01*
X134102500Y-91841713D01*
X134069246Y-91631757D01*
X134003557Y-91429588D01*
X133907051Y-91240184D01*
X133907049Y-91240181D01*
X133907048Y-91240179D01*
X133782109Y-91068213D01*
X133668569Y-90954673D01*
X133635084Y-90893350D01*
X133640068Y-90823658D01*
X133681940Y-90767725D01*
X133712915Y-90750810D01*
X133844331Y-90701796D01*
X133959546Y-90615546D01*
X134045796Y-90500331D01*
X134096091Y-90365483D01*
X134102500Y-90305873D01*
X134102499Y-88510128D01*
X134096091Y-88450517D01*
X134045796Y-88315669D01*
X134045795Y-88315668D01*
X134045793Y-88315664D01*
X133959547Y-88200455D01*
X133959544Y-88200452D01*
X133844335Y-88114206D01*
X133844328Y-88114202D01*
X133709482Y-88063908D01*
X133709483Y-88063908D01*
X133649883Y-88057501D01*
X133649881Y-88057500D01*
X133649873Y-88057500D01*
X133649864Y-88057500D01*
X131854129Y-88057500D01*
X131854123Y-88057501D01*
X131794516Y-88063908D01*
X131659671Y-88114202D01*
X131659664Y-88114206D01*
X131544455Y-88200452D01*
X131544452Y-88200455D01*
X131458206Y-88315664D01*
X131458202Y-88315671D01*
X131407908Y-88450517D01*
X131401501Y-88510116D01*
X131401501Y-88510123D01*
X131401500Y-88510135D01*
X130500500Y-88510135D01*
X130500500Y-86476500D01*
X130520185Y-86409461D01*
X130572989Y-86363706D01*
X130624500Y-86352500D01*
X155331500Y-86352500D01*
X155398539Y-86372185D01*
G37*
%TD.AperFunction*%
%TD*%
D15*
X130000000Y-85852000D02*
X155956000Y-85852000D01*
X155956000Y-103992000D01*
X130000000Y-103992000D01*
X130000000Y-85852000D01*
M02*
