<?xml version="1.0" ?>
<svg height="12.683999999999997mm" version="1.1" viewBox="132.252 -114.276 19.123999999999995 12.683999999999997" width="19.123999999999995mm" xmlns="http://www.w3.org/2000/svg" xmlns:xlink="http://www.w3.org/1999/xlink">
	<g transform="scale(1,-1)">
		<g>
			<path d="M 137.66,-101.092 L 137.6575923633361,-101.14100857016479 L 137.6503926402016,-101.18954516100807 L 137.6384701678661,-101.23714233862724 L 137.62193976625565,-101.28334171618255 L 137.60096063217418,-101.327698368413 L 137.57573480615127,-101.3697851165098 L 137.54650522668138,-101.40919664208182 L 137.51355339059327,-101.44555339059328 L 137.47719664208182,-101.47850522668136 L 137.4377851165098,-101.50773480615128 L 137.395698368413,-101.53296063217418 L 137.35134171618253,-101.55393976625564 L 137.30514233862723,-101.5704701678661 L 137.25754516100807,-101.58239264020162 L 137.20900857016477,-101.5895923633361 L 137.16,-101.592 L 137.11099142983522,-101.5895923633361 L 137.06245483899193,-101.58239264020162 L 137.01485766137276,-101.5704701678661 L 136.96865828381746,-101.55393976625564 L 136.92430163158699,-101.53296063217418 L 136.8822148834902,-101.50773480615128 L 136.84280335791817,-101.47850522668136 L 136.80644660940672,-101.44555339059328 L 136.77349477331862,-101.40919664208182 L 136.74426519384872,-101.3697851165098 L 136.71903936782581,-101.327698368413 L 136.69806023374434,-101.28334171618255 L 136.6815298321339,-101.23714233862724 L 136.6696073597984,-101.18954516100807 L 136.6624076366639,-101.14100857016479 L 136.66,-101.092 L 136.6624076366639,-101.04299142983523 L 136.6696073597984,-100.99445483899194 L 136.6815298321339,-100.94685766137277 L 136.69806023374434,-100.90065828381745 L 136.71903936782581,-100.856301631587 L 136.74426519384872,-100.8142148834902 L 136.77349477331862,-100.77480335791817 L 136.80644660940672,-100.73844660940672 L 136.84280335791817,-100.70549477331863 L 136.8822148834902,-100.67626519384872 L 136.92430163158699,-100.65103936782582 L 136.96865828381746,-100.63006023374436 L 137.01485766137276,-100.61352983213389 L 137.06245483899193,-100.60160735979838 L 137.11099142983522,-100.5944076366639 L 137.16,-100.592 L 137.20900857016477,-100.5944076366639 L 137.25754516100807,-100.60160735979838 L 137.30514233862723,-100.61352983213389 L 137.35134171618253,-100.63006023374436 L 137.39569836841298,-100.65103936782582 L 137.4377851165098,-100.67626519384872 L 137.47719664208182,-100.70549477331863 L 137.51355339059327,-100.73844660940672 L 137.54650522668138,-100.77480335791817 L 137.57573480615127,-100.8142148834902 L 137.60096063217418,-100.856301631587 L 137.62193976625565,-100.90065828381745 L 137.6384701678661,-100.94685766137276 L 137.6503926402016,-100.99445483899193 L 137.6575923633361,-101.04299142983521 L 137.66,-101.092 z" fill="#66cc99" fill-rule="evenodd" opacity="0.6" stroke="#555555" stroke-width="0.02"/>
			<path d="M 146.804,-100.584 L 146.8015923633361,-100.63300857016479 L 146.7943926402016,-100.68154516100807 L 146.7824701678661,-100.72914233862724 L 146.76593976625566,-100.77534171618255 L 146.74496063217418,-100.819698368413 L 146.71973480615128,-100.86178511650981 L 146.69050522668138,-100.90119664208183 L 146.65755339059328,-100.93755339059328 L 146.62119664208183,-100.97050522668137 L 146.5817851165098,-100.99973480615128 L 146.539698368413,-101.02496063217419 L 146.49534171618254,-101.04593976625564 L 146.44914233862724,-101.06247016786611 L 146.40154516100807,-101.07439264020162 L 146.35300857016477,-101.0815923633361 L 146.304,-101.084 L 146.25499142983523,-101.0815923633361 L 146.20645483899193,-101.07439264020162 L 146.15885766137276,-101.06247016786611 L 146.11265828381747,-101.04593976625564 L 146.068301631587,-101.02496063217419 L 146.0262148834902,-100.99973480615128 L 145.98680335791818,-100.97050522668137 L 145.95044660940673,-100.93755339059328 L 145.91749477331862,-100.90119664208183 L 145.88826519384872,-100.86178511650981 L 145.86303936782582,-100.819698368413 L 145.84206023374435,-100.77534171618255 L 145.8255298321339,-100.72914233862724 L 145.8136073597984,-100.68154516100807 L 145.8064076366639,-100.63300857016479 L 145.804,-100.584 L 145.8064076366639,-100.53499142983523 L 145.8136073597984,-100.48645483899195 L 145.8255298321339,-100.43885766137278 L 145.84206023374435,-100.39265828381745 L 145.86303936782582,-100.348301631587 L 145.88826519384872,-100.3062148834902 L 145.91749477331862,-100.26680335791818 L 145.95044660940673,-100.23044660940673 L 145.98680335791818,-100.19749477331864 L 146.0262148834902,-100.16826519384873 L 146.068301631587,-100.14303936782582 L 146.11265828381747,-100.12206023374436 L 146.15885766137276,-100.1055298321339 L 146.20645483899193,-100.09360735979838 L 146.25499142983523,-100.0864076366639 L 146.304,-100.084 L 146.35300857016477,-100.0864076366639 L 146.40154516100807,-100.09360735979838 L 146.44914233862724,-100.1055298321339 L 146.49534171618254,-100.12206023374436 L 146.53969836841299,-100.14303936782582 L 146.5817851165098,-100.16826519384873 L 146.62119664208183,-100.19749477331864 L 146.65755339059328,-100.23044660940673 L 146.69050522668138,-100.26680335791818 L 146.71973480615128,-100.3062148834902 L 146.74496063217418,-100.348301631587 L 146.76593976625566,-100.39265828381745 L 146.7824701678661,-100.43885766137277 L 146.7943926402016,-100.48645483899193 L 146.8015923633361,-100.53499142983522 L 146.804,-100.584 z" fill="#66cc99" fill-rule="evenodd" opacity="0.6" stroke="#555555" stroke-width="0.02"/>
			<path d="M 133.252,-99.568 L 133.24959236333612,-99.61700857016478 L 133.24239264020161,-99.66554516100807 L 133.23047016786612,-99.71314233862724 L 133.21393976625566,-99.75934171618255 L 133.1929606321742,-99.803698368413 L 133.1677348061513,-99.8457851165098 L 133.1385052266814,-99.88519664208182 L 133.1055533905933,-99.92155339059327 L 133.06919664208183,-99.95450522668136 L 133.0297851165098,-99.98373480615128 L 132.98769836841302,-100.00896063217418 L 132.94334171618254,-100.02993976625564 L 132.89714233862725,-100.0464701678661 L 132.84954516100808,-100.05839264020162 L 132.80100857016478,-100.0655923633361 L 132.752,-100.068 L 132.70299142983524,-100.0655923633361 L 132.65445483899194,-100.05839264020162 L 132.60685766137277,-100.0464701678661 L 132.56065828381747,-100.02993976625564 L 132.516301631587,-100.00896063217418 L 132.47421488349022,-99.98373480615128 L 132.43480335791818,-99.95450522668136 L 132.39844660940673,-99.92155339059327 L 132.36549477331863,-99.88519664208182 L 132.33626519384873,-99.8457851165098 L 132.31103936782583,-99.803698368413 L 132.29006023374436,-99.75934171618255 L 132.2735298321339,-99.71314233862724 L 132.2616073597984,-99.66554516100807 L 132.2544076366639,-99.61700857016478 L 132.252,-99.568 L 132.2544076366639,-99.51899142983522 L 132.2616073597984,-99.47045483899194 L 132.2735298321339,-99.42285766137277 L 132.29006023374436,-99.37665828381745 L 132.31103936782583,-99.332301631587 L 132.33626519384873,-99.2902148834902 L 132.36549477331863,-99.25080335791817 L 132.39844660940673,-99.21444660940672 L 132.43480335791818,-99.18149477331863 L 132.47421488349022,-99.15226519384872 L 132.516301631587,-99.12703936782582 L 132.56065828381747,-99.10606023374436 L 132.60685766137277,-99.08952983213389 L 132.65445483899194,-99.07760735979838 L 132.70299142983524,-99.0704076366639 L 132.752,-99.068 L 132.80100857016478,-99.0704076366639 L 132.84954516100808,-99.07760735979838 L 132.89714233862725,-99.08952983213389 L 132.94334171618254,-99.10606023374436 L 132.987698368413,-99.12703936782582 L 133.0297851165098,-99.15226519384872 L 133.06919664208183,-99.18149477331863 L 133.1055533905933,-99.21444660940672 L 133.1385052266814,-99.25080335791817 L 133.1677348061513,-99.2902148834902 L 133.1929606321742,-99.332301631587 L 133.21393976625566,-99.37665828381745 L 133.23047016786612,-99.42285766137276 L 133.24239264020161,-99.47045483899193 L 133.24959236333612,-99.51899142983521 L 133.252,-99.568 z" fill="#66cc99" fill-rule="evenodd" opacity="0.6" stroke="#555555" stroke-width="0.02"/>
			<path d="M 133.252,-97.028 L 133.24959236333612,-97.0770085701648 L 133.24239264020161,-97.12554516100808 L 133.23047016786612,-97.17314233862724 L 133.21393976625566,-97.21934171618256 L 133.1929606321742,-97.263698368413 L 133.1677348061513,-97.30578511650981 L 133.1385052266814,-97.34519664208183 L 133.1055533905933,-97.38155339059328 L 133.06919664208183,-97.41450522668137 L 133.0297851165098,-97.44373480615128 L 132.98769836841302,-97.46896063217419 L 132.94334171618254,-97.48993976625565 L 132.89714233862725,-97.50647016786611 L 132.84954516100808,-97.51839264020163 L 132.80100857016478,-97.5255923633361 L 132.752,-97.528 L 132.70299142983524,-97.5255923633361 L 132.65445483899194,-97.51839264020163 L 132.60685766137277,-97.50647016786611 L 132.56065828381747,-97.48993976625565 L 132.516301631587,-97.46896063217419 L 132.47421488349022,-97.44373480615128 L 132.43480335791818,-97.41450522668137 L 132.39844660940673,-97.38155339059328 L 132.36549477331863,-97.34519664208183 L 132.33626519384873,-97.30578511650981 L 132.31103936782583,-97.263698368413 L 132.29006023374436,-97.21934171618256 L 132.2735298321339,-97.17314233862724 L 132.2616073597984,-97.12554516100808 L 132.2544076366639,-97.0770085701648 L 132.252,-97.028 L 132.2544076366639,-96.97899142983523 L 132.2616073597984,-96.93045483899195 L 132.2735298321339,-96.88285766137278 L 132.29006023374436,-96.83665828381746 L 132.31103936782583,-96.79230163158701 L 132.33626519384873,-96.7502148834902 L 132.36549477331863,-96.71080335791818 L 132.39844660940673,-96.67444660940673 L 132.43480335791818,-96.64149477331864 L 132.47421488349022,-96.61226519384873 L 132.516301631587,-96.58703936782582 L 132.56065828381747,-96.56606023374437 L 132.60685766137277,-96.5495298321339 L 132.65445483899194,-96.53760735979839 L 132.70299142983524,-96.53040763666391 L 132.752,-96.528 L 132.80100857016478,-96.53040763666391 L 132.84954516100808,-96.53760735979839 L 132.89714233862725,-96.5495298321339 L 132.94334171618254,-96.56606023374437 L 132.987698368413,-96.58703936782582 L 133.0297851165098,-96.61226519384873 L 133.06919664208183,-96.64149477331864 L 133.1055533905933,-96.67444660940673 L 133.1385052266814,-96.71080335791818 L 133.1677348061513,-96.7502148834902 L 133.1929606321742,-96.79230163158701 L 133.21393976625566,-96.83665828381746 L 133.23047016786612,-96.88285766137277 L 133.24239264020161,-96.93045483899193 L 133.24959236333612,-96.97899142983522 L 133.252,-97.028 z" fill="#66cc99" fill-rule="evenodd" opacity="0.6" stroke="#555555" stroke-width="0.02"/>
			<path d="M 133.252,-94.488 L 133.24959236333612,-94.53700857016479 L 133.24239264020161,-94.58554516100807 L 133.23047016786612,-94.63314233862724 L 133.21393976625566,-94.67934171618255 L 133.1929606321742,-94.723698368413 L 133.1677348061513,-94.7657851165098 L 133.1385052266814,-94.80519664208182 L 133.1055533905933,-94.84155339059328 L 133.06919664208183,-94.87450522668136 L 133.0297851165098,-94.90373480615128 L 132.98769836841302,-94.92896063217418 L 132.94334171618254,-94.94993976625564 L 132.89714233862725,-94.9664701678661 L 132.84954516100808,-94.97839264020162 L 132.80100857016478,-94.9855923633361 L 132.752,-94.988 L 132.70299142983524,-94.9855923633361 L 132.65445483899194,-94.97839264020162 L 132.60685766137277,-94.9664701678661 L 132.56065828381747,-94.94993976625564 L 132.516301631587,-94.92896063217418 L 132.47421488349022,-94.90373480615128 L 132.43480335791818,-94.87450522668136 L 132.39844660940673,-94.84155339059328 L 132.36549477331863,-94.80519664208182 L 132.33626519384873,-94.7657851165098 L 132.31103936782583,-94.723698368413 L 132.29006023374436,-94.67934171618255 L 132.2735298321339,-94.63314233862724 L 132.2616073597984,-94.58554516100807 L 132.2544076366639,-94.53700857016479 L 132.252,-94.488 L 132.2544076366639,-94.43899142983523 L 132.2616073597984,-94.39045483899194 L 132.2735298321339,-94.34285766137278 L 132.29006023374436,-94.29665828381745 L 132.31103936782583,-94.252301631587 L 132.33626519384873,-94.2102148834902 L 132.36549477331863,-94.17080335791817 L 132.39844660940673,-94.13444660940672 L 132.43480335791818,-94.10149477331863 L 132.47421488349022,-94.07226519384872 L 132.516301631587,-94.04703936782582 L 132.56065828381747,-94.02606023374436 L 132.60685766137277,-94.0095298321339 L 132.65445483899194,-93.99760735979838 L 132.70299142983524,-93.9904076366639 L 132.752,-93.988 L 132.80100857016478,-93.9904076366639 L 132.84954516100808,-93.99760735979838 L 132.89714233862725,-94.0095298321339 L 132.94334171618254,-94.02606023374436 L 132.987698368413,-94.04703936782582 L 133.0297851165098,-94.07226519384872 L 133.06919664208183,-94.10149477331863 L 133.1055533905933,-94.13444660940672 L 133.1385052266814,-94.17080335791817 L 133.1677348061513,-94.2102148834902 L 133.1929606321742,-94.252301631587 L 133.21393976625566,-94.29665828381745 L 133.23047016786612,-94.34285766137276 L 133.24239264020161,-94.39045483899193 L 133.24959236333612,-94.43899142983521 L 133.252,-94.488 z" fill="#66cc99" fill-rule="evenodd" opacity="0.6" stroke="#555555" stroke-width="0.02"/>
			<path d="M 148.73600000000002,-93.472 L 148.7340738906689,-93.51120685613182 L 148.7283141121613,-93.55003612880644 L 148.7187761342929,-93.58811387090178 L 148.70555181300452,-93.62507337294603 L 148.68876850573935,-93.6605586947304 L 148.66858784492103,-93.69422809320784 L 148.64520418134512,-93.72575731366545 L 148.61884271247465,-93.75484271247461 L 148.58975731366547,-93.78120418134509 L 148.55822809320784,-93.80458784492102 L 148.52455869473042,-93.82476850573934 L 148.48907337294605,-93.84155181300451 L 148.4521138709018,-93.85477613429288 L 148.41403612880646,-93.86431411216128 L 148.37520685613183,-93.87007389066888 L 148.336,-93.872 L 148.2967931438682,-93.87007389066888 L 148.25796387119357,-93.86431411216128 L 148.21988612909823,-93.85477613429288 L 148.18292662705397,-93.84155181300451 L 148.1474413052696,-93.82476850573934 L 148.11377190679218,-93.80458784492102 L 148.08224268633455,-93.78120418134509 L 148.05315728752538,-93.75484271247461 L 148.02679581865493,-93.72575731366545 L 148.003412155079,-93.69422809320784 L 147.98323149426068,-93.6605586947304 L 147.9664481869955,-93.62507337294603 L 147.95322386570712,-93.58811387090178 L 147.9436858878387,-93.55003612880644 L 147.93792610933113,-93.51120685613182 L 147.936,-93.472 L 147.93792610933113,-93.43279314386817 L 147.9436858878387,-93.39396387119355 L 147.95322386570712,-93.35588612909821 L 147.9664481869955,-93.31892662705395 L 147.98323149426068,-93.28344130526959 L 148.003412155079,-93.24977190679215 L 148.0267958186549,-93.21824268633453 L 148.05315728752538,-93.18915728752538 L 148.08224268633455,-93.1627958186549 L 148.11377190679218,-93.13941215507897 L 148.1474413052696,-93.11923149426065 L 148.18292662705397,-93.10244818699547 L 148.21988612909823,-93.08922386570711 L 148.25796387119357,-93.0796858878387 L 148.2967931438682,-93.07392610933111 L 148.336,-93.07199999999999 L 148.37520685613183,-93.07392610933111 L 148.41403612880646,-93.0796858878387 L 148.4521138709018,-93.08922386570711 L 148.48907337294605,-93.10244818699547 L 148.52455869473042,-93.11923149426065 L 148.55822809320784,-93.13941215507897 L 148.58975731366547,-93.1627958186549 L 148.61884271247462,-93.18915728752538 L 148.6452041813451,-93.21824268633453 L 148.66858784492103,-93.24977190679215 L 148.68876850573935,-93.28344130526959 L 148.70555181300452,-93.31892662705395 L 148.7187761342929,-93.35588612909821 L 148.7283141121613,-93.39396387119353 L 148.7340738906689,-93.43279314386817 L 148.73600000000002,-93.472 z" fill="#66cc99" fill-rule="evenodd" opacity="0.6" stroke="#555555" stroke-width="0.02"/>
			<path d="M 151.376,-92.202 L 151.37359236333612,-92.25100857016479 L 151.3663926402016,-92.29954516100807 L 151.3544701678661,-92.34714233862724 L 151.33793976625566,-92.39334171618255 L 151.3169606321742,-92.437698368413 L 151.29173480615128,-92.4797851165098 L 151.26250522668138,-92.51919664208182 L 151.22955339059328,-92.55555339059327 L 151.19319664208183,-92.58850522668136 L 151.1537851165098,-92.61773480615128 L 151.11169836841302,-92.64296063217418 L 151.06734171618254,-92.66393976625564 L 151.02114233862724,-92.6804701678661 L 150.97354516100808,-92.69239264020162 L 150.92500857016478,-92.6995923633361 L 150.876,-92.702 L 150.82699142983523,-92.6995923633361 L 150.77845483899193,-92.69239264020162 L 150.73085766137277,-92.6804701678661 L 150.68465828381747,-92.66393976625564 L 150.640301631587,-92.64296063217418 L 150.59821488349021,-92.61773480615128 L 150.55880335791818,-92.58850522668136 L 150.52244660940673,-92.55555339059327 L 150.48949477331863,-92.51919664208182 L 150.46026519384873,-92.4797851165098 L 150.43503936782582,-92.437698368413 L 150.41406023374435,-92.39334171618255 L 150.3975298321339,-92.34714233862724 L 150.3856073597984,-92.29954516100807 L 150.3784076366639,-92.25100857016479 L 150.376,-92.202 L 150.3784076366639,-92.15299142983523 L 150.3856073597984,-92.10445483899194 L 150.3975298321339,-92.05685766137277 L 150.41406023374435,-92.01065828381745 L 150.43503936782582,-91.966301631587 L 150.46026519384873,-91.9242148834902 L 150.48949477331863,-91.88480335791817 L 150.52244660940673,-91.84844660940672 L 150.55880335791818,-91.81549477331863 L 150.59821488349021,-91.78626519384872 L 150.640301631587,-91.76103936782582 L 150.68465828381747,-91.74006023374436 L 150.73085766137277,-91.72352983213389 L 150.77845483899193,-91.71160735979838 L 150.82699142983523,-91.7044076366639 L 150.876,-91.702 L 150.92500857016478,-91.7044076366639 L 150.97354516100808,-91.71160735979838 L 151.02114233862724,-91.72352983213389 L 151.06734171618254,-91.74006023374436 L 151.111698368413,-91.76103936782582 L 151.1537851165098,-91.78626519384872 L 151.19319664208183,-91.81549477331863 L 151.22955339059328,-91.84844660940672 L 151.26250522668138,-91.88480335791817 L 151.29173480615128,-91.9242148834902 L 151.3169606321742,-91.966301631587 L 151.33793976625566,-92.01065828381745 L 151.3544701678661,-92.05685766137276 L 151.3663926402016,-92.10445483899193 L 151.37359236333612,-92.15299142983521 L 151.376,-92.202 z" fill="#66cc99" fill-rule="evenodd" opacity="0.6" stroke="#555555" stroke-width="0.02"/>
			<path d="M 133.252,-91.948 L 133.24959236333612,-91.99700857016478 L 133.24239264020161,-92.04554516100806 L 133.23047016786612,-92.09314233862723 L 133.21393976625566,-92.13934171618254 L 133.1929606321742,-92.18369836841299 L 133.1677348061513,-92.2257851165098 L 133.1385052266814,-92.26519664208182 L 133.1055533905933,-92.30155339059327 L 133.06919664208183,-92.33450522668136 L 133.0297851165098,-92.36373480615127 L 132.98769836841302,-92.38896063217418 L 132.94334171618254,-92.40993976625563 L 132.89714233862725,-92.4264701678661 L 132.84954516100808,-92.43839264020161 L 132.80100857016478,-92.44559236333609 L 132.752,-92.448 L 132.70299142983524,-92.44559236333609 L 132.65445483899194,-92.43839264020161 L 132.60685766137277,-92.4264701678661 L 132.56065828381747,-92.40993976625563 L 132.516301631587,-92.38896063217418 L 132.47421488349022,-92.36373480615127 L 132.43480335791818,-92.33450522668136 L 132.39844660940673,-92.30155339059327 L 132.36549477331863,-92.26519664208182 L 132.33626519384873,-92.2257851165098 L 132.31103936782583,-92.18369836841299 L 132.29006023374436,-92.13934171618254 L 132.2735298321339,-92.09314233862723 L 132.2616073597984,-92.04554516100806 L 132.2544076366639,-91.99700857016478 L 132.252,-91.948 L 132.2544076366639,-91.89899142983522 L 132.2616073597984,-91.85045483899194 L 132.2735298321339,-91.80285766137277 L 132.29006023374436,-91.75665828381744 L 132.31103936782583,-91.712301631587 L 132.33626519384873,-91.67021488349019 L 132.36549477331863,-91.63080335791817 L 132.39844660940673,-91.59444660940672 L 132.43480335791818,-91.56149477331863 L 132.47421488349022,-91.53226519384872 L 132.516301631587,-91.50703936782581 L 132.56065828381747,-91.48606023374435 L 132.60685766137277,-91.46952983213389 L 132.65445483899194,-91.45760735979837 L 132.70299142983524,-91.4504076366639 L 132.752,-91.448 L 132.80100857016478,-91.4504076366639 L 132.84954516100808,-91.45760735979837 L 132.89714233862725,-91.46952983213389 L 132.94334171618254,-91.48606023374435 L 132.987698368413,-91.50703936782581 L 133.0297851165098,-91.53226519384872 L 133.06919664208183,-91.56149477331863 L 133.1055533905933,-91.59444660940672 L 133.1385052266814,-91.63080335791817 L 133.1677348061513,-91.67021488349019 L 133.1929606321742,-91.712301631587 L 133.21393976625566,-91.75665828381744 L 133.23047016786612,-91.80285766137276 L 133.24239264020161,-91.85045483899192 L 133.24959236333612,-91.8989914298352 L 133.252,-91.948 z" fill="#66cc99" fill-rule="evenodd" opacity="0.6" stroke="#555555" stroke-width="0.02"/>
			<path d="M 136.378,-90.75 L 136.3755923633361,-90.79900857016479 L 136.3683926402016,-90.84754516100807 L 136.3564701678661,-90.89514233862724 L 136.33993976625564,-90.94134171618255 L 136.31896063217417,-90.985698368413 L 136.29373480615126,-91.0277851165098 L 136.26450522668137,-91.06719664208183 L 136.23155339059326,-91.10355339059328 L 136.1951966420818,-91.13650522668136 L 136.15578511650978,-91.16573480615128 L 136.113698368413,-91.19096063217418 L 136.06934171618252,-91.21193976625564 L 136.02314233862722,-91.2284701678661 L 135.97554516100806,-91.24039264020162 L 135.92700857016476,-91.2475923633361 L 135.878,-91.25 L 135.8289914298352,-91.2475923633361 L 135.78045483899191,-91.24039264020162 L 135.73285766137275,-91.2284701678661 L 135.68665828381745,-91.21193976625564 L 135.64230163158697,-91.19096063217418 L 135.6002148834902,-91.16573480615128 L 135.56080335791816,-91.13650522668136 L 135.5244466094067,-91.10355339059328 L 135.4914947733186,-91.06719664208183 L 135.4622651938487,-91.0277851165098 L 135.4370393678258,-90.985698368413 L 135.41606023374433,-90.94134171618255 L 135.39952983213388,-90.89514233862724 L 135.38760735979838,-90.84754516100807 L 135.38040763666388,-90.79900857016479 L 135.378,-90.75 L 135.38040763666388,-90.70099142983523 L 135.38760735979838,-90.65245483899194 L 135.39952983213388,-90.60485766137278 L 135.41606023374433,-90.55865828381745 L 135.4370393678258,-90.514301631587 L 135.4622651938487,-90.4722148834902 L 135.4914947733186,-90.43280335791817 L 135.5244466094067,-90.39644660940672 L 135.56080335791816,-90.36349477331864 L 135.6002148834902,-90.33426519384872 L 135.64230163158697,-90.30903936782582 L 135.68665828381745,-90.28806023374436 L 135.73285766137275,-90.2715298321339 L 135.78045483899191,-90.25960735979838 L 135.8289914298352,-90.2524076366639 L 135.878,-90.25 L 135.92700857016476,-90.2524076366639 L 135.97554516100806,-90.25960735979838 L 136.02314233862722,-90.2715298321339 L 136.06934171618252,-90.28806023374436 L 136.11369836841297,-90.30903936782582 L 136.15578511650978,-90.33426519384872 L 136.1951966420818,-90.36349477331864 L 136.23155339059326,-90.39644660940672 L 136.26450522668137,-90.43280335791817 L 136.29373480615126,-90.4722148834902 L 136.31896063217417,-90.514301631587 L 136.33993976625564,-90.55865828381745 L 136.3564701678661,-90.60485766137276 L 136.3683926402016,-90.65245483899193 L 136.3755923633361,-90.70099142983521 L 136.378,-90.75 z" fill="#66cc99" fill-rule="evenodd" opacity="0.6" stroke="#555555" stroke-width="0.02"/>
			<path d="M 133.252,-89.408 L 133.24959236333612,-89.45700857016479 L 133.24239264020161,-89.50554516100807 L 133.23047016786612,-89.55314233862724 L 133.21393976625566,-89.59934171618255 L 133.1929606321742,-89.643698368413 L 133.1677348061513,-89.6857851165098 L 133.1385052266814,-89.72519664208183 L 133.1055533905933,-89.76155339059328 L 133.06919664208183,-89.79450522668137 L 133.0297851165098,-89.82373480615128 L 132.98769836841302,-89.84896063217418 L 132.94334171618254,-89.86993976625564 L 132.89714233862725,-89.88647016786611 L 132.84954516100808,-89.89839264020162 L 132.80100857016478,-89.9055923633361 L 132.752,-89.908 L 132.70299142983524,-89.9055923633361 L 132.65445483899194,-89.89839264020162 L 132.60685766137277,-89.88647016786611 L 132.56065828381747,-89.86993976625564 L 132.516301631587,-89.84896063217418 L 132.47421488349022,-89.82373480615128 L 132.43480335791818,-89.79450522668137 L 132.39844660940673,-89.76155339059328 L 132.36549477331863,-89.72519664208183 L 132.33626519384873,-89.6857851165098 L 132.31103936782583,-89.643698368413 L 132.29006023374436,-89.59934171618255 L 132.2735298321339,-89.55314233862724 L 132.2616073597984,-89.50554516100807 L 132.2544076366639,-89.45700857016479 L 132.252,-89.408 L 132.2544076366639,-89.35899142983523 L 132.2616073597984,-89.31045483899194 L 132.2735298321339,-89.26285766137278 L 132.29006023374436,-89.21665828381745 L 132.31103936782583,-89.172301631587 L 132.33626519384873,-89.1302148834902 L 132.36549477331863,-89.09080335791818 L 132.39844660940673,-89.05444660940672 L 132.43480335791818,-89.02149477331864 L 132.47421488349022,-88.99226519384872 L 132.516301631587,-88.96703936782582 L 132.56065828381747,-88.94606023374436 L 132.60685766137277,-88.9295298321339 L 132.65445483899194,-88.91760735979838 L 132.70299142983524,-88.9104076366639 L 132.752,-88.908 L 132.80100857016478,-88.9104076366639 L 132.84954516100808,-88.91760735979838 L 132.89714233862725,-88.9295298321339 L 132.94334171618254,-88.94606023374436 L 132.987698368413,-88.96703936782582 L 133.0297851165098,-88.99226519384872 L 133.06919664208183,-89.02149477331864 L 133.1055533905933,-89.05444660940672 L 133.1385052266814,-89.09080335791818 L 133.1677348061513,-89.1302148834902 L 133.1929606321742,-89.172301631587 L 133.21393976625566,-89.21665828381745 L 133.23047016786612,-89.26285766137276 L 133.24239264020161,-89.31045483899193 L 133.24959236333612,-89.35899142983521 L 133.252,-89.408 z" fill="#66cc99" fill-rule="evenodd" opacity="0.6" stroke="#555555" stroke-width="0.02"/>
			<path d="M 141.116,-93.472 L 141.1140738906689,-93.51120685613182 L 141.1083141121613,-93.55003612880644 L 141.0987761342929,-93.58811387090178 L 141.0855518130045,-93.62507337294603 L 141.06876850573934,-93.6605586947304 L 141.04858784492103,-93.69422809320784 L 141.02520418134512,-93.72575731366545 L 140.99884271247464,-93.75484271247461 L 140.96975731366547,-93.78120418134509 L 140.93822809320784,-93.80458784492102 L 140.9045586947304,-93.82476850573934 L 140.86907337294605,-93.84155181300451 L 140.8321138709018,-93.85477613429288 L 140.79403612880645,-93.86431411216128 L 140.75520685613182,-93.87007389066888 L 140.716,-93.872 L 140.6767931438682,-93.87007389066888 L 140.63796387119356,-93.86431411216128 L 140.59988612909822,-93.85477613429288 L 140.56292662705397,-93.84155181300451 L 140.5274413052696,-93.82476850573934 L 140.49377190679218,-93.80458784492102 L 140.46224268633455,-93.78120418134509 L 140.43315728752538,-93.75484271247461 L 140.40679581865493,-93.72575731366545 L 140.383412155079,-93.69422809320784 L 140.36323149426067,-93.6605586947304 L 140.3464481869955,-93.62507337294603 L 140.3332238657071,-93.58811387090178 L 140.3236858878387,-93.55003612880644 L 140.31792610933113,-93.51120685613182 L 140.316,-93.472 L 140.31792610933113,-93.43279314386817 L 140.3236858878387,-93.39396387119355 L 140.3332238657071,-93.35588612909821 L 140.3464481869955,-93.31892662705395 L 140.36323149426067,-93.28344130526959 L 140.383412155079,-93.24977190679215 L 140.4067958186549,-93.21824268633453 L 140.43315728752538,-93.18915728752538 L 140.46224268633455,-93.1627958186549 L 140.49377190679218,-93.13941215507897 L 140.5274413052696,-93.11923149426065 L 140.56292662705397,-93.10244818699547 L 140.59988612909822,-93.08922386570711 L 140.63796387119356,-93.0796858878387 L 140.6767931438682,-93.07392610933111 L 140.716,-93.07199999999999 L 140.75520685613182,-93.07392610933111 L 140.79403612880645,-93.0796858878387 L 140.8321138709018,-93.08922386570711 L 140.86907337294605,-93.10244818699547 L 140.9045586947304,-93.11923149426065 L 140.93822809320784,-93.13941215507897 L 140.96975731366547,-93.1627958186549 L 140.9988427124746,-93.18915728752538 L 141.0252041813451,-93.21824268633453 L 141.04858784492103,-93.24977190679215 L 141.06876850573934,-93.28344130526959 L 141.0855518130045,-93.31892662705395 L 141.0987761342929,-93.35588612909821 L 141.1083141121613,-93.39396387119353 L 141.1140738906689,-93.43279314386817 L 141.116,-93.472 z" fill="#66cc99" fill-rule="evenodd" opacity="0.6" stroke="#555555" stroke-width="0.02"/>
		</g>
	</g>
	 
</svg>
