<?xml version="1.0" ?>
<svg height="18.190024812506252mm" version="1.1" viewBox="129.97498759374687 -122.20703721875937 26.00602481250624 18.190024812506252" width="26.00602481250624mm" xmlns="http://www.w3.org/2000/svg" xmlns:xlink="http://www.w3.org/1999/xlink">
	<g transform="scale(1,-1)">
		<g>
			<path d="M 132.72902754612667,-88.13346040970248 L 132.72370209423218,-88.1309416585407 L 132.7186491664087,-88.12791305018379 L 132.71391742534394,-88.12440375186823 L 132.7095524402912,-88.12044756005535 L 132.70559624844284,-88.11608257503512 L 132.70208695008856,-88.11135083399894 L 132.69905834169057,-88.10629790620047 L 132.69653959040258,-88.10097245409554 L 132.69455495317695,-88.09542576470001 L 132.69312354315477,-88.0897112556643 L 132.69225914559712,-88.08388396083426 L 132.69197008512512,-88.0780000002453 L 132.69225914554906,-88.07211603965364 L 132.693123543059,-88.06628874481721 L 132.69455495303433,-88.06057423577016 L 132.6965395902148,-88.05502754635786 L 132.69905834145933,-88.04970209423212 L 132.70208694981613,-88.04464916640876 L 132.7055962481316,-88.03991742534411 L 132.70955243994464,-88.0355524402912 L 132.71391742496485,-88.03159624844288 L 132.71864916600111,-88.02808695008856 L 132.72370209379974,-88.02505834169045 L 132.7290275459046,-88.02253959040256 L 132.7345742353001,-88.02055495317691 L 132.7402887443359,-88.01912354315472 L 132.74611603916566,-88.01825914559716 L 132.75200000233227,-88.01797008499852 L 134.08199999742206,-88.0179700849925 L 134.08788396034615,-88.01825914554907 L 134.09371125518305,-88.01912354305904 L 134.09942576423046,-88.0205549530345 L 134.10497245364235,-88.02253959021489 L 134.1102979057678,-88.0250583414593 L 134.11535083359126,-88.02808694981621 L 134.12008257465604,-88.03159624813178 L 134.12444755970878,-88.03555243994465 L 134.12840375155713,-88.03991742496488 L 134.13191304991142,-88.04464916600107 L 134.1349416583094,-88.04970209379954 L 134.1374604095974,-88.05502754590447 L 134.13944504682303,-88.0605742353 L 134.1408764568452,-88.06628874433571 L 134.14174085440285,-88.07211603916575 L 134.14202991500147,-88.07800000233212 L 134.1420299150075,-89.40799999742222 L 134.14174085445092,-89.41388396034637 L 134.140876456941,-89.41971125518279 L 134.13944504696565,-89.42542576422984 L 134.13746040978518,-89.43097245364214 L 134.13494165854064,-89.43629790576789 L 134.13191305018384,-89.44135083359124 L 134.12840375186838,-89.44608257465589 L 134.12444756005533,-89.4504475597088 L 134.12008257503513,-89.45440375155712 L 134.11535083399886,-89.45791304991144 L 134.11029790620023,-89.46094165830955 L 134.1049724540954,-89.46346040959745 L 134.09942576469987,-89.46544504682309 L 134.09371125566406,-89.46687645684528 L 134.08788396083432,-89.46774085440285 L 134.08200000024502,-89.46802991487486 L 134.07611603965384,-89.46774085445094 L 134.07028874481693,-89.46687645694097 L 134.06457423576953,-89.4654450469655 L 134.05902754635764,-89.46346040978511 L 134.0537020942322,-89.4609416585407 L 134.04864916640872,-89.45791305018379 L 134.04391742534395,-89.45440375186823 L 134.0395524402912,-89.45044756005535 L 134.03559624844286,-89.44608257503512 L 134.03208695008857,-89.44135083399894 L 134.0290583416906,-89.43629790620047 L 134.0265395904026,-89.43097245409554 L 134.02455495317696,-89.42542576470001 L 134.02312354315478,-89.4197112556643 L 134.02225914559713,-89.41388396083426 L 134.02197008499851,-89.40799999766789 L 134.0219700849925,-88.1380300250075 L 134.02197008487192,-88.13803002009845 L 134.02197008482375,-88.13803001911829 L 134.02197008386216,-88.13803000935546 L 134.02197008371817,-88.13803000838472 L 134.02197008180323,-88.13802999875772 L 134.02197008156477,-88.13802999780577 L 134.02197007871652,-88.13802998841633 L 134.02197007838592,-88.13802998749235 L 134.02197007462982,-88.13802997842431 L 134.02197007421023,-88.13802997753719 L 134.02197006958474,-88.13802996888357 L 134.02197006908023,-88.13802996804183 L 134.02197006362871,-88.13802995988291 L 134.02197006304414,-88.13802995909468 L 134.02197005681703,-88.13802995150692 L 134.02197005615798,-88.1380299507798 L 134.02197004921948,-88.13802994384133 L 134.02197004849234,-88.13802994318229 L 134.02197004090692,-88.13802993695705 L 134.0219700401187,-88.13802993637246 L 134.02197003195815,-88.13802993091974 L 134.0219700311164,-88.13802993041523 L 134.0219700224616,-88.13802992578918 L 134.02197002157448,-88.13802992536961 L 134.02197001250892,-88.13802992161452 L 134.02197001158493,-88.1380299212839 L 134.02197000219252,-88.13802991843475 L 134.02197000124056,-88.13802991819631 L 134.02196999161708,-88.1380299162821 L 134.02196999064637,-88.1380299161381 L 134.02196998087874,-88.13802991517606 L 134.02196997989856,-88.13802991512792 L 134.0219699749925,-88.13802991500751 L 132.75200000257792,-88.13802991500751 L 132.74611603965383,-88.13774085445094 L 132.74028874481692,-88.13687645694097 L 132.73457423576951,-88.1354450469655 L 132.72902754612667,-88.13346040970248 z" fill="#66cc99" fill-rule="evenodd" opacity="0.6" stroke="#555555" stroke-width="0.02"/>
			<path d="M 131.3619700849925,-90.67800000245477 L 131.36225914554907,-90.67211603965363 L 131.363123543059,-90.66628874481721 L 131.36455495303434,-90.66057423577016 L 131.3665395902148,-90.65502754635786 L 131.36905834145935,-90.64970209423211 L 131.37208694981615,-90.64464916640875 L 131.37559624813161,-90.63991742534411 L 131.37955243994466,-90.63555244029119 L 131.38391742496486,-90.63159624844288 L 131.38864916600113,-90.62808695008856 L 131.39370209379976,-90.62505834169045 L 131.3990275459046,-90.62253959040255 L 131.40457423530012,-90.6205549531769 L 131.41028874433593,-90.61912354315471 L 131.41611603916567,-90.61825914559715 L 131.42200000233228,-90.61797008499852 L 134.08199999742206,-90.61797008499249 L 134.08788396034615,-90.61825914554906 L 134.09371125518305,-90.61912354305903 L 134.09942576423046,-90.6205549530345 L 134.10497245364235,-90.62253959021488 L 134.1102979057678,-90.6250583414593 L 134.11535083359126,-90.62808694981621 L 134.12008257465604,-90.63159624813177 L 134.12444755970878,-90.63555243994465 L 134.12840375155713,-90.63991742496488 L 134.13191304991142,-90.64464916600106 L 134.1349416583094,-90.64970209379953 L 134.1374604095974,-90.65502754590446 L 134.13944504682303,-90.66057423529999 L 134.1408764568452,-90.6662887443357 L 134.14174085440285,-90.67211603916574 L 134.14202991500147,-90.67800000233211 L 134.1420299150075,-100.89799999742222 L 134.14174085445092,-100.90388396034636 L 134.140876456941,-100.90971125518278 L 134.13944504696565,-100.91542576422984 L 134.13746040978518,-100.92097245364214 L 134.13494165854064,-100.92629790576788 L 134.13191305018384,-100.93135083359124 L 134.12840375186838,-100.93608257465588 L 134.12444756005533,-100.9404475597088 L 134.12008257503513,-100.94440375155712 L 134.11535083399886,-100.94791304991143 L 134.11029790620023,-100.95094165830955 L 134.1049724540954,-100.95346040959744 L 134.09942576469987,-100.95544504682309 L 134.09371125566406,-100.95687645684528 L 134.08788396083432,-100.95774085440284 L 134.0819999976677,-100.95802991500148 L 131.42200000257793,-100.9580299150075 L 131.41611603965384,-100.95774085445093 L 131.41028874481694,-100.95687645694096 L 131.40457423576953,-100.9554450469655 L 131.39902754635764,-100.95346040978511 L 131.3937020942322,-100.9509416585407 L 131.38864916640873,-100.94791305018379 L 131.38391742534395,-100.94440375186822 L 131.3795524402912,-100.94044756005535 L 131.37559624844286,-100.93608257503512 L 131.37208695008857,-100.93135083399893 L 131.3690583416906,-100.92629790620046 L 131.3665395904026,-100.92097245409553 L 131.36455495317696,-100.9154257647 L 131.36312354315479,-100.90971125566429 L 131.36225914559714,-100.90388396083425 L 131.36197008499852,-100.89799999766788 L 131.3619700849925,-90.67800000245477 z M 134.0219699749925,-100.83797008499249 L 134.02196997989856,-100.83797008487208 L 134.02196998087874,-100.83797008482394 L 134.02196999064637,-100.8379700838619 L 134.02196999161708,-100.8379700837179 L 134.02197000124056,-100.83797008180369 L 134.02197000219252,-100.83797008156525 L 134.02197001158493,-100.8379700787161 L 134.02197001250892,-100.83797007838548 L 134.02197002157448,-100.83797007463039 L 134.0219700224616,-100.83797007421082 L 134.0219700311164,-100.83797006958477 L 134.02197003195815,-100.83797006908026 L 134.0219700401187,-100.83797006362754 L 134.02197004090692,-100.83797006304295 L 134.02197004849234,-100.83797005681771 L 134.02197004921948,-100.83797005615867 L 134.02197005615798,-100.8379700492202 L 134.02197005681703,-100.83797004849308 L 134.02197006304414,-100.83797004090532 L 134.02197006362871,-100.83797004011709 L 134.02197006908023,-100.83797003195816 L 134.02197006958474,-100.83797003111643 L 134.02197007421023,-100.83797002246281 L 134.02197007462982,-100.83797002157569 L 134.02197007838592,-100.83797001250765 L 134.02197007871652,-100.83797001158366 L 134.02197008156477,-100.83797000219423 L 134.02197008180323,-100.83797000124228 L 134.02197008371817,-100.83796999161528 L 134.02197008386216,-100.83796999064454 L 134.02197008482375,-100.83796998088171 L 134.02197008487192,-100.83796997990154 L 134.0219700849925,-100.8379699749925 L 134.0219700849925,-90.73803002500749 L 134.02197008487192,-90.73803002009845 L 134.02197008482375,-90.73803001911828 L 134.02197008386216,-90.73803000935546 L 134.02197008371817,-90.73803000838471 L 134.02197008180323,-90.73802999875771 L 134.02197008156477,-90.73802999780577 L 134.02197007871652,-90.73802998841633 L 134.02197007838592,-90.73802998749234 L 134.02197007462982,-90.73802997842431 L 134.02197007421023,-90.73802997753718 L 134.02197006958474,-90.73802996888357 L 134.02197006908023,-90.73802996804183 L 134.02197006362871,-90.73802995988291 L 134.02197006304414,-90.73802995909467 L 134.02197005681703,-90.73802995150692 L 134.02197005615798,-90.73802995077979 L 134.02197004921948,-90.73802994384133 L 134.02197004849234,-90.73802994318228 L 134.02197004090692,-90.73802993695705 L 134.0219700401187,-90.73802993637246 L 134.02197003195815,-90.73802993091974 L 134.0219700311164,-90.73802993041522 L 134.0219700224616,-90.73802992578918 L 134.02197002157448,-90.7380299253696 L 134.02197001250892,-90.73802992161451 L 134.02197001158493,-90.7380299212839 L 134.02197000219252,-90.73802991843475 L 134.02197000124056,-90.7380299181963 L 134.02196999161708,-90.73802991628209 L 134.02196999064637,-90.73802991613809 L 134.02196998087874,-90.73802991517606 L 134.02196997989856,-90.73802991512791 L 134.0219699749925,-90.7380299150075 L 131.4820300250075,-90.7380299150075 L 131.48203002010143,-90.73802991512791 L 131.48203001912125,-90.73802991517606 L 131.48203000935362,-90.73802991613809 L 131.4820300083829,-90.73802991628209 L 131.48202999875943,-90.7380299181963 L 131.48202999780747,-90.73802991843475 L 131.48202998841506,-90.7380299212839 L 131.48202998749107,-90.73802992161451 L 131.48202997842552,-90.7380299253696 L 131.4820299775384,-90.73802992578918 L 131.48202996888358,-90.73802993041522 L 131.48202996804184,-90.73802993091974 L 131.4820299598813,-90.73802993637246 L 131.48202995909307,-90.73802993695705 L 131.48202995150766,-90.73802994318228 L 131.48202995078051,-90.73802994384133 L 131.482029943842,-90.73802995077979 L 131.48202994318297,-90.73802995150692 L 131.48202993695585,-90.73802995909467 L 131.48202993637128,-90.73802995988291 L 131.48202993091977,-90.73802996804183 L 131.48202993041525,-90.73802996888357 L 131.48202992578976,-90.73802997753718 L 131.48202992537017,-90.73802997842431 L 131.48202992161407,-90.73802998749234 L 131.48202992128347,-90.73802998841633 L 131.48202991843522,-90.73802999780577 L 131.48202991819676,-90.73802999875771 L 131.48202991628182,-90.73803000838471 L 131.48202991613783,-90.73803000935546 L 131.48202991517624,-90.73803001911828 L 131.48202991512807,-90.73803002009845 L 131.4820299150075,-90.73803002500749 L 131.4820299150075,-100.8379699749925 L 131.48202991512807,-100.83796997990154 L 131.48202991517624,-100.83796998088171 L 131.48202991613783,-100.83796999064454 L 131.48202991628182,-100.83796999161528 L 131.48202991819676,-100.83797000124228 L 131.48202991843522,-100.83797000219423 L 131.48202992128347,-100.83797001158366 L 131.48202992161407,-100.83797001250765 L 131.48202992537017,-100.83797002157569 L 131.48202992578976,-100.83797002246281 L 131.48202993041525,-100.83797003111643 L 131.48202993091977,-100.83797003195816 L 131.48202993637128,-100.83797004011709 L 131.48202993695585,-100.83797004090532 L 131.48202994318297,-100.83797004849308 L 131.482029943842,-100.8379700492202 L 131.48202995078051,-100.83797005615867 L 131.48202995150766,-100.83797005681771 L 131.48202995909307,-100.83797006304295 L 131.4820299598813,-100.83797006362754 L 131.48202996804184,-100.83797006908026 L 131.48202996888358,-100.83797006958477 L 131.4820299775384,-100.83797007421082 L 131.48202997842552,-100.83797007463039 L 131.48202998749107,-100.83797007838548 L 131.48202998841506,-100.8379700787161 L 131.48202999780747,-100.83797008156525 L 131.48202999875943,-100.83797008180369 L 131.4820300083829,-100.8379700837179 L 131.48203000935362,-100.8379700838619 L 131.48203001912125,-100.83797008482394 L 131.48203002010143,-100.83797008487208 L 131.4820300250075,-100.83797008499249 L 134.0219699749925,-100.83797008499249 z" fill="#66cc99" fill-rule="evenodd" opacity="0.6" stroke="#555555" stroke-width="0.02"/>
			<path d="M 129.97498759374687,-85.85200000245476 L 129.97510803542755,-85.8495483557232 L 129.97546820020168,-85.84712032187629 L 129.97606461961826,-85.84473928199716 L 129.97689154983252,-85.84242816680086 L 129.97794102705433,-85.8402092335907 L 129.97920294424395,-85.83810385190718 L 129.98066514844948,-85.83613229772602 L 129.98231355784512,-85.83431355819167 L 129.98413229734686,-85.83266514876064 L 129.98610385149945,-85.8312029445164 L 129.98820923315836,-85.82994102728543 L 129.99042816634758,-85.82889155002026 L 129.99273928152712,-85.82806461976082 L 129.99512032139504,-85.82746820029739 L 129.99754835523527,-85.8271080354756 L 130.00000000233229,-85.82698759375289 L 155.95599999742205,-85.82698759374686 L 155.95845164427658,-85.82710803542751 L 155.96087967812394,-85.82746820020171 L 155.96326071800345,-85.82806461961842 L 155.96557183319936,-85.82889154983259 L 155.9677907664092,-85.82994102705428 L 155.96989614809283,-85.831202944244 L 155.97186770227412,-85.83266514844962 L 155.97368644180833,-85.83431355784512 L 155.97533485123927,-85.8361322973468 L 155.97679705548356,-85.83810385149941 L 155.97805897271445,-85.84020923315819 L 155.9791084499797,-85.84242816634746 L 155.9799353802391,-85.844739281527 L 155.98053179970253,-85.84712032139478 L 155.98089196452437,-85.84954835523531 L 155.9810124062471,-85.8520000023321 L 155.98101240625311,-103.99199999742221 L 155.98089196457244,-103.99445164427678 L 155.9805317997983,-103.99687967812369 L 155.97993538038173,-103.99926071800282 L 155.97910845016747,-104.00157183319912 L 155.97805897294566,-104.00379076640928 L 155.97679705575604,-104.0058961480928 L 155.9753348515505,-104.00786770227396 L 155.97368644215487,-104.00968644180831 L 155.97186770265313,-104.01133485123934 L 155.96989614850054,-104.01279705548357 L 155.96779076684163,-104.01405897271455 L 155.9655718336524,-104.01510844997972 L 155.96326071847287,-104.01593538023916 L 155.96087967860495,-104.01653179970259 L 155.95845164476472,-104.01689196452438 L 155.9559999976677,-104.01701240624709 L 130.00000000257793,-104.01701240625312 L 129.9975483557234,-104.01689196457247 L 129.99512032187604,-104.01653179979827 L 129.99273928199653,-104.01593538038156 L 129.99042816680063,-104.01510845016739 L 129.9882092335908,-104.0140589729457 L 129.98610385190716,-104.01279705575598 L 129.98413229772586,-104.01133485155036 L 129.98231355819166,-104.00968644215486 L 129.98066514876072,-104.00786770265319 L 129.97920294451643,-104.00589614850057 L 129.97794102728554,-104.00379076684179 L 129.9768915500203,-104.00157183365252 L 129.97606461976088,-103.99926071847298 L 129.97546820029746,-103.9968796786052 L 129.9751080354756,-103.99445164476467 L 129.9749875937529,-103.99199999766788 L 129.97498759374687,-85.85200000245476 z M 130.02501251625313,-85.87701240625312 L 130.02501251134706,-85.87701240637352 L 130.02501251036688,-85.87701240642167 L 130.02501250059925,-85.8770124073837 L 130.02501249962853,-85.8770124075277 L 130.02501249000505,-85.87701240944192 L 130.0250124890531,-85.87701240968036 L 130.0250124796607,-85.87701241252951 L 130.0250124787367,-85.87701241286013 L 130.02501246967114,-85.87701241661522 L 130.025012468784,-85.87701241703479 L 130.0250124601292,-85.87701242166084 L 130.02501245928747,-85.87701242216535 L 130.0250124511269,-85.87701242761807 L 130.0250124503387,-85.87701242820266 L 130.02501244275328,-85.8770124344279 L 130.02501244202614,-85.87701243508694 L 130.02501243508763,-85.8770124420254 L 130.0250124344286,-85.87701244275253 L 130.02501242820148,-85.87701245034029 L 130.0250124276169,-85.87701245112852 L 130.0250124221654,-85.87701245928744 L 130.02501242166088,-85.87701246012918 L 130.02501241703538,-85.8770124687828 L 130.0250124166158,-85.87701246966992 L 130.0250124128597,-85.87701247873795 L 130.0250124125291,-85.87701247966194 L 130.02501240968084,-85.87701248905138 L 130.02501240944238,-85.87701249000332 L 130.02501240752744,-85.87701249963033 L 130.02501240738346,-85.87701250060107 L 130.02501240642187,-85.8770125103639 L 130.0250124063737,-85.87701251134406 L 130.02501240625313,-85.8770125162531 L 130.02501240625313,-103.96698748374688 L 130.0250124063737,-103.96698748865592 L 130.02501240642187,-103.96698748963608 L 130.02501240738346,-103.96698749939891 L 130.02501240752744,-103.96698750036965 L 130.02501240944238,-103.96698750999666 L 130.02501240968084,-103.9669875109486 L 130.0250124125291,-103.96698752033804 L 130.0250124128597,-103.96698752126203 L 130.0250124166158,-103.96698753033006 L 130.02501241703538,-103.96698753121719 L 130.02501242166088,-103.9669875398708 L 130.0250124221654,-103.96698754071254 L 130.0250124276169,-103.96698754887146 L 130.02501242820148,-103.96698754965969 L 130.0250124344286,-103.96698755724745 L 130.02501243508763,-103.96698755797458 L 130.02501244202614,-103.96698756491304 L 130.02501244275328,-103.96698756557208 L 130.0250124503387,-103.96698757179732 L 130.0250124511269,-103.96698757238191 L 130.02501245928747,-103.96698757783463 L 130.0250124601292,-103.96698757833914 L 130.025012468784,-103.96698758296519 L 130.02501246967114,-103.96698758338476 L 130.0250124787367,-103.96698758713985 L 130.0250124796607,-103.96698758747047 L 130.0250124890531,-103.96698759031962 L 130.02501249000505,-103.96698759055806 L 130.02501249962853,-103.96698759247228 L 130.02501250059925,-103.96698759261628 L 130.02501251036688,-103.96698759357831 L 130.02501251134706,-103.96698759362646 L 130.02501251625313,-103.96698759374686 L 155.93098748374686,-103.96698759374686 L 155.93098748865293,-103.96698759362646 L 155.9309874896331,-103.96698759357831 L 155.93098749940074,-103.96698759261628 L 155.93098750037146,-103.96698759247228 L 155.93098750999494,-103.96698759055806 L 155.9309875109469,-103.96698759031962 L 155.9309875203393,-103.96698758747047 L 155.9309875212633,-103.96698758713985 L 155.93098753032885,-103.96698758338476 L 155.93098753121598,-103.96698758296519 L 155.93098753987078,-103.96698757833914 L 155.93098754071252,-103.96698757783463 L 155.93098754887308,-103.96698757238191 L 155.9309875496613,-103.96698757179732 L 155.9309875572467,-103.96698756557208 L 155.93098755797385,-103.96698756491304 L 155.93098756491236,-103.96698755797458 L 155.9309875655714,-103.96698755724745 L 155.9309875717985,-103.96698754965969 L 155.9309875723831,-103.96698754887146 L 155.9309875778346,-103.96698754071254 L 155.9309875783391,-103.9669875398708 L 155.9309875829646,-103.96698753121719 L 155.9309875833842,-103.96698753033006 L 155.9309875871403,-103.96698752126203 L 155.9309875874709,-103.96698752033804 L 155.93098759031915,-103.9669875109486 L 155.9309875905576,-103.96698750999666 L 155.93098759247255,-103.96698750036965 L 155.93098759261653,-103.96698749939891 L 155.93098759357812,-103.96698748963608 L 155.9309875936263,-103.96698748865592 L 155.93098759374686,-103.96698748374688 L 155.93098759374686,-85.8770125162531 L 155.9309875936263,-85.87701251134406 L 155.93098759357812,-85.8770125103639 L 155.93098759261653,-85.87701250060107 L 155.93098759247255,-85.87701249963033 L 155.9309875905576,-85.87701249000332 L 155.93098759031915,-85.87701248905138 L 155.9309875874709,-85.87701247966194 L 155.9309875871403,-85.87701247873795 L 155.9309875833842,-85.87701246966992 L 155.9309875829646,-85.8770124687828 L 155.9309875783391,-85.87701246012918 L 155.9309875778346,-85.87701245928744 L 155.9309875723831,-85.87701245112852 L 155.9309875717985,-85.87701245034029 L 155.9309875655714,-85.87701244275253 L 155.93098756491236,-85.8770124420254 L 155.93098755797385,-85.87701243508694 L 155.9309875572467,-85.8770124344279 L 155.9309875496613,-85.87701242820266 L 155.93098754887308,-85.87701242761807 L 155.93098754071252,-85.87701242216535 L 155.93098753987078,-85.87701242166084 L 155.93098753121598,-85.87701241703479 L 155.93098753032885,-85.87701241661522 L 155.9309875212633,-85.87701241286013 L 155.9309875203393,-85.87701241252951 L 155.9309875109469,-85.87701240968036 L 155.93098750999494,-85.87701240944192 L 155.93098750037146,-85.8770124075277 L 155.93098749940074,-85.8770124073837 L 155.9309874896331,-85.87701240642167 L 155.93098748865293,-85.87701240637352 L 155.93098748374686,-85.87701240625312 L 130.02501251625313,-85.87701240625312 z" fill="#66cc99" fill-rule="evenodd" opacity="0.6" stroke="#555555" stroke-width="0.02"/>
			<path d="M 133.01034573359138,-87.24812487773752 L 133.01034573360602,-87.24812487418926 L 133.01034573359635,-87.24812487348 L 133.01034573348517,-87.24812486993555 L 133.01029558124662,-87.24710399766788 L 133.0102955812406,-86.53281900257777 L 133.01065690702973,-86.52546404705238 L 133.01173740428354,-86.51817992607758 L 133.0135266673555,-86.51103678738713 L 133.01600746466437,-86.50410342331085 L 133.01915590477577,-86.49744660593556 L 133.02294166648994,-86.49113044405229 L 133.02732829085252,-86.48521576575185 L 133.032273532273,-86.47975953261955 L 133.0377297653726,-86.4748142911638 L 133.04364444364455,-86.47042766676242 L 133.04996060550334,-86.46664190500681 L 133.05661742285758,-86.4634934648521 L 133.0635507869171,-86.46101266749808 L 133.07069392559632,-86.45922340437927 L 133.07797804656443,-86.4581429070778 L 133.08533299975497,-86.45778158137325 L 133.0926879529474,-86.45814290702971 L 133.09997207392266,-86.45922340428359 L 133.10711521261348,-86.46101266735567 L 133.11404857668936,-86.46349346466444 L 133.12070539406432,-86.46664190477571 L 133.12702155594772,-86.47042766649 L 133.1329362342483,-86.47481429085269 L 133.13839246738044,-86.47975953227301 L 133.1433377088362,-86.48521576537262 L 133.14772433323762,-86.49113044364458 L 133.15151009499297,-86.49744660550299 L 133.15465853514783,-86.50410342285745 L 133.15713933250186,-86.51103678691696 L 133.15892859562067,-86.51817992559607 L 133.1600090929222,-86.5254640465645 L 133.16037041875336,-86.5328190023321 L 133.16037041875938,-87.23492708540817 L 133.16037041890317,-87.23492709076912 L 133.16037041896064,-87.23492709183957 L 133.16037042010825,-87.23492710249768 L 133.16037042027997,-87.23492710355583 L 133.16037042256153,-87.23492711402874 L 133.16037042284552,-87.23492711506242 L 133.16037042440422,-87.23492712019323 L 133.19853716640998,-87.34942734621056 L 133.19853716797704,-87.34942735057207 L 133.1985371683106,-87.34942735143693 L 133.1985371720444,-87.34942735992364 L 133.19853717245664,-87.3494273607539 L 133.19853717695887,-87.34942736885576 L 133.19853717744618,-87.34942736964426 L 133.19853718268044,-87.3494273772961 L 133.1985371832387,-87.3494273780361 L 133.19853718915732,-87.34942738516837 L 133.1985371897817,-87.3494273858535 L 133.198537192983,-87.34942738920684 L 133.2687240053489,-87.41961493853499 L 133.26872400870215,-87.4196149417363 L 133.26872400938728,-87.41961494236068 L 133.26872401652113,-87.41961494828061 L 133.26872401726115,-87.41961494883887 L 133.2687240249114,-87.41961495407205 L 133.26872402569992,-87.41961495455939 L 133.26872403380264,-87.41961495906214 L 133.2687240346329,-87.41961495947437 L 133.26872404311746,-87.41961496320737 L 133.26872404398233,-87.41961496354095 L 133.26872404834597,-87.41961496510882 L 133.38322387980688,-87.45778157559579 L 133.38322388493805,-87.4577815771546 L 133.38322388597174,-87.4577815774386 L 133.3832238964454,-87.45778157972023 L 133.38322389750354,-87.45778157989194 L 133.38322390816188,-87.45778158103943 L 133.38322390923233,-87.45778158109688 L 133.38322391459195,-87.45778158124061 L 133.46628499742206,-87.45778158124061 L 133.4736399529474,-87.45814290702971 L 133.48092407392267,-87.45922340428359 L 133.4880672126135,-87.46101266735567 L 133.49500057668936,-87.46349346466444 L 133.50165739406432,-87.46664190477571 L 133.50797355594773,-87.47042766649 L 133.5138882342483,-87.47481429085269 L 133.51934446738045,-87.47975953227301 L 133.52428970883622,-87.48521576537262 L 133.52867633323763,-87.49113044364458 L 133.53246209499298,-87.49744660550299 L 133.53561053514784,-87.50410342285745 L 133.53809133250186,-87.51103678691696 L 133.53988059562067,-87.51817992559607 L 133.5409610929222,-87.5254640465645 L 133.54132241862675,-87.5328189997547 L 133.54096109297026,-87.5401739529476 L 133.53988059571645,-87.5474580739224 L 133.53809133264448,-87.55460121261285 L 133.53561053533562,-87.56153457668913 L 133.53246209522422,-87.56819139406441 L 133.52867633351005,-87.57450755594769 L 133.52428970914747,-87.58042223424813 L 133.519344467727,-87.58587846738043 L 133.5138882346274,-87.59082370883618 L 133.50797355635544,-87.59521033323756 L 133.50165739449665,-87.59899609499317 L 133.4950005771424,-87.60214453514787 L 133.4880672130829,-87.6046253325019 L 133.48092407440367,-87.6064145956207 L 133.47363995343557,-87.60749509292218 L 133.4662849976677,-87.60785641875334 L 133.37104700257794,-87.60785641875937 L 133.37002613006456,-87.60780626651481 L 133.3700261265181,-87.60780626640361 L 133.37002612580883,-87.60780626639396 L 133.37002612226257,-87.6078062664086 L 133.3690042656334,-87.60782860892091 L 133.3663504278277,-87.60762569088405 L 133.3663504264728,-87.6076256907897 L 133.36635042620108,-87.60762569077264 L 133.36635042483883,-87.6076256906964 L 133.3636920470526,-87.60749509297027 L 133.36268100840738,-87.60734511957871 L 133.36268100488917,-87.60734511912047 L 133.36268100418425,-87.60734511904134 L 133.36268100065337,-87.60734511870828 L 133.36166187459395,-87.60726719417067 L 133.35904070518833,-87.606805131647 L 133.35904070384615,-87.6068051314198 L 133.3590407035774,-87.60680513137619 L 133.3590407022322,-87.60680513116728 L 133.35640792607734,-87.60641459571639 L 133.35541645582256,-87.60616624537096 L 133.35541645236637,-87.60616624457009 L 133.35541645167262,-87.60616624442225 L 133.35541644819125,-87.6061662437447 L 133.3544098674426,-87.60598880261303 L 133.3518466097315,-87.60527204551728 L 133.35184660841858,-87.60527204515977 L 133.3518466081554,-87.60527204509002 L 133.35184660683663,-87.60527204475012 L 133.34926478738646,-87.60462533264428 L 133.3483024339227,-87.60428099709458 L 133.34830243056135,-87.60428099595872 L 133.34830242988542,-87.6042809957436 L 133.3483024264875,-87.60428099472814 L 133.34731808248762,-87.60400574516267 L 133.20446108714302,-87.55638674672085 L 133.2019802411322,-87.55542212564269 L 133.20198023985495,-87.55542212515608 L 133.20198023959992,-87.55542212506091 L 133.201980238327,-87.5554221245957 L 133.19947405935372,-87.55452538457854 L 133.1985502710352,-87.55408845933538 L 133.19855026780363,-87.55408845787645 L 133.198550267152,-87.55408845759607 L 133.19855026386725,-87.55408845625129 L 133.19759782492557,-87.5537181218247 L 133.1952234763419,-87.55251498130126 L 133.19522347512188,-87.55251498069345 L 133.19522347487742,-87.55251498057373 L 133.19522347365285,-87.55251497998434 L 133.19281725850826,-87.55137690951925 L 133.1919407446458,-87.55085154110125 L 133.19194074157144,-87.55085153933189 L 133.19194074095043,-87.550851538989 L 133.19194073781463,-87.55085153732946 L 133.19102918424858,-87.5503896308231 L 133.1887841971956,-87.5489595568917 L 133.18878419604155,-87.54895955616759 L 133.18878419581,-87.54895955602449 L 133.18878419464855,-87.54895955531754 L 133.18650111649976,-87.54759111464514 L 133.18568031840104,-87.54698236263741 L 133.18568031551334,-87.54698236057412 L 133.1856803149289,-87.54698236017201 L 133.18568031197248,-87.54698235821421 L 133.18481842254124,-87.54643332804038 L 133.18272441747192,-87.54479009309499 L 133.182724416397,-87.54479009226321 L 133.1827244161806,-87.5447900920981 L 133.18272441509143,-87.54479009127874 L 133.18058646122915,-87.54320445923076 L 133.17982928362866,-87.54251818624797 L 133.1798292809586,-87.54251818391285 L 133.1798292804164,-87.5425181834554 L 133.17982927766462,-87.54251818121597 L 133.1790253528337,-87.54188731483475 L 133.1771024961615,-87.54004674412614 L 133.17710249517378,-87.54004674319346 L 133.1771024949746,-87.54004674300792 L 133.17710249397052,-87.54004674208532 L 133.17513025214723,-87.5382591874322 L 133.07989225561477,-87.4430201909083 L 133.0781049857875,-87.44104822173644 L 133.07810498486592,-87.44104822073342 L 133.07810498468032,-87.44104822053417 L 133.07810498374593,-87.44104821954461 L 133.07626468548665,-87.43912564753688 L 133.0756335755712,-87.4383214124047 L 133.07563357333237,-87.43832140965362 L 133.07563357287498,-87.43832140911151 L 133.07563357053994,-87.43832140644149 L 133.0749470412488,-87.43756393010345 L 133.07336166576997,-87.43542627531124 L 133.07336166494892,-87.43542627421985 L 133.07336166478373,-87.43542627400336 L 133.07336166395305,-87.43542627292986 L 133.0717186722432,-87.43333257785918 L 133.07116943012258,-87.4324703557502 L 133.07116942816523,-87.43247035279445 L 133.0711694277632,-87.43247035221013 L 133.07116942570008,-87.43247034932257 L 133.07056044789925,-87.43164922880176 L 133.06919223324687,-87.42936647343151 L 133.06919223254013,-87.42936647227039 L 133.06919223239697,-87.42936647203874 L 133.0691922316721,-87.42936647088348 L 133.06776236941968,-87.42712181617735 L 133.06730028459538,-87.42620991076134 L 133.0673002829351,-87.42620990762421 L 133.06730028259224,-87.4262099070033 L 133.06730028082416,-87.42620990393118 L 133.06677471930345,-87.42533304706791 L 133.06563684213185,-87.4229271753008 L 133.06563684154082,-87.42292717407287 L 133.06563684142105,-87.42292717382831 L 133.06563684081445,-87.4229271726107 L 133.064433878375,-87.42055317552169 L 133.06406340097672,-87.41960036894683 L 133.06406339963297,-87.41960036566451 L 133.06406339935265,-87.41960036501297 L 133.06406339789314,-87.41960036177991 L 133.06362631409698,-87.41867621318467 L 133.0627297327855,-87.41617039488106 L 133.06272973231862,-87.41617039360366 L 133.0627297322234,-87.41617039334855 L 133.0627297317381,-87.41617039207479 L 133.06176525336238,-87.41368991308762 L 133.01414625490924,-87.27083291774713 L 133.0138710052718,-87.26984857351232 L 133.01387100425518,-87.26984857011075 L 133.01387100404003,-87.26984856943483 L 133.01387100290535,-87.26984856607712 L 133.01352666749813,-87.26888621308302 L 133.01287995524996,-87.26630439316378 L 133.0128799549123,-87.26630439185345 L 133.0128799548426,-87.26630439159028 L 133.01287995448283,-87.26630439026891 L 133.01216319749562,-87.26374113303544 L 133.01198575625529,-87.26273455180878 L 133.0119857555774,-87.26273454832591 L 133.01198575542955,-87.26273454763215 L 133.01198575462902,-87.26273454417743 L 133.01173740437932,-87.26174307440391 L 133.01134686883253,-87.25911029776688 L 133.01134686862267,-87.25911029641577 L 133.01134686857904,-87.25911029614703 L 133.0113468683528,-87.25911029481075 L 133.01088480589064,-87.25648912589271 L 133.0108068812917,-87.25546999934667 L 133.01080688095863,-87.25546999581556 L 133.0108068808795,-87.25546999511066 L 133.01080688042126,-87.25546999159268 L 133.0106569070778,-87.25445895343549 L 133.01052630930357,-87.25180057516117 L 133.01052630922769,-87.25180057380443 L 133.01052630921063,-87.2518005735327 L 133.01052630911593,-87.25180057217226 L 133.0103233910924,-87.24914673485647 L 133.01034573359138,-87.24812487773752 z" fill="#66cc99" fill-rule="evenodd" opacity="0.6" stroke="#555555" stroke-width="0.02"/>
			<path d="M 132.01034573359138,-86.81955387773753 L 132.01034573360602,-86.81955387418927 L 132.01034573359635,-86.81955387348 L 132.01034573348517,-86.81955386993556 L 132.01029558124662,-86.81853299766789 L 132.0102955812406,-86.72329500257777 L 132.01042617909937,-86.72063662196874 L 132.0104261791568,-86.72063662061139 L 132.01042617916647,-86.7206366203393 L 132.01042617920558,-86.72063661897583 L 132.01048435983233,-86.71797567116785 L 132.01060675425882,-86.71696092451751 L 132.01060675462102,-86.71696092098902 L 132.01060675468094,-86.71696092028222 L 132.01060675491783,-86.71696091674269 L 132.01065690702973,-86.71594004705238 L 132.01104744252876,-86.71330727040895 L 132.0110474427199,-86.71330726905688 L 132.01104744275617,-86.71330726878706 L 132.01104744292783,-86.71330726744087 L 132.01136616189365,-86.71066483552308 L 132.0115874295221,-86.70966697190771 L 132.011587430228,-86.70966696843418 L 132.0115874303569,-86.70966696773665 L 132.01158743094004,-86.70966696423493 L 132.01173740428354,-86.70865592607758 L 132.0123841164852,-86.70607410614573 L 132.01238411680666,-86.70607410482438 L 132.0123841168692,-86.7060741045594 L 132.01238411717327,-86.70607410323105 L 132.01296030504005,-86.70347563526751 L 132.0132783149427,-86.70250426465739 L 132.0132783159865,-86.70250426126691 L 132.01327831618315,-86.70250426058537 L 132.01327831710586,-86.70250425716053 L 132.0135266673555,-86.70151278738713 L 132.01442332806764,-86.69900678850475 L 132.01442332851732,-86.69900678722043 L 132.01442332860555,-86.69900678696287 L 132.01442332903807,-86.69900678567154 L 132.01525143680203,-86.6964773063278 L 132.01566312636956,-86.6955417835538 L 132.01566312774057,-86.69554178028213 L 132.01566312800307,-86.69554177962316 L 132.01566312925712,-86.69554177630506 L 132.01600746466437,-86.69457942331086 L 132.01714543855425,-86.69217337961686 L 132.01714543912948,-86.69217337837885 L 132.0171454392425,-86.69217337813117 L 132.0171454397977,-86.69217337689243 L 132.01821749336767,-86.68973724407603 L 132.06583649116655,-86.59449924846484 L 132.06633789676476,-86.59360858109648 L 132.06633789845037,-86.59360857797391 L 132.0663378987762,-86.59360857734383 L 132.0663379003489,-86.59360857416566 L 132.06677490477577,-86.59268460593557 L 132.06814323253226,-86.59040168894687 L 132.06814323322104,-86.59040168777987 L 132.06814323335783,-86.59040168754447 L 132.06814323403682,-86.59040168635744 L 132.06944890688223,-86.58808236606 L 132.0700351973891,-86.58724513574444 L 132.07003519937334,-86.58724513280112 L 132.07003519975933,-86.58724513220602 L 132.0700352016353,-86.58724512919832 L 132.07056066648994,-86.58636844405228 L 132.07214617036954,-86.58423063950603 L 132.0721461711731,-86.58423063840699 L 132.0721461713323,-86.58423063818613 L 132.07214617212063,-86.58423063707653 L 132.07367289093722,-86.58205046325912 L 132.07433842121642,-86.58127473095524 L 132.0743384234782,-86.58127472822234 L 132.0743384239207,-86.58127472766793 L 132.07433842608384,-86.58127472485684 L 132.07494729085252,-86.58045376575186 L 132.07673470158554,-86.57848166187536 L 132.0767347024911,-86.57848166086247 L 132.0767347026712,-86.57848166065827 L 132.07673470356633,-86.57848165962919 L 132.07846776521768,-86.57646162855691 L 132.0792061258487,-86.57575486499093 L 132.0792061283664,-86.57575486249395 L 132.0792061288611,-86.5757548619856 L 132.07920613129045,-86.575754859399 L 132.07989253400612,-86.57499753070736 L 132.12751153052992,-86.52737853417509 L 132.12826885939887,-86.52669213129056 L 132.12826886198548,-86.52669212886121 L 132.12826886249383,-86.5266921283665 L 132.12826886499082,-86.52669212584883 L 132.12897562820075,-86.52595376555496 L 132.13099565962887,-86.52422070356661 L 132.1309956606524,-86.52422070267635 L 132.1309956608566,-86.52422070249628 L 132.13099566187503,-86.52422070158583 L 132.1329677653727,-86.52243329116372 L 132.13378872485694,-86.52182442608381 L 132.13378872766899,-86.52182442391987 L 132.13378872822338,-86.52182442347737 L 132.13378873095533,-86.5218244212164 L 132.13456446287188,-86.52115889123779 L 132.136744637077,-86.51963217212032 L 132.1367446381866,-86.51963217133199 L 132.13674463840746,-86.5196321711728 L 132.1367446395065,-86.51963217036925 L 132.13888244364466,-86.51804666676236 L 132.1397591291982,-86.51752120163542 L 132.13975913220872,-86.51752119975761 L 132.13975913280382,-86.51752119937159 L 132.13975913574433,-86.51752119738919 L 132.14059636564522,-86.51693490714327 L 132.14291568635764,-86.51562923403667 L 132.1429156875385,-86.51562923336128 L 132.14291568777392,-86.5156292332245 L 132.14291568894708,-86.51562923253215 L 132.14519860550334,-86.51426090500682 L 132.14612257416564,-86.51382390034891 L 132.14612257734544,-86.51382389877536 L 132.1461225779755,-86.51382389844953 L 132.14612258109642,-86.51382389676476 L 132.1470132482482,-86.5133224912816 L 132.2422512438544,-86.46570349347174 L 132.24468737689273,-86.46463143979754 L 132.24468737813385,-86.46463143924127 L 132.24468737838154,-86.46463143912823 L 132.2446873796172,-86.46463143855406 L 132.24709342285757,-86.4634934648521 L 132.24805577630516,-86.46314912925706 L 132.24805577962394,-86.46314912800274 L 132.2480557802829,-86.46314912774024 L 132.24805578355387,-86.46314912636952 L 132.24899130586977,-86.4627374369773 L 132.25152078567135,-86.46190932903814 L 132.25152078695945,-86.46190932860671 L 132.25152078721703,-86.46190932851849 L 132.25152078850456,-86.46190932806769 L 132.25402678691708,-86.46101266749808 L 132.25501825716037,-86.4607643171059 L 132.25501826058573,-86.46076431618302 L 132.25501826126725,-86.46076431598637 L 132.25501826465722,-86.46076431494275 L 132.25598963479413,-86.4604463051697 L 132.25858810323115,-86.45987011717325 L 132.25858810455455,-86.45987011687035 L 132.25858810481952,-86.4598701168078 L 132.25858810614585,-86.45987011648519 L 132.2611699255963,-86.45922340437927 L 132.26218096423452,-86.45907343094011 L 132.2621809677343,-86.45907343035734 L 132.26218096843184,-86.45907343022843 L 132.2621809719073,-86.45907342952219 L 132.26317883504024,-86.4588521619761 L 132.2658212674415,-86.45853344292775 L 132.26582126879353,-86.45853344275532 L 132.26582126906334,-86.45853344271904 L 132.2658212704096,-86.45853344252869 L 132.26845404656444,-86.4581429070778 L 132.2694749167428,-86.45809275491781 L 132.26947492028216,-86.45809275468095 L 132.26947492098898,-86.45809275462103 L 132.26947492451762,-86.45809275425879 L 132.27048967067887,-86.45797035986713 L 132.2731506189755,-86.45791217920561 L 132.27315062033378,-86.45791217916667 L 132.27315062060586,-86.45791217915702 L 132.27315062196843,-86.4579121790994 L 132.27580900233227,-86.45778158124664 L 132.51390399742206,-86.45778158124061 L 132.51656237803155,-86.4579121790994 L 132.51656237939412,-86.45791217915702 L 132.5165623796662,-86.45791217916667 L 132.51656238102447,-86.45791217920561 L 132.51922332883214,-86.45797035983237 L 132.52023807548235,-86.45809275425879 L 132.520238079011,-86.45809275462103 L 132.5202380797178,-86.45809275468095 L 132.52023808325717,-86.45809275491781 L 132.5212589529474,-86.45814290702971 L 132.5238917295904,-86.45853344252869 L 132.52389173093664,-86.45853344271904 L 132.52389173120645,-86.45853344275532 L 132.52389173255847,-86.45853344292775 L 132.5265341644766,-86.45885216189359 L 132.52753202809268,-86.45907342952219 L 132.52753202811712,-86.45907342941194 L 132.52753203157008,-86.4590734302288 L 132.5275320322676,-86.45907343035769 L 132.52753203576546,-86.45907343094011 L 132.52854307392266,-86.45922340428359 L 132.53112489385416,-86.45987011648519 L 132.53112489518045,-86.4598701168078 L 132.53112489544543,-86.45987011687035 L 132.53112489676883,-86.45987011717325 L 132.5337233647328,-86.46044630504014 L 132.53469473534278,-86.46076431494275 L 132.53469473873272,-86.46076431598637 L 132.53469473941425,-86.46076431618302 L 132.5346947428396,-86.4607643171059 L 132.53568621261354,-86.4610126673557 L 132.5381922114954,-86.46190932806769 L 132.53819221278295,-86.46190932851849 L 132.53819221304053,-86.46190932860671 L 132.53819221432863,-86.46190932903814 L 132.54072169367262,-86.46273743680219 L 132.5416572164461,-86.46314912636952 L 132.54165721971708,-86.46314912774024 L 132.54165722037604,-86.46314912800274 L 132.5416572236948,-86.46314912925706 L 132.54261957668936,-86.46349346466444 L 132.54502562038277,-86.46463143855406 L 132.54502562161844,-86.46463143912823 L 132.54502562186613,-86.46463143924127 L 132.54502562310725,-86.46463143979754 L 132.54746175592416,-86.46570349336774 L 132.6426997515348,-86.51332249116636 L 132.64359041890356,-86.51382389676476 L 132.6435904220245,-86.51382389844953 L 132.64359042265454,-86.51382389877536 L 132.64359042583433,-86.51382390034891 L 132.64451439406432,-86.51426090477572 L 132.6467973110529,-86.51562923253215 L 132.64679731222606,-86.5156292332245 L 132.64679731246147,-86.51562923336128 L 132.64679731364234,-86.51562923403667 L 132.64911663394014,-86.51693490688227 L 132.64995386425568,-86.5175211973892 L 132.6499538671962,-86.5175211993716 L 132.64995386779128,-86.51752119975762 L 132.6499538708018,-86.51752120163545 L 132.65083055594772,-86.51804666649001 L 132.65296836049325,-86.51963217036908 L 132.6529683615923,-86.51963217117263 L 132.65296836181315,-86.51963217133182 L 132.65296836292276,-86.51963217212015 L 132.65514853674088,-86.52115889093724 L 132.6559242690448,-86.52182442121648 L 132.6559242717767,-86.52182442347745 L 132.6559242723311,-86.52182442391995 L 132.65592427514315,-86.52182442608391 L 132.6567452342483,-86.5224332908527 L 132.65871733812483,-86.52422070158573 L 132.65871733914327,-86.52422070249618 L 132.65871733934748,-86.52422070267625 L 132.658717340371,-86.52422070356651 L 132.66073737144308,-86.5259537652177 L 132.66144413500916,-86.52669212584883 L 132.66144413750615,-86.5266921283665 L 132.6614441380145,-86.52669212886121 L 132.6614441406011,-86.52669213129056 L 132.66220146929234,-86.52737853400586 L 132.7098204658252,-86.57499753053024 L 132.7147657088362,-86.58045376537262 L 132.71915233323762,-86.58636844364459 L 132.72293809499297,-86.592684605503 L 132.72608653514783,-86.59934142285746 L 132.72856733250185,-86.60627478691697 L 132.73035659562066,-86.61341792559608 L 132.7314370929222,-86.6207020465645 L 132.73179841862674,-86.6280569997547 L 132.73143709297025,-86.6354119529476 L 132.73035659571644,-86.64269607392241 L 132.72856733264447,-86.64983921261286 L 132.7260865353356,-86.65677257668914 L 132.7229380952242,-86.66342939406442 L 132.71915233351004,-86.6697455559477 L 132.71476570914746,-86.67566023424814 L 132.70982046772698,-86.68111646738043 L 132.70436423462738,-86.68606170883619 L 132.69844955635543,-86.69044833323757 L 132.69213339449664,-86.69423409499318 L 132.6854765771424,-86.69738253514788 L 132.6785432130829,-86.6998633325019 L 132.67140007440366,-86.70165259562071 L 132.66411595343556,-86.70273309292219 L 132.656761000245,-86.70309441862673 L 132.6494060470526,-86.70273309297028 L 132.64212192607732,-86.7016525957164 L 132.6349787873865,-86.69986333264431 L 132.62804542331062,-86.69738253533555 L 132.62138860593566,-86.69423409522427 L 132.61507244405226,-86.69044833350999 L 132.6091577657517,-86.6860617091473 L 132.60370153070764,-86.68111646599414 L 132.56469291123432,-86.64210784652931 L 132.56469290734333,-86.64210784284154 L 132.5646929065458,-86.64210784212524 L 132.56469289819663,-86.64210783539912 L 132.56469289732698,-86.64210783477232 L 132.56469288830706,-86.64210782897949 L 132.56469288737532,-86.64210782844938 L 132.56469288264606,-86.64210782592407 L 132.49619009154267,-86.60785643037237 L 132.49619008734922,-86.60785642839579 L 132.4961900865018,-86.60785642802011 L 132.49619007786282,-86.60785642466021 L 132.49619007698425,-86.60785642436461 L 132.49619006806984,-86.60785642181872 L 132.49619006716767,-86.60785642160576 L 132.49619005805837,-86.60785641989673 L 132.49619005714038,-86.60785641976821 L 132.49619004790952,-86.60785641890976 L 132.49619004698354,-86.6078564188668 L 132.49619004234918,-86.60785641875937 L 132.2935229576508,-86.60785641875937 L 132.29352295301643,-86.6078564188668 L 132.29352295209046,-86.60785641890976 L 132.2935229428596,-86.60785641976821 L 132.2935229419416,-86.60785641989673 L 132.2935229328323,-86.60785642160576 L 132.29352293193014,-86.60785642181872 L 132.29352292301573,-86.60785642436461 L 132.29352292213716,-86.60785642466021 L 132.29352291349818,-86.60785642802011 L 132.29352291265076,-86.60785642839579 L 132.2935229084573,-86.60785643037237 L 132.22502011735392,-86.64210782592407 L 132.22502011262466,-86.64210782844938 L 132.2250201116929,-86.64210782897949 L 132.225020102673,-86.64210783477232 L 132.22502010180335,-86.64210783539912 L 132.2250200934542,-86.64210784212524 L 132.22502009265665,-86.64210784284154 L 132.22502008876566,-86.64210784652931 L 132.19462184652934,-86.67250608876564 L 132.19462184284092,-86.67250609265739 L 132.19462184212463,-86.67250609345493 L 132.1946218353998,-86.67250610180247 L 132.194621834773,-86.67250610267212 L 132.19462182898042,-86.67250611169132 L 132.1946218284503,-86.67250611262305 L 132.1946218259241,-86.67250611735389 L 132.16037043037238,-86.74100890845727 L 132.16037042839557,-86.7410089126513 L 132.1603704280199,-86.74100891349873 L 132.16037042465993,-86.74100892213804 L 132.16037042436434,-86.7410089230166 L 132.16037042181867,-86.74100893193047 L 132.1603704216057,-86.74100893283264 L 132.16037041989674,-86.74100894194181 L 132.1603704197682,-86.74100894285982 L 132.16037041890988,-86.74100895208885 L 132.1603704188669,-86.74100895301481 L 132.16037041875938,-86.74100895765078 L 132.16037041875938,-86.80635608540818 L 132.16037041890317,-86.80635609076913 L 132.16037041896064,-86.80635609183958 L 132.16037042010825,-86.80635610249769 L 132.16037042027997,-86.80635610355584 L 132.16037042256153,-86.80635611402874 L 132.16037042284552,-86.80635611506243 L 132.16037042440422,-86.80635612019324 L 132.19853711161053,-86.92085618181221 L 132.1985371131776,-86.92085618617372 L 132.19853711351115,-86.92085618703858 L 132.19853711724497,-86.92085619552529 L 132.1985371176572,-86.92085619635554 L 132.19853712215993,-86.92085620445825 L 132.19853712264728,-86.92085620524678 L 132.19853712788102,-86.92085621289777 L 132.19853712843928,-86.92085621363778 L 132.1985371343579,-86.92085622077005 L 132.19853713498227,-86.92085622145518 L 132.1985371381839,-86.92085622480883 L 132.75743951225192,-87.479759576957 L 132.7599120950983,-87.48248765651712 L 132.76238470886102,-87.4852157654 L 132.76238472540584,-87.48521578767374 L 132.76238472838253,-87.48521579148506 L 132.7623847290051,-87.48521579224365 L 132.76238473221005,-87.48521579595904 L 132.762384750489,-87.48521581612675 L 132.76457803300423,-87.48817312062445 L 132.76677133325947,-87.49113044367405 L 132.7667713475413,-87.49113046746203 L 132.7667713501283,-87.49113047154405 L 132.76677135067348,-87.49113047236001 L 132.7667713535006,-87.49113047637431 L 132.76677136971503,-87.49113049823698 L 132.7686642386171,-87.49428856542923 L 132.7705570950121,-87.49744660553488 L 132.77055710689348,-87.49744663060807 L 132.77055710906822,-87.4974466349246 L 132.7705571095308,-87.49744663579007 L 132.7705571119505,-87.4974466400615 L 132.77055712594407,-87.49744666340838 L 132.77213133435566,-87.50077505492733 L 132.77370553516369,-87.50410342289099 L 132.77370554453017,-87.5041034490078 L 132.77370554627132,-87.50410345351668 L 132.77370554664685,-87.50410345442333 L 132.77370554863623,-87.5041034589114 L 132.7737055602739,-87.50410348351727 L 132.7749459455385,-87.507570137589 L 132.7761863325143,-87.51103678695175 L 132.776186339276,-87.51103681386162 L 132.7761863405671,-87.51103681852037 L 132.77618634085198,-87.51103681945946 L 132.7761863423916,-87.51103682412004 L 132.77618635156122,-87.5110368497474 L 132.77708096684938,-87.51460836733776 L 132.77797559562964,-87.51817992563191 L 132.7779755997212,-87.51817995307535 L 132.77797560054992,-87.51817995784059 L 132.7779756007414,-87.51817995880309 L 132.7779756018163,-87.51817996358969 L 132.77797560842976,-87.51817998999219 L 132.77851584609607,-87.52182199829907 L 132.77905609292762,-87.52546404660097 L 132.77905609430948,-87.52546407431248 L 132.77905609466683,-87.52546407913283 L 132.779056094763,-87.52546408010944 L 132.7790560953639,-87.52546408498154 L 132.77905609935775,-87.52546411190616 L 132.77923675716028,-87.52914155112302 L 132.77941741862855,-87.53281899979173 L 132.77941741728756,-87.53281902750513 L 132.7794174171707,-87.53281903233822 L 132.7794174171707,-87.53281903331958 L 132.77941741729114,-87.53281903822631 L 132.7794174186267,-87.5328190654124 L 132.7792367538889,-87.5364965154667 L 132.77905609296843,-87.54017395298452 L 132.77905608891754,-87.54017398043297 L 132.77905608832742,-87.54017398523222 L 132.77905608823124,-87.54017398620883 L 132.77905608787026,-87.54017399110275 L 132.77905608653464,-87.54017401828898 L 132.77851584335212,-87.54381602019943 L 132.777975595711,-87.54745807395902 L 132.7779755889891,-87.54745810087863 L 132.77797558793213,-87.5474581055934 L 132.77797558774066,-87.5474581065559 L 132.77797558690102,-87.54745811139438 L 132.77797558290703,-87.54745813831951 L 132.77708095842794,-87.55102966628246 L 132.7761863326355,-87.55460121264875 L 132.7761863233072,-87.5546012387804 L 132.77618632179255,-87.55460124337102 L 132.77618632150768,-87.5546012443101 L 132.77618632019852,-87.55460124904079 L 132.77618631358496,-87.55460127544345 L 132.77494592380262,-87.5580679231587 L 132.77370553532313,-87.56153457672401 L 132.77370552347867,-87.56153460181494 L 132.77370552152098,-87.56153460623582 L 132.77370552114544,-87.56153460714246 L 132.77370551937923,-87.56153461172124 L 132.7737055102094,-87.56153463734917 L 132.77213130007917,-87.56486301754421 L 132.77055709520846,-87.5681913940977 L 132.77055708096185,-87.56819141790653 L 132.7705570785812,-87.56819142211253 L 132.77055707811857,-87.568191422978 L 132.77055707591106,-87.56819142736347 L 132.7705570642734,-87.56819145196924 L 132.76866420769744,-87.57134948615709 L 132.76677133349108,-87.57450755597931 L 132.76677131697897,-87.57450757827768 L 132.76677131419572,-87.57450758223278 L 132.76677131365054,-87.57450758304874 L 132.76677131102568,-87.5745075871939 L 132.76677129703253,-87.57450761053998 L 132.76457802367773,-87.5774648919509 L 132.76238470912548,-87.58042223427775 L 132.76238469050736,-87.58042225485016 L 132.7623846873505,-87.58042225851261 L 132.76238468672796,-87.5804222592712 L 132.76238468370877,-87.58042226313994 L 132.76238466749467,-87.58042228500206 L 132.75991208038585,-87.58315035971549 L 132.75743946770223,-87.58587846740772 L 132.75743944715754,-87.58587848605595 L 132.75743944365735,-87.58587848939086 L 132.75743944296343,-87.58587849008478 L 132.75743943957906,-87.58587849363951 L 132.75743942129995,-87.58587851380739 L 132.75471133498382,-87.58835110280131 L 132.75198323459983,-87.59082370886114 L 132.75198321232648,-87.59082372540567 L 132.75198320851675,-87.59082372838107 L 132.75198320775814,-87.59082372900363 L 132.75198320404124,-87.59082373220981 L 132.75198318387305,-87.59082375048914 L 132.74902586636577,-87.5930170426529 L 132.7460685563257,-87.59521033325962 L 132.7460685325379,-87.59521034754133 L 132.7460685284539,-87.59521035012962 L 132.74606852763793,-87.59521035067483 L 132.74606852362564,-87.59521035350062 L 132.74606850176315,-87.5952103697149 L 132.74291044175112,-87.59710323431334 L 132.7397523944649,-87.59899609501221 L 132.73975236939188,-87.59899610689348 L 132.7397523650741,-87.59899610906885 L 132.73975236420864,-87.59899610953146 L 132.7397523599383,-87.59899611195058 L 132.73975233659192,-87.59899612594386 L 132.73642396426317,-87.60057032527924 L 132.73309557710897,-87.60214453516369 L 132.7330955509918,-87.6021445445303 L 132.73309554648068,-87.60214454627238 L 132.73309554557406,-87.60214454664793 L 132.73309554108823,-87.60214454863639 L 132.7330955164827,-87.6021445602739 L 132.72962887271402,-87.60338494185203 L 132.72616221304807,-87.60462533251436 L 132.7261621861385,-87.60462533927596 L 132.72616218147928,-87.6046253405672 L 132.7261621805402,-87.60462534085207 L 132.7261621758801,-87.60462534239156 L 132.7261621502521,-87.60462535156138 L 132.72259061165317,-87.60551997211185 L 132.71901907436776,-87.60641459562969 L 132.7190190469252,-87.6064145997211 L 132.71901904216267,-87.60641460054929 L 132.71901904120017,-87.60641460074073 L 132.71901903641083,-87.6064146018162 L 132.71901901000751,-87.60641460842986 L 132.71537697904253,-87.60695484945713 L 132.71173495339892,-87.6074950929276 L 132.7117349256875,-87.60749509430948 L 132.71173492086587,-87.60749509466694 L 132.71173491988924,-87.60749509476314 L 132.7117349150184,-87.6074950953639 L 132.71173488809393,-87.60749509935775 L 132.7080574407758,-87.60767575755824 L 132.7043799976677,-87.60785641875334 L 132.08533300257793,-87.60785641875937 L 132.0779780470526,-87.60749509297027 L 132.07069392607733,-87.60641459571639 L 132.0635507873865,-87.6046253326443 L 132.05661742331063,-87.60214453533554 L 132.04996060593567,-87.59899609522427 L 132.04364444405226,-87.59521033350998 L 132.0377297657517,-87.59082370914729 L 132.03227353261954,-87.58587846772697 L 132.02732829116377,-87.58042223462736 L 132.02294166676236,-87.5745075563554 L 132.019155905007,-87.56819139449699 L 132.01600746485215,-87.56153457714252 L 132.01352666749813,-87.55460121308302 L 132.01173740437932,-87.5474580744039 L 132.0106569070778,-87.54017395343548 L 132.01029558137324,-87.53281900024528 L 132.01065690702973,-87.52546404705238 L 132.01173740428354,-87.51817992607758 L 132.0135266673555,-87.51103678738713 L 132.01600746466437,-87.50410342331085 L 132.01915590477577,-87.49744660593556 L 132.02294166648994,-87.49113044405229 L 132.02732829085252,-87.48521576575185 L 132.032273532273,-87.47975953261955 L 132.0377297653726,-87.4748142911638 L 132.04364444364455,-87.47042766676242 L 132.04996060550334,-87.46664190500681 L 132.05661742285758,-87.4634934648521 L 132.0635507869171,-87.46101266749808 L 132.07069392559632,-87.45922340437927 L 132.07797804656443,-87.4581429070778 L 132.08533300233228,-87.45778158124664 L 132.52322360455182,-87.45778158124061 L 132.5232236094579,-87.4577815811202 L 132.52322361043807,-87.45778158107206 L 132.5232236202057,-87.45778158011002 L 132.5232236211764,-87.45778157996602 L 132.5232236307999,-87.45778157805181 L 132.52322363175185,-87.45778157781336 L 132.52322364114426,-87.45778157496422 L 132.52322364206825,-87.4577815746336 L 132.5232236511338,-87.45778157087851 L 132.52322365202093,-87.45778157045893 L 132.52322366067574,-87.45778156583289 L 132.52322366151748,-87.45778156532837 L 132.52322366967803,-87.45778155987566 L 132.52322367046625,-87.45778155929106 L 132.52322367805166,-87.45778155306583 L 132.5232236787788,-87.45778155240679 L 132.5232236857173,-87.45778154546832 L 132.52322368637635,-87.4577815447412 L 132.52322369260347,-87.45778153715344 L 132.52322369318804,-87.4577815363652 L 132.52322369863955,-87.45778152820628 L 132.52322369914407,-87.45778152736455 L 132.52322370376956,-87.45778151871093 L 132.52322370418915,-87.4577815178238 L 132.52322370794525,-87.45778150875577 L 132.52322370827585,-87.45778150783178 L 132.5232237111241,-87.45778149844234 L 132.52322371136256,-87.4577814974904 L 132.5232237132775,-87.4577814878634 L 132.5232237134215,-87.45778148689266 L 132.52322371438308,-87.45778147712983 L 132.52322371443125,-87.45778147614966 L 132.52322371443125,-87.45778146633158 L 132.52322371438308,-87.45778146535142 L 132.5232237134215,-87.45778145558859 L 132.5232237132775,-87.45778145461784 L 132.52322371136256,-87.45778144499084 L 132.5232237111241,-87.4577814440389 L 132.52322370827585,-87.45778143464946 L 132.52322370794525,-87.45778143372547 L 132.52322370418915,-87.45778142465744 L 132.52322370376956,-87.45778142377031 L 132.52322369914407,-87.4577814151167 L 132.52322369863955,-87.45778141427496 L 132.52322369318804,-87.45778140611604 L 132.52322369260347,-87.45778140532781 L 132.52322368637635,-87.45778139774005 L 132.5232236857173,-87.45778139701292 L 132.52322368233362,-87.45778139345894 L 132.07989248774805,-87.01444942304299 L 132.07810509917374,-87.01247734019181 L 132.0781050982528,-87.01247733918949 L 132.07810509806723,-87.01247733899027 L 132.0781050971325,-87.01247733800032 L 132.07626468548665,-87.01055464753688 L 132.07563367690977,-87.00975054154235 L 132.07563367467066,-87.00975053879091 L 132.07563367421324,-87.00975053824877 L 132.0756336718782,-87.00975053557879 L 132.07494724951113,-87.00899318387339 L 132.07336176699943,-87.00685540430982 L 132.07336176617792,-87.00685540321781 L 132.07336176601277,-87.00685540300137 L 132.0733617651828,-87.00685540192882 L 132.07171867224324,-87.00476157785918 L 132.07116951831551,-87.00389949419896 L 132.07116951635822,-87.0038994912433 L 132.07116951595617,-87.00389949065894 L 132.07116951389273,-87.00389948777095 L 132.07056063028503,-87.00307850176311 L 132.06919232134462,-87.0007956117308 L 132.0691923206338,-87.00079561056303 L 132.06919232049063,-87.00079561033142 L 132.06919231977008,-87.00079560918317 L 132.06776236941968,-86.99855081617736 L 132.0673003587934,-86.99763905718811 L 132.0673003571345,-86.99763905405352 L 132.06730035679166,-86.99763905343256 L 132.06730035502196,-86.99763905035753 L 132.0667748740559,-86.9967623365916 L 132.06563691624999,-86.99435632156988 L 132.06563691566024,-86.99435632034458 L 132.0656369155405,-86.99435632010007 L 132.06563691493278,-86.99435631888022 L 132.064433878375,-86.99198217552168 L 132.064063460465,-86.99102952194083 L 132.06406345912075,-86.9910295186573 L 132.0640634588404,-86.99102951800572 L 132.06406345738122,-86.99102951477347 L 132.06362643972608,-86.99010551648276 L 132.06272979220998,-86.987599547711 L 132.06272979174474,-86.98759954643805 L 132.06272979164956,-86.98759954618298 L 132.06272979116275,-86.98759954490518 L 132.06176525336238,-86.98511891308762 L 132.01414625490924,-86.84226191774714 L 132.0138710052718,-86.84127757351233 L 132.01387100425518,-86.84127757011076 L 132.01387100404003,-86.84127756943484 L 132.01387100290535,-86.84127756607712 L 132.01352666749813,-86.84031521308303 L 132.01287995524996,-86.83773339316379 L 132.0128799549123,-86.83773339185346 L 132.0128799548426,-86.83773339159029 L 132.01287995448283,-86.83773339026892 L 132.01216319749562,-86.83517013303545 L 132.01198575625529,-86.83416355180877 L 132.0119857555774,-86.8341635483259 L 132.01198575542955,-86.83416354763214 L 132.01198575462902,-86.83416354417743 L 132.01173740437932,-86.83317207440392 L 132.01134686883256,-86.83053929776695 L 132.0113468686227,-86.83053929641584 L 132.01134686857907,-86.8305392961471 L 132.01134686835283,-86.83053929481082 L 132.01088480589064,-86.82791812589274 L 132.0108068812917,-86.82689899934668 L 132.01080688095863,-86.82689899581557 L 132.0108068808795,-86.82689899511067 L 132.01080688042126,-86.82689899159269 L 132.0106569070778,-86.8258879534355 L 132.01052630930357,-86.82322957516119 L 132.01052630922769,-86.82322957380445 L 132.01052630921063,-86.82322957353273 L 132.01052630911593,-86.82322957217228 L 132.0103233910924,-86.82057573485648 L 132.01034573359138,-86.81955387773753 z" fill="#66cc99" fill-rule="evenodd" opacity="0.6" stroke="#555555" stroke-width="0.02"/>
		</g>
	</g>
	 
</svg>
