<?xml version="1.0" ?>
<svg height="18.19002481200002mm" version="1.1" viewBox="129.974987594 -122.20703721800002 26.006024811999993 18.19002481200002" width="26.006024811999993mm" xmlns="http://www.w3.org/2000/svg" xmlns:xlink="http://www.w3.org/1999/xlink">
	<g transform="scale(1,-1)">
		<g>
			<path d="M 131.9060930816758,-94.5713145597003 L 131.90200010013265,-94.488 L 131.90609308162647,-94.40468544130411 L 131.91833261038025,-94.32217324403359 L 131.9386008089991,-94.24125805952403 L 131.93860080956983,-94.24125805805788 L 131.96670248991478,-94.16271912068343 L 132.00236701533,-94.08731281726115 L 132.04525091148332,-94.01576536000263 L 132.094941191712,-93.94876577243603 L 132.15095930687554,-93.88695930687554 L 132.21276577123132,-93.83094119280388 L 132.27976535964225,-93.7812509117506 L 132.35131281717466,-93.73836701537091 L 132.42671911703889,-93.70270249121884 L 132.50525805343236,-93.6746008112249 L 132.5861732440337,-93.65433261038024 L 132.66868544029973,-93.6420930816758 L 132.752,-93.63800010013266 L 132.83531455869576,-93.64209308162644 L 132.9178267559662,-93.65433261038021 L 132.9987419404058,-93.67460080898157 L 132.9987419419421,-93.67460080956985 L 133.07728087931656,-93.70270248991481 L 133.15268717852788,-93.73836701333838 L 133.22423463999763,-93.78125091148353 L 133.29123422756396,-93.83094119171199 L 133.35304069312446,-93.88695930687554 L 133.40905880719626,-93.94876577123148 L 133.45874908824933,-94.01576535964213 L 133.50163298462894,-94.08731281717438 L 133.5372975087812,-94.16271911703899 L 133.56539919034432,-94.24125805781803 L 133.58566738961974,-94.32217324403359 L 133.5979069183242,-94.4046854402997 L 133.60199989986737,-94.488 L 133.59790691837355,-94.57131455869589 L 133.58566738961974,-94.6538267559664 L 133.5653991910009,-94.73474194047597 L 133.56539919043016,-94.73474194194212 L 133.5372975100852,-94.81328087931657 L 133.50163298466998,-94.88868718273885 L 133.45874908851647,-94.96023463999764 L 133.40905880828817,-95.02723422756378 L 133.35304069312446,-95.08904069312446 L 133.29123422876867,-95.14505880719612 L 133.2242346424188,-95.1947490867208 L 133.15268718282533,-95.23763298462909 L 133.07728088296113,-95.27329750878114 L 132.9987419421819,-95.30139919034436 L 132.9178267559662,-95.32166738961979 L 132.8353145597003,-95.3339069183242 L 132.752,-95.33799989986734 L 132.66868544130423,-95.33390691837356 L 132.5861732440337,-95.32166738961976 L 132.50525805952392,-95.30139919100083 L 132.5052580580579,-95.30139919043016 L 132.42671912068346,-95.27329751008519 L 132.3513128214721,-95.23763298666162 L 132.27976536000222,-95.19474908851635 L 132.21276577243592,-95.14505880828789 L 132.15095930687554,-95.08904069312446 L 132.09494119280373,-95.02723422876852 L 132.04525091327938,-94.96023464241904 L 132.00236701537102,-94.88868718282555 L 131.9667024912188,-94.81328088296101 L 131.93860080965567,-94.73474194218197 L 131.91833261038025,-94.6538267559664 L 131.9060930816758,-94.5713145597003 z" fill="#66cc99" fill-rule="evenodd" opacity="0.6" stroke="#555555" stroke-width="0.02"/>
			<path d="M 153.1960835356758,-94.2270538477003 L 153.19500010000002,-94.2049999972997 L 153.19500010000002,-93.7550000027003 L 153.19608353562646,-93.73294615330411 L 153.19932341038026,-93.71110469603363 L 153.2046885179991,-93.68968598352403 L 153.20468851856984,-93.68968598205788 L 153.21212719791478,-93.66889626668343 L 153.22156780633,-93.64893577726116 L 153.23291941848348,-93.62999675600243 L 153.24607272471184,-93.61226157543621 L 153.26090104487554,-93.59590104487555 L 153.27726157423132,-93.58107272580388 L 153.2949967535811,-93.56791942027927 L 153.31393577717478,-93.55656780637086 L 153.33389626303887,-93.54712719921885 L 153.35468597743235,-93.5396885202249 L 153.37610469603382,-93.53432341038021 L 153.3979461522997,-93.53108353567579 L 153.42000000270053,-93.53000009999998 L 153.91999999729944,-93.53000009999998 L 153.94205384669573,-93.53108353562644 L 153.96389530396627,-93.53432341038022 L 153.9853140164058,-93.53968851798155 L 153.9853140179421,-93.53968851856985 L 154.00610373331656,-93.5471271979148 L 154.02606421852792,-93.55656780433837 L 154.04500324399763,-93.56791941848353 L 154.0627384245641,-93.58107272471212 L 154.07909895512446,-93.59590104487555 L 154.09392727419626,-93.61226157423148 L 154.1070805797207,-93.62999675358104 L 154.11843219362896,-93.64893577717439 L 154.12787280078118,-93.66889626303899 L 154.13531148134433,-93.68968598181803 L 154.14067658961974,-93.71110469603363 L 154.1439164643242,-93.7329461522997 L 154.1449999,-93.7550000027003 L 154.1449999,-94.2049999972997 L 154.14391646437355,-94.2270538466959 L 154.14067658961974,-94.2488953039664 L 154.1353114820009,-94.27031401647596 L 154.13531148143016,-94.27031401794211 L 154.1278728020852,-94.29110373331656 L 154.11843219367,-94.31106422273885 L 154.10708058151647,-94.33000324399764 L 154.09392727528817,-94.3477384245638 L 154.07909895512446,-94.36409895512446 L 154.06273842576869,-94.37892727419613 L 154.0450032464189,-94.39208057972074 L 154.02606422282523,-94.40343219362913 L 154.00610373696114,-94.41287280078114 L 153.98531402256765,-94.4203114797751 L 153.96389530396618,-94.4256765896198 L 153.9420538477003,-94.4289164643242 L 153.91999999729944,-94.42999990000001 L 153.42000000270053,-94.42999990000001 L 153.39794615330428,-94.42891646437356 L 153.37610469603374,-94.42567658961978 L 153.3546859835942,-94.42031148201845 L 153.3546859820579,-94.42031148143015 L 153.33389626668344,-94.41287280208519 L 153.31393578147208,-94.40343219566162 L 153.29499675600238,-94.39208058151648 L 153.27726157543592,-94.3789272752879 L 153.26090104487554,-94.36409895512446 L 153.24607272580374,-94.34773842576853 L 153.23291941875067,-94.33000324435787 L 153.22156780637104,-94.31106422282562 L 153.2121271992188,-94.291103736961 L 153.20468851865567,-94.27031401818196 L 153.19932341038026,-94.2488953039664 L 153.1960835356758,-94.2270538477003 z" fill="#66cc99" fill-rule="evenodd" opacity="0.6" stroke="#555555" stroke-width="0.02"/>
			<path d="M 153.1960835356758,-92.67705384770028 L 153.19500010000002,-92.6549999972997 L 153.19500010000002,-92.2050000027003 L 153.19608353562646,-92.1829461533041 L 153.19932341038026,-92.16110469603359 L 153.2046885179991,-92.13968598352403 L 153.20468851856984,-92.13968598205788 L 153.21212719791478,-92.11889626668344 L 153.22156780633,-92.09893577726115 L 153.23291941848353,-92.07999675600236 L 153.2460727247118,-92.06226157543624 L 153.26090104487554,-92.04590104487554 L 153.27726157423132,-92.03107272580387 L 153.2949967535811,-92.01791942027926 L 153.31393577717478,-92.00656780637087 L 153.33389626303887,-91.99712719921885 L 153.35468597743235,-91.9896885202249 L 153.37610469603382,-91.98432341038021 L 153.3979461522997,-91.9810835356758 L 153.42000000270053,-91.98000009999998 L 153.91999999729944,-91.98000009999998 L 153.94205384669573,-91.98108353562644 L 153.96389530396627,-91.98432341038023 L 153.9853140164058,-91.98968851798155 L 153.9853140179421,-91.98968851856985 L 154.00610373331656,-91.9971271979148 L 154.02606421852792,-92.00656780433837 L 154.04500324399768,-92.01791941848356 L 154.06273842456423,-92.03107272471222 L 154.07909895512446,-92.04590104487554 L 154.09392727419626,-92.06226157423148 L 154.10708058124933,-92.07999675564213 L 154.118432193629,-92.09893577717445 L 154.12787280078118,-92.11889626303899 L 154.13531148134433,-92.13968598181803 L 154.14067658961974,-92.16110469603359 L 154.1439164643242,-92.18294615229972 L 154.1449999,-92.2050000027003 L 154.1449999,-92.6549999972997 L 154.14391646437355,-92.6770538466959 L 154.14067658961974,-92.69889530396641 L 154.1353114820009,-92.72031401647597 L 154.13531148143016,-92.72031401794212 L 154.1278728020852,-92.74110373331656 L 154.11843219367,-92.76106422273885 L 154.10708058151647,-92.78000324399764 L 154.0939272752882,-92.79773842456376 L 154.07909895512446,-92.81409895512446 L 154.06273842576869,-92.82892727419613 L 154.0450032464189,-92.84208057972074 L 154.02606422282523,-92.85343219362913 L 154.00610373696114,-92.86287280078115 L 153.98531402256765,-92.8703114797751 L 153.96389530396618,-92.8756765896198 L 153.9420538477003,-92.8789164643242 L 153.91999999729944,-92.87999990000002 L 153.42000000270053,-92.87999990000002 L 153.39794615330428,-92.87891646437356 L 153.37610469603374,-92.87567658961979 L 153.3546859835942,-92.87031148201845 L 153.3546859820579,-92.87031148143015 L 153.33389626668344,-92.86287280208519 L 153.31393578147208,-92.85343219566163 L 153.29499675600232,-92.84208058151644 L 153.27726157543577,-92.82892727528778 L 153.26090104487554,-92.81409895512446 L 153.24607272580374,-92.79773842576851 L 153.23291941875067,-92.78000324435787 L 153.221567806371,-92.76106422282555 L 153.2121271992188,-92.74110373696101 L 153.20468851865567,-92.72031401818197 L 153.19932341038026,-92.69889530396641 L 153.1960835356758,-92.67705384770028 z" fill="#66cc99" fill-rule="evenodd" opacity="0.6" stroke="#555555" stroke-width="0.02"/>
			<path d="M 131.9060930816758,-92.0313145597003 L 131.90200010013265,-91.948 L 131.90609308162647,-91.8646854413041 L 131.91833261038022,-91.78217324403366 L 131.9386008089991,-91.70125805952404 L 131.93860080956983,-91.70125805805789 L 131.96670248991478,-91.62271912068344 L 132.00236701533,-91.54731281726116 L 132.04525091148335,-91.47576536000261 L 132.094941191712,-91.40876577243603 L 132.15095930687554,-91.34695930687555 L 132.21276577123132,-91.29094119280387 L 132.27976535964225,-91.2412509117506 L 132.35131281717466,-91.1983670153709 L 132.42671911703889,-91.16270249121884 L 132.50525805343236,-91.1346008112249 L 132.5861732440337,-91.11433261038023 L 132.66868544029973,-91.10209308167579 L 132.752,-91.09800010013267 L 132.83531455869576,-91.10209308162644 L 132.9178267559662,-91.1143326103802 L 132.9987419404058,-91.13460080898156 L 132.9987419419421,-91.13460080956985 L 133.07728087931656,-91.1627024899148 L 133.15268717852788,-91.19836701333837 L 133.22423463999763,-91.24125091148352 L 133.29123422756396,-91.29094119171198 L 133.35304069312446,-91.34695930687555 L 133.40905880719626,-91.40876577123147 L 133.45874908672064,-91.47576535758097 L 133.50163298462897,-91.54731281717446 L 133.5372975087812,-91.622719117039 L 133.56539919034432,-91.70125805781804 L 133.58566738961977,-91.78217324403366 L 133.5979069183242,-91.8646854402997 L 133.60199989986737,-91.948 L 133.59790691837355,-92.0313145586959 L 133.58566738961977,-92.11382675596634 L 133.5653991910009,-92.19474194047596 L 133.56539919043016,-92.19474194194211 L 133.5372975100852,-92.27328087931656 L 133.50163298466998,-92.34868718273884 L 133.45874908851653,-92.42023463999757 L 133.4090588082882,-92.48723422756376 L 133.35304069312446,-92.54904069312445 L 133.29123422876867,-92.60505880719613 L 133.2242346424188,-92.65474908672081 L 133.15268718282533,-92.6976329846291 L 133.07728088296113,-92.73329750878115 L 132.99874194656763,-92.7613991887751 L 132.9178267559662,-92.7816673896198 L 132.8353145597003,-92.79390691832421 L 132.752,-92.79799989986734 L 132.66868544130423,-92.79390691837357 L 132.5861732440337,-92.78166738961977 L 132.50525805959418,-92.76139919101844 L 132.5052580580579,-92.76139919043015 L 132.42671912068346,-92.7332975100852 L 132.3513128214721,-92.69763298666163 L 132.27976536000222,-92.65474908851635 L 132.21276577243592,-92.6050588082879 L 132.15095930687554,-92.54904069312445 L 132.09494119280373,-92.48723422876851 L 132.04525091327938,-92.42023464241903 L 132.00236701537102,-92.34868718282554 L 131.9667024912188,-92.273280882961 L 131.93860080965567,-92.19474194218196 L 131.91833261038022,-92.11382675596634 L 131.9060930816758,-92.0313145597003 z" fill="#66cc99" fill-rule="evenodd" opacity="0.6" stroke="#555555" stroke-width="0.02"/>
			<path d="M 139.9160001,-94.27199990000001 L 139.9160001,-92.67200010033176 L 141.51599989966826,-92.67200009999999 L 141.5159999,-94.27199989966833 L 139.9160001,-94.27199990000001 z" fill="#66cc99" fill-rule="evenodd" opacity="0.6" stroke="#555555" stroke-width="0.02"/>
			<path d="M 147.5398523186758,-93.5504137027003 L 147.53600010013264,-93.472 L 147.53985231862646,-93.3935862983041 L 147.55137187438024,-93.31592776003363 L 147.57044782498147,-93.23977229359447 L 147.57044782556986,-93.23977229205789 L 147.59689646691479,-93.16585329268344 L 147.63046307933,-93.09488265426116 L 147.67082439148348,-93.02754387200243 L 147.71759171371195,-92.96448543743607 L 147.77031464587554,-92.90631464587554 L 147.82848543623132,-92.85359171480387 L 147.89154387164197,-92.8068243917508 L 147.95888265417477,-92.76646307937087 L 148.02985328903887,-92.73289646821885 L 148.10377229181802,-92.70644782565567 L 148.17992776003373,-92.68737187438022 L 148.25758629729972,-92.6758523186758 L 148.336,-92.67200010013266 L 148.41441370169576,-92.67585231862644 L 148.49207223996626,-92.68737187438022 L 148.56822770647605,-92.70644782499915 L 148.5682277079421,-92.70644782556984 L 148.64214670731656,-92.73289646691481 L 148.71311734152792,-92.76646307733837 L 148.7804561279977,-92.80682439148356 L 148.84351456256397,-92.85359171371198 L 148.90168535412445,-92.90631464587554 L 148.95440828519628,-92.96448543623148 L 149.0011756067207,-93.02754386958104 L 149.04153692062894,-93.09488265417438 L 149.0751035317812,-93.16585328903899 L 149.10155217434442,-93.23977229181824 L 149.12062812561976,-93.31592776003363 L 149.1321476813242,-93.39358629729972 L 149.13599989986736,-93.472 L 149.13214768137354,-93.55041370169589 L 149.12062812561976,-93.62807223996637 L 149.1015521750009,-93.70422770647596 L 149.10155217443017,-93.70422770794211 L 149.0751035330852,-93.77814670731657 L 149.04153692066998,-93.84911734573885 L 149.00117560851646,-93.91645612799763 L 148.95440828628801,-93.97951456256396 L 148.90168535412445,-94.03768535412446 L 148.84351456376868,-94.09040828519613 L 148.7804561304189,-94.13717560672073 L 148.71311734582522,-94.17753692062914 L 148.64214671096113,-94.21110353178115 L 148.56822771256765,-94.2375521727751 L 148.49207223996618,-94.2566281256198 L 148.41441370270027,-94.26814768132421 L 148.336,-94.27199989986734 L 148.25758629830423,-94.26814768137356 L 148.17992776003373,-94.25662812561978 L 148.10377229352392,-94.23755217500084 L 148.1037722920579,-94.23755217443015 L 148.02985329268344,-94.2111035330852 L 147.95888265847208,-94.17753692266163 L 147.89154387200222,-94.13717560851634 L 147.82848543743577,-94.09040828628778 L 147.77031464587554,-94.03768535412446 L 147.71759171480372,-93.97951456376852 L 147.67082439175067,-93.91645612835786 L 147.63046307937105,-93.84911734582562 L 147.5968964682188,-93.77814671096101 L 147.57044782722485,-93.7042277125675 L 147.55137187438024,-93.62807223996637 L 147.5398523186758,-93.5504137027003 z" fill="#66cc99" fill-rule="evenodd" opacity="0.6" stroke="#555555" stroke-width="0.02"/>
			<path d="M 150.074413058,-92.2308338852997 L 150.074413058,-92.19156011470031 L 150.07633916774705,-92.1523532638494 L 150.08018867020562,-92.11326860546951 L 150.0859484488094,-92.07443933614034 L 150.08594844888603,-92.07443933544931 L 150.09361038035954,-92.03592020110842 L 150.103148357107,-91.9978424641089 L 150.11454892835695,-91.96025981780915 L 150.11454892933233,-91.96025981576851 L 150.11454892972543,-91.96025981482491 L 150.11454893156986,-91.96025981005789 L 150.12777325174295,-91.92330031036896 L 150.14280267259318,-91.88701607659038 L 150.15958597943884,-91.85153075703107 L 150.15958598064532,-91.85153075428656 L 150.17809950573857,-91.8168943852348 L 150.19828016180887,-91.78322499445952 L 150.19828016346165,-91.78322499211274 L 150.22009950296146,-91.75057004335798 L 150.2434831627441,-91.71904082669604 L 150.26839817843685,-91.68868179194442 L 150.2683981785046,-91.68868179187149 L 150.2947596456912,-91.65959639587234 L 150.32253039587232,-91.63182564569117 L 150.35161579005262,-91.60546418015315 L 150.3819748266956,-91.58054916274445 L 150.41350404335813,-91.55716550296134 L 150.44615899007172,-91.53534616482543 L 150.479828385235,-91.51516550573847 L 150.514464752752,-91.49665198134177 L 150.5144647529956,-91.49665198123947 L 150.51446475703108,-91.49665197943882 L 150.54995007659016,-91.47986867259328 L 150.58623430469197,-91.46483925369326 L 150.5862343080579,-91.46483925256985 L 150.6231938100579,-91.45161493156985 L 150.6231938148261,-91.45161492972495 L 150.6231938157697,-91.45161492933184 L 150.6231938158327,-91.45161492930173 L 150.66077645979323,-91.4402143581254 L 150.66077646172783,-91.44021435770344 L 150.69885420110853,-91.43067638035954 L 150.7373733354153,-91.42301444888982 L 150.73737333614034,-91.42301444880941 L 150.7762026054692,-91.41725467020564 L 150.81528726209936,-91.413405167833 L 150.8544941147006,-91.41147905799998 L 150.8937678852994,-91.41147905799998 L 150.9329747361506,-91.41340516774704 L 150.97205939453082,-91.41725467020564 L 151.01088866385965,-91.42301444880941 L 151.01088866455063,-91.42301444888604 L 151.04940779889145,-91.43067638035954 L 151.08748553827218,-91.44021435770344 L 151.0874855384529,-91.44021435774286 L 151.12506818219106,-91.45161492835705 L 151.12506818423148,-91.45161492933232 L 151.12506818517508,-91.45161492972542 L 151.12506818522533,-91.45161492960479 L 151.1250681899421,-91.45161493156985 L 151.16202768963066,-91.4648392517428 L 151.19831192340985,-91.47986867259328 L 151.2337972407498,-91.49665197838925 L 151.26843361476477,-91.51516550573835 L 151.30210300554097,-91.5353461618092 L 151.30210300788727,-91.53534616346165 L 151.33475795664188,-91.55716550296134 L 151.36628717330424,-91.5805491627443 L 151.39664620805564,-91.60546417843693 L 151.39664620812852,-91.60546417850462 L 151.4257316041277,-91.63182564569117 L 151.45350235430882,-91.65959639587234 L 151.47986381984668,-91.68868179005244 L 151.50477883725588,-91.71904082669604 L 151.52816249703855,-91.75057004335798 L 151.5499818351747,-91.78322499007191 L 151.5701624942614,-91.8168943852348 L 151.58867601878134,-91.8515307529823 L 151.58867602056117,-91.85153075703107 L 151.6054593274068,-91.88701607659038 L 151.62048874630653,-91.92330030469144 L 151.62048874743016,-91.92330030805789 L 151.63371306843015,-91.96025981005789 L 151.63371307027458,-91.96025981482491 L 151.63371307066768,-91.96025981576851 L 151.63371307069815,-91.96025981583225 L 151.6451136417899,-91.99784245951396 L 151.64511364229656,-91.99784246172781 L 151.65465161964045,-92.03592020110842 L 151.66231355111015,-92.07443933541511 L 151.66231355119058,-92.07443933614034 L 151.6680733297944,-92.11326860546951 L 151.67192283216698,-92.15235326209907 L 151.673848942,-92.19156011470031 L 151.673848942,-92.2308338852997 L 151.67192283225296,-92.27004073615059 L 151.6680733297944,-92.30912539453048 L 151.66231355119058,-92.34795466385965 L 151.66231355111395,-92.34795466455068 L 151.65465161964045,-92.38647379889157 L 151.645113642893,-92.4245515358911 L 151.63371307164294,-92.4621341821911 L 151.63371307066768,-92.4621341842315 L 151.63371307027458,-92.4621341851751 L 151.63371306843015,-92.46213418994212 L 151.62048874825706,-92.49909368963104 L 151.6054593274068,-92.53537792340963 L 151.58867602056117,-92.57086324296894 L 151.5886760193547,-92.57086324571345 L 151.5701624942614,-92.6054996147652 L 151.54998183819123,-92.63916900554035 L 151.54998183653834,-92.63916900788728 L 151.52816249703855,-92.67182395664202 L 151.50477883725588,-92.70335317330395 L 151.4798638215633,-92.73371220805538 L 151.47986382149537,-92.73371220812851 L 151.45350235430882,-92.76279760412767 L 151.4257316041277,-92.79056835430883 L 151.3966462099474,-92.81692981984685 L 151.3662871733044,-92.84184483725555 L 151.33475795664188,-92.86522849703867 L 151.3021030099283,-92.88704783517457 L 151.26843361476497,-92.90722849426153 L 151.23379724724802,-92.92574201865823 L 151.23379724700442,-92.92574201876053 L 151.23379724296893,-92.92574202056117 L 151.19831192340985,-92.94252532740671 L 151.16202769530798,-92.95755474630676 L 151.1620276919421,-92.95755474743015 L 151.1250681899421,-92.97077906843015 L 151.12506818517392,-92.97077907027504 L 151.12506818423032,-92.97077907066816 L 151.1250681841673,-92.97077907069827 L 151.08748554020679,-92.9821796418746 L 151.08748553827218,-92.98217964229656 L 151.04940779889145,-92.99171761964045 L 151.01088866458477,-92.99937955111018 L 151.01088866385965,-92.99937955119059 L 150.97205939453082,-93.00513932979436 L 150.9329747379006,-93.00898883216699 L 150.8937678852994,-93.01091494200001 L 150.8544941147006,-93.01091494200001 L 150.8152872638494,-93.00898883225295 L 150.7762026054692,-93.00513932979436 L 150.73737333614034,-92.99937955119059 L 150.73737333544935,-92.99937955111396 L 150.69885420110853,-92.99171761964045 L 150.66077646172783,-92.98217964229656 L 150.6607764615471,-92.98217964225714 L 150.6231938178093,-92.97077907164305 L 150.6231938157697,-92.97077907066816 L 150.6231938148261,-92.97077907027504 L 150.6231938100579,-92.97077906843015 L 150.58623431036932,-92.9575547482572 L 150.54995007659016,-92.94252532740671 L 150.51446475925022,-92.92574202161074 L 150.4798283852352,-92.90722849426164 L 150.44615899445904,-92.88704783819081 L 150.44615899211274,-92.88704783653834 L 150.41350404335813,-92.86522849703867 L 150.38197482669577,-92.84184483725569 L 150.3516157919447,-92.8169298215634 L 150.3516157918715,-92.81692982149538 L 150.32253039587232,-92.79056835430883 L 150.2947596456912,-92.76279760412767 L 150.2683981801533,-92.73371220994756 L 150.2434831627441,-92.70335317330395 L 150.22009950296146,-92.67182395664202 L 150.1982801648253,-92.6391690099281 L 150.17809950573857,-92.6054996147652 L 150.1595859812186,-92.57086324701754 L 150.15958597943884,-92.57086324296894 L 150.14280267259318,-92.53537792340963 L 150.12777325369348,-92.49909369530856 L 150.12777325256985,-92.49909369194211 L 150.11454893156986,-92.46213418994212 L 150.11454892972543,-92.4621341851751 L 150.11454892933233,-92.4621341842315 L 150.11454892930186,-92.46213418416777 L 150.1031483582101,-92.42455154048609 L 150.10314835770342,-92.42455153827218 L 150.09361038035954,-92.38647379889157 L 150.08594844888984,-92.34795466458492 L 150.0859484488094,-92.34795466385965 L 150.08018867020562,-92.30912539453048 L 150.07633916783303,-92.27004073790093 L 150.074413058,-92.2308338852997 z" fill="#66cc99" fill-rule="evenodd" opacity="0.6" stroke="#555555" stroke-width="0.02"/>
			<path d="M 142.79600010000001,-88.71299990000001 L 142.79600010000001,-88.20300010033168 L 143.49599989966828,-88.20300009999998 L 143.4959999,-88.71299989966833 L 142.79600010000001,-88.71299990000001 z" fill="#66cc99" fill-rule="evenodd" opacity="0.6" stroke="#555555" stroke-width="0.02"/>
			<path d="M 140.4760001,-89.66299990000002 L 140.4760001,-89.15300010033174 L 141.17599989966828,-89.15300009999999 L 141.1759999,-89.66299989966832 L 140.4760001,-89.66299990000002 z" fill="#66cc99" fill-rule="evenodd" opacity="0.6" stroke="#555555" stroke-width="0.02"/>
			<path d="M 140.4760001,-88.71299990000001 L 140.4760001,-88.20300010033176 L 141.17599989966828,-88.20300009999998 L 141.1759999,-88.71299989966833 L 140.4760001,-88.71299990000001 z" fill="#66cc99" fill-rule="evenodd" opacity="0.6" stroke="#555555" stroke-width="0.02"/>
			<path d="M 142.79600010000001,-90.6129999 L 142.79600010000001,-90.10300010033167 L 143.49599989966828,-90.10300009999999 L 143.4959999,-90.61299989966832 L 142.79600010000001,-90.6129999 z" fill="#66cc99" fill-rule="evenodd" opacity="0.6" stroke="#555555" stroke-width="0.02"/>
			<path d="M 135.071235058,-90.7737828852997 L 135.071235058,-90.7345091147003 L 135.07316116774706,-90.69530226384941 L 135.07701067020562,-90.65621760546952 L 135.0827704488094,-90.61738833614035 L 135.08277044888604,-90.61738833544932 L 135.09043238035954,-90.57886920110843 L 135.099970357107,-90.5407914641089 L 135.11137092835705,-90.50320881780891 L 135.1113709293323,-90.5032088157685 L 135.1113709297254,-90.5032088148249 L 135.11137093156984,-90.50320881005788 L 135.12459525174293,-90.46624931036895 L 135.1396246725932,-90.42996507659038 L 135.15640797943882,-90.39447975703106 L 135.1564079806454,-90.39447975428635 L 135.1573040630113,-90.39280330285366 L 135.15730406414056,-90.39280330067722 L 135.15730406436126,-90.3928033002388 L 135.15730406543884,-90.39280329803107 L 135.15988197943884,-90.38735275703107 L 135.1598819806453,-90.38735275428655 L 135.1783955057386,-90.3527163852348 L 135.19857616180877,-90.31904699445965 L 135.19857616346167,-90.31904699211273 L 135.22039550296145,-90.28639204335799 L 135.24377916274412,-90.25486282669605 L 135.2686941784367,-90.22450379194461 L 135.26869417850463,-90.22450379187148 L 135.29505564569118,-90.19541839587234 L 135.3228263958723,-90.16764764569116 L 135.3519117900526,-90.14128618015316 L 135.3822708266956,-90.11637116274444 L 135.41380004335812,-90.09298750296134 L 135.44645499007171,-90.07116816482544 L 135.48012438523503,-90.05098750573848 L 135.51476075275198,-90.03247398134177 L 135.51476075299558,-90.03247398123946 L 135.51476075703107,-90.03247397943882 L 135.55024607659016,-90.01569067259328 L 135.58653030469196,-90.00066125369325 L 135.5865303080579,-90.00066125256984 L 135.6234898100579,-89.98743693156985 L 135.6234898148261,-89.98743692972495 L 135.6234898157697,-89.98743692933184 L 135.6234898158327,-89.98743692930172 L 135.66107245979322,-89.9760363581254 L 135.66107246172783,-89.97603635770344 L 135.69915020110855,-89.96649838035954 L 135.73766933541523,-89.95883644888983 L 135.73766933614036,-89.95883644880942 L 135.7764986054692,-89.95307667020565 L 135.8155832620994,-89.94922716783302 L 135.8547901147006,-89.947301058 L 135.8940638852994,-89.947301058 L 135.9332707361506,-89.94922716774705 L 135.9723553945308,-89.95307667020565 L 136.01118466385967,-89.95883644880942 L 136.01118466455065,-89.95883644888605 L 136.04970379889144,-89.96649838035954 L 136.08778153827217,-89.97603635770344 L 136.0877815384529,-89.97603635774286 L 136.12536418219105,-89.98743692835704 L 136.12536418423147,-89.98743692933232 L 136.12536418517507,-89.98743692972542 L 136.12536418522532,-89.98743692960478 L 136.1253641899421,-89.98743693156985 L 136.16232368963068,-90.0006612517428 L 136.19860792340984,-90.01569067259328 L 136.2340932407498,-90.03247397838925 L 136.2687296147648,-90.05098750573836 L 136.30239900554096,-90.0711681618092 L 136.30239900788726,-90.07116816346166 L 136.33505395664187,-90.09298750296134 L 136.36658317330424,-90.1163711627443 L 136.3969422080553,-90.1412861784366 L 136.3969422081285,-90.14128617850463 L 136.42602760412768,-90.16764764569116 L 136.45379835430882,-90.19541839587234 L 136.48015981984668,-90.22450379005244 L 136.5050748372559,-90.25486282669605 L 136.52845849703854,-90.28639204335799 L 136.5502778351747,-90.31904699007191 L 136.5704584942614,-90.3527163852348 L 136.58897201878133,-90.3873527529823 L 136.58897202056116,-90.38735275703107 L 136.60575532740683,-90.42283807659038 L 136.62078474630653,-90.45912230469143 L 136.62078474743015,-90.45912230805789 L 136.63400906843015,-90.49608181005789 L 136.63400907027457,-90.4960818148249 L 136.63400907066767,-90.4960818157685 L 136.63400907069814,-90.49608181583224 L 136.6454096417899,-90.53366445951391 L 136.64540964229658,-90.53366446172782 L 136.65494761964047,-90.57174220110844 L 136.66260955111014,-90.61026133541509 L 136.66260955119057,-90.61026133614035 L 136.6683693297944,-90.64909060546951 L 136.67221883216698,-90.6881752620991 L 136.674144942,-90.7273821147003 L 136.674144942,-90.7666558852997 L 136.67221883225295,-90.80586273615059 L 136.6683693297944,-90.84494739453048 L 136.66260955119057,-90.88377666385965 L 136.66260955111395,-90.88377666455068 L 136.65494761964047,-90.92229579889157 L 136.64540964289301,-90.9603735358911 L 136.63400907164305,-90.99795618219086 L 136.63400907066767,-90.9979561842315 L 136.63400907027457,-90.9979561851751 L 136.63400906843015,-90.99795618994212 L 136.62078474825705,-91.03491568963105 L 136.60575532740683,-91.07119992340962 L 136.58897202056116,-91.10668524296894 L 136.58897201935457,-91.10668524571365 L 136.5880759369887,-91.10836169714634 L 136.58807593585945,-91.10836169932278 L 136.58807593563876,-91.1083616997612 L 136.58807593456118,-91.10836170196893 L 136.58549802056118,-91.11381224296893 L 136.5854980193547,-91.11381224571345 L 136.56698449426142,-91.1484486147652 L 136.54680383819107,-91.18211800554056 L 136.54680383653834,-91.18211800788727 L 136.52498449703856,-91.21477295664201 L 136.5016008372559,-91.24630217330395 L 136.47668582156314,-91.27666120805559 L 136.47668582149538,-91.27666120812852 L 136.45032435430883,-91.30574660412766 L 136.42255360412767,-91.33351735430884 L 136.39346820994737,-91.35987881984684 L 136.3631091733044,-91.38479383725554 L 136.33157995664186,-91.40817749703866 L 136.2989250099283,-91.42999683517456 L 136.26525561476498,-91.45017749426152 L 136.23061924724814,-91.46869101865818 L 136.2306192470044,-91.46869101876054 L 136.2306192429689,-91.46869102056118 L 136.19513392340983,-91.48547432740672 L 136.15884969530802,-91.50050374630675 L 136.1588496919421,-91.50050374743016 L 136.1218901899421,-91.51372806843015 L 136.1218901851739,-91.51372807027505 L 136.1218901842303,-91.51372807066817 L 136.12189018416728,-91.51372807069828 L 136.0843075402068,-91.52512864187459 L 136.08430753827216,-91.52512864229656 L 136.04622979889146,-91.53466661964046 L 136.0077106645847,-91.54232855111017 L 136.00771066385965,-91.54232855119058 L 135.9688813945308,-91.54808832979435 L 135.92979673790063,-91.55193783216698 L 135.8905898852994,-91.553863942 L 135.8513161147006,-91.553863942 L 135.8121092638494,-91.55193783225295 L 135.7730246054692,-91.54808832979435 L 135.73419533614035,-91.54232855119058 L 135.73419533544936,-91.54232855111395 L 135.69567620110854,-91.53466661964046 L 135.65759846172784,-91.52512864229656 L 135.6575984615471,-91.52512864225714 L 135.6200158178093,-91.51372807164306 L 135.6200158157697,-91.51372807066817 L 135.6200158148261,-91.51372807027505 L 135.6200158100579,-91.51372806843015 L 135.58305631036933,-91.5005037482572 L 135.54677207659017,-91.48547432740672 L 135.51128675925023,-91.46869102161075 L 135.47665038523522,-91.45017749426164 L 135.44298099445896,-91.42999683819075 L 135.44298099211272,-91.42999683653834 L 135.41032604335814,-91.40817749703866 L 135.37879682669578,-91.38479383725569 L 135.34843779194472,-91.3598788215634 L 135.3484377918715,-91.35987882149537 L 135.31935239587233,-91.33351735430884 L 135.29158164569117,-91.30574660412766 L 135.2652201801533,-91.27666120994756 L 135.2403051627441,-91.24630217330395 L 135.21692150296144,-91.21477295664201 L 135.1951021648253,-91.18211800992809 L 135.17492150573858,-91.1484486147652 L 135.15640798121865,-91.1138122470177 L 135.15640797943882,-91.11381224296893 L 135.1396246725932,-91.07832692340962 L 135.12459525369346,-91.04204269530857 L 135.12459525256983,-91.04204269194211 L 135.11137093156984,-91.00508318994211 L 135.1113709297254,-91.0050831851751 L 135.1113709293323,-91.0050831842315 L 135.11137092930184,-91.00508318416776 L 135.0999703582101,-90.96750054048609 L 135.09997035770343,-90.96750053827218 L 135.09043238035954,-90.92942279889157 L 135.08277044888985,-90.89090366458491 L 135.0827704488094,-90.89090366385965 L 135.07701067020562,-90.85207439453048 L 135.07316116783304,-90.8129897379009 L 135.071235058,-90.7737828852997 z" fill="#66cc99" fill-rule="evenodd" opacity="0.6" stroke="#555555" stroke-width="0.02"/>
			<path d="M 131.9020001,-90.25799990000002 L 131.9020001,-88.55800010033167 L 133.60199989966827,-88.55800009999999 L 133.6019999,-90.25799989966826 L 131.9020001,-90.25799990000002 z" fill="#66cc99" fill-rule="evenodd" opacity="0.6" stroke="#555555" stroke-width="0.02"/>
			<path d="M 140.4760001,-90.6129999 L 140.4760001,-90.10300010033176 L 141.17599989966828,-90.10300009999999 L 141.1759999,-90.61299989966832 L 140.4760001,-90.6129999 z" fill="#66cc99" fill-rule="evenodd" opacity="0.6" stroke="#555555" stroke-width="0.02"/>
			<path d="M 136.358245058,-101.1116058852997 L 136.358245058,-101.0723321147003 L 136.36017116774704,-101.03312526384941 L 136.3640206702056,-100.99404060546952 L 136.36978044880942,-100.95521133614035 L 136.36978044888605,-100.95521133544932 L 136.37744238035955,-100.91669220110843 L 136.386980357107,-100.8786144641089 L 136.39838092835706,-100.84103181780891 L 136.39838092933232,-100.8410318157685 L 136.39838092972542,-100.8410318148249 L 136.39838093156985,-100.84103181005788 L 136.41160525174294,-100.80407231036895 L 136.4266346725932,-100.76778807659038 L 136.44341797943883,-100.73230275703106 L 136.4434179806453,-100.73230275428655 L 136.4619315057386,-100.6976663852348 L 136.48211216180877,-100.66399699445965 L 136.48211216346166,-100.66399699211273 L 136.50393150296145,-100.63134204335799 L 136.52731516274412,-100.59981282669605 L 136.55223017843664,-100.56945379194467 L 136.55223017850463,-100.5694537918715 L 136.57859164569118,-100.54036839587233 L 136.6063623958723,-100.51259764569116 L 136.6354477900526,-100.48623618015316 L 136.6658068266956,-100.46132116274445 L 136.69733604335812,-100.43793750296133 L 136.7299909900717,-100.41611816482543 L 136.76366038523503,-100.39593750573847 L 136.79829675275198,-100.37742398134176 L 136.79829675299558,-100.37742398123946 L 136.79829675703107,-100.37742397943882 L 136.83378207659015,-100.36064067259328 L 136.87006630469202,-100.34561125369325 L 136.87006630805791,-100.34561125256985 L 136.9070258100579,-100.33238693156984 L 136.90702581482608,-100.33238692972495 L 136.90702581576969,-100.33238692933183 L 136.9070258158327,-100.33238692930172 L 136.94460845979322,-100.3209863581254 L 136.94460846172782,-100.32098635770343 L 136.98268620110855,-100.31144838035954 L 137.02120533541523,-100.30378644888982 L 137.02120533614035,-100.30378644880942 L 137.06003460546918,-100.29802667020564 L 137.0991192620994,-100.29417716783301 L 137.1383261147006,-100.29225105799999 L 137.1775998852994,-100.29225105799999 L 137.2168067361506,-100.29417716774705 L 137.2558913945308,-100.29802667020564 L 137.29472066385966,-100.30378644880942 L 137.29472066455065,-100.30378644888604 L 137.33323979889147,-100.31144838035954 L 137.37131753827217,-100.32098635770343 L 137.3713175384529,-100.32098635774285 L 137.40890018219105,-100.33238692835704 L 137.40890018423147,-100.33238692933232 L 137.40890018517507,-100.33238692972542 L 137.40890018522532,-100.33238692960478 L 137.4089001899421,-100.33238693156984 L 137.44585968963068,-100.34561125174281 L 137.48214392340984,-100.36064067259328 L 137.51762924074978,-100.37742397838925 L 137.5522656147648,-100.39593750573836 L 137.58593500554096,-100.4161181618092 L 137.58593500788726,-100.41611816346166 L 137.61858995664187,-100.43793750296133 L 137.65011917330423,-100.46132116274431 L 137.6804782080553,-100.4862361784366 L 137.6804782081285,-100.48623617850463 L 137.70956360412768,-100.51259764569116 L 137.7373343543088,-100.54036839587233 L 137.7636958198467,-100.56945379005245 L 137.7886108372559,-100.59981282669605 L 137.81199449703854,-100.63134204335799 L 137.8338138351747,-100.66399699007191 L 137.85399449426143,-100.6976663852348 L 137.87250801878133,-100.73230275298229 L 137.87250802056116,-100.73230275703106 L 137.88929132740682,-100.76778807659038 L 137.90432074630652,-100.8040723046915 L 137.90432074743015,-100.80407230805788 L 137.91754506843014,-100.84103181005788 L 137.91754507027457,-100.8410318148249 L 137.91754507066767,-100.8410318157685 L 137.91754507069814,-100.84103181583224 L 137.9289456417899,-100.87861445951391 L 137.92894564229658,-100.87861446172782 L 137.93848361964046,-100.91669220110843 L 137.94614555111016,-100.95521133541509 L 137.9461455511906,-100.95521133614035 L 137.95190532979439,-100.99404060546952 L 137.95575483216697,-101.03312526209908 L 137.957680942,-101.0723321147003 L 137.957680942,-101.1116058852997 L 137.95575483225295,-101.1508127361506 L 137.95190532979439,-101.18989739453048 L 137.9461455511906,-101.22872666385965 L 137.94614555111397,-101.22872666455068 L 137.93848361964046,-101.26724579889157 L 137.928945642893,-101.30532353589109 L 137.91754507164305,-101.34290618219086 L 137.91754507066767,-101.3429061842315 L 137.91754507027457,-101.3429061851751 L 137.91754506843014,-101.34290618994211 L 137.90432074825705,-101.37986568963105 L 137.88929132740682,-101.41614992340962 L 137.87250802056116,-101.45163524296893 L 137.87250801935468,-101.45163524571345 L 137.85399449426143,-101.4862716147652 L 137.83381383819108,-101.51994100554056 L 137.83381383653835,-101.51994100788727 L 137.81199449703854,-101.55259595664201 L 137.7886108372559,-101.58412517330395 L 137.76369582156315,-101.61448420805559 L 137.7636958214954,-101.61448420812852 L 137.7373343543088,-101.64356960412766 L 137.70956360412768,-101.67134035430884 L 137.68047820994738,-101.69770181984684 L 137.6501191733044,-101.72261683725554 L 137.61858995664187,-101.74600049703866 L 137.58593500992828,-101.76781983517456 L 137.552265614765,-101.78800049426152 L 137.517629247248,-101.80651401865823 L 137.5176292470044,-101.80651401876054 L 137.51762924296892,-101.80651402056118 L 137.48214392340984,-101.82329732740672 L 137.44585969530803,-101.83832674630675 L 137.4458596919421,-101.83832674743016 L 137.4089001899421,-101.85155106843015 L 137.4089001851739,-101.85155107027505 L 137.4089001842303,-101.85155107066817 L 137.4089001841673,-101.85155107069828 L 137.37131754020677,-101.8629516418746 L 137.37131753827217,-101.86295164229657 L 137.33323979889147,-101.87248961964046 L 137.2947206645847,-101.88015155111017 L 137.29472066385966,-101.88015155119058 L 137.2558913945308,-101.88591132979435 L 137.21680673790064,-101.88976083216698 L 137.1775998852994,-101.891686942 L 137.1383261147006,-101.891686942 L 137.0991192638494,-101.88976083225295 L 137.06003460546918,-101.88591132979435 L 137.02120533614035,-101.88015155119058 L 137.02120533544937,-101.88015155111395 L 136.98268620110855,-101.87248961964046 L 136.94460846172782,-101.86295164229657 L 136.9446084615471,-101.86295164225714 L 136.90702581780928,-101.85155107164306 L 136.90702581576969,-101.85155107066817 L 136.90702581482608,-101.85155107027505 L 136.9070258100579,-101.85155106843015 L 136.87006631036934,-101.8383267482572 L 136.83378207659015,-101.82329732740672 L 136.7982967592502,-101.80651402161075 L 136.76366038523523,-101.78800049426164 L 136.72999099445903,-101.7678198381908 L 136.72999099211273,-101.76781983653834 L 136.69733604335812,-101.74600049703866 L 136.66580682669576,-101.72261683725569 L 136.6354477919443,-101.69770182156302 L 136.63544779187148,-101.69770182149537 L 136.6063623958723,-101.67134035430884 L 136.57859164569118,-101.64356960412766 L 136.55223018015332,-101.61448420994756 L 136.52731516274412,-101.58412517330395 L 136.50393150296145,-101.55259595664201 L 136.4821121648253,-101.51994100992809 L 136.4619315057386,-101.4862716147652 L 136.44341798121866,-101.4516352470177 L 136.44341797943883,-101.45163524296893 L 136.4266346725932,-101.41614992340962 L 136.41160525369347,-101.37986569530857 L 136.41160525256984,-101.37986569194211 L 136.39838093156985,-101.34290618994211 L 136.39838092972542,-101.3429061851751 L 136.39838092933232,-101.3429061842315 L 136.39838092930185,-101.34290618416776 L 136.3869803582101,-101.30532354048609 L 136.38698035770344,-101.30532353827218 L 136.37744238035955,-101.26724579889157 L 136.36978044888986,-101.22872666458491 L 136.36978044880942,-101.22872666385965 L 136.3640206702056,-101.18989739453048 L 136.36017116783302,-101.1508127379009 L 136.358245058,-101.1116058852997 z" fill="#66cc99" fill-rule="evenodd" opacity="0.6" stroke="#555555" stroke-width="0.02"/>
			<path d="M 149.64008353567579,-101.1110538477003 L 149.6390001,-101.0889999972997 L 149.6390001,-100.6390000027003 L 149.64008353562645,-100.61694615330411 L 149.64332341038025,-100.59510469603363 L 149.64868851798144,-100.57368598359454 L 149.64868851856986,-100.57368598205788 L 149.6561271979148,-100.55289626668343 L 149.66556780633002,-100.53293577726116 L 149.67691941848346,-100.51399675600243 L 149.690072724712,-100.49626157543604 L 149.70490104487553,-100.47990104487555 L 149.72126157423133,-100.46507272580388 L 149.7389967535811,-100.45191942027927 L 149.75793577717462,-100.44056780637094 L 149.77789626303888,-100.43112719921884 L 149.79868598181807,-100.42368851865565 L 149.82010469603372,-100.41832341038022 L 149.84194615229976,-100.41508353567579 L 149.86400000270055,-100.41400009999998 L 150.36399999729946,-100.41400009999998 L 150.38605384669575,-100.41508353562644 L 150.4078953039664,-100.41832341038025 L 150.42931401640578,-100.42368851798155 L 150.4293140179421,-100.42368851856985 L 150.45010373331655,-100.4311271979148 L 150.4700642185279,-100.44056780433837 L 150.4890032439978,-100.45191941848366 L 150.50673842456396,-100.46507272471199 L 150.52309895512445,-100.47990104487555 L 150.53792727419628,-100.49626157423148 L 150.5510805797207,-100.51399675358104 L 150.56243219362895,-100.53293577717439 L 150.5718728007812,-100.55289626303899 L 150.57931148134432,-100.57368598181803 L 150.58467658961976,-100.59510469603363 L 150.5879164643242,-100.6169461522997 L 150.5889999,-100.6390000027003 L 150.5889999,-101.0889999972997 L 150.58791646437354,-101.1110538466959 L 150.58467658961976,-101.13289530396641 L 150.5793114820009,-101.15431401647596 L 150.57931148143015,-101.15431401794211 L 150.5718728020852,-101.17510373331656 L 150.56243219367,-101.19506422273885 L 150.5510805815167,-101.21400324399737 L 150.537927275288,-101.23173842456397 L 150.52309895512445,-101.24809895512446 L 150.50673842576867,-101.26292727419613 L 150.48900324435783,-101.27608058124933 L 150.47006422282539,-101.28743219362906 L 150.45010373696113,-101.29687280078114 L 150.42931402256764,-101.3043114797751 L 150.4078953039663,-101.30967658961977 L 150.38605384770025,-101.3129164643242 L 150.36399999729946,-101.31399990000001 L 149.86400000270055,-101.31399990000001 L 149.84194615330426,-101.31291646437356 L 149.82010469603372,-101.30967658961978 L 149.7986859835239,-101.30431148200084 L 149.7986859820579,-101.30431148143015 L 149.77789626668346,-101.29687280208519 L 149.7579357814721,-101.28743219566162 L 149.73899675600236,-101.27608058151648 L 149.72126157543605,-101.26292727528802 L 149.70490104487553,-101.24809895512446 L 149.69007272580373,-101.23173842576853 L 149.67691941875066,-101.21400324435787 L 149.66556780637106,-101.19506422282562 L 149.65612719921882,-101.175103736961 L 149.64868852022485,-101.1543140225675 L 149.64332341038025,-101.1328953039664 L 149.64008353567579,-101.1110538477003 z" fill="#66cc99" fill-rule="evenodd" opacity="0.6" stroke="#555555" stroke-width="0.02"/>
			<path d="M 145.501479058,-100.61304888529969 L 145.501479058,-100.57377511470031 L 145.50340516774705,-100.53456826384941 L 145.5072546702056,-100.49548360546952 L 145.51301444880943,-100.45665433614035 L 145.51301444888605,-100.45665433544931 L 145.52067638035953,-100.41813520110843 L 145.53021435710698,-100.3800574641089 L 145.54161492835695,-100.34247481780915 L 145.54161492933233,-100.34247481576851 L 145.54161492972543,-100.34247481482491 L 145.54161493156985,-100.3424748100579 L 145.55483925174295,-100.30551531036896 L 145.56986867259317,-100.26923107659037 L 145.58665197943884,-100.23374575703106 L 145.5866519806453,-100.23374575428655 L 145.6051655057386,-100.1991093852348 L 145.62534616180878,-100.16543999445965 L 145.62534616346167,-100.16543999211272 L 145.64716550296146,-100.13278504335798 L 145.6705491627441,-100.10125582669605 L 145.6954641784367,-100.07089679194462 L 145.69546417850464,-100.07089679187149 L 145.72182564569118,-100.04181139587233 L 145.74959639587232,-100.01404064569117 L 145.77868179005262,-99.98767918015315 L 145.8090408266956,-99.96276416274445 L 145.84057004335813,-99.93938050296133 L 145.87322499007172,-99.91756116482543 L 145.906894385235,-99.89738050573847 L 145.941530752752,-99.87886698134177 L 145.9415307529956,-99.87886698123947 L 145.94153075703107,-99.87886697943883 L 145.97701607659016,-99.86208367259329 L 146.01330030469197,-99.84705425369326 L 146.0133003080579,-99.84705425256985 L 146.0502598100579,-99.83382993156985 L 146.0502598148261,-99.83382992972496 L 146.0502598157697,-99.83382992933184 L 146.0502598158327,-99.83382992930173 L 146.08784245979322,-99.8224293581254 L 146.08784246172783,-99.82242935770344 L 146.12592020110856,-99.81289138035955 L 146.16443933541524,-99.80522944888982 L 146.16443933614036,-99.80522944880941 L 146.2032686054692,-99.79946967020564 L 146.2423532620994,-99.79562016783301 L 146.2815601147006,-99.79369405799999 L 146.3208338852994,-99.79369405799999 L 146.3600407361506,-99.79562016774705 L 146.3991253945308,-99.79946967020564 L 146.43795466385964,-99.80522944880941 L 146.43795466455063,-99.80522944888604 L 146.47647379889145,-99.81289138035955 L 146.51455153827217,-99.82242935770344 L 146.5145515384529,-99.82242935774286 L 146.55213418219105,-99.83382992835705 L 146.55213418423148,-99.83382992933232 L 146.55213418517508,-99.83382992972543 L 146.55213418522533,-99.83382992960479 L 146.5521341899421,-99.83382993156985 L 146.5890936896307,-99.8470542517428 L 146.62537792340984,-99.86208367259329 L 146.6608632407498,-99.87886697838925 L 146.69549961476477,-99.89738050573835 L 146.72916900554097,-99.91756116180919 L 146.72916900788726,-99.91756116346166 L 146.76182395664188,-99.93938050296133 L 146.79335317330424,-99.9627641627443 L 146.8237122080553,-99.9876791784366 L 146.8237122081285,-99.98767917850462 L 146.8527976041277,-100.01404064569117 L 146.88056835430882,-100.04181139587233 L 146.90692981984668,-100.07089679005244 L 146.93184483725588,-100.10125582669605 L 146.95522849703855,-100.13278504335798 L 146.9770478351747,-100.1654399900719 L 146.9972284942614,-100.1991093852348 L 147.0157420187814,-100.23374575298246 L 147.01574202056116,-100.23374575703106 L 147.03252532740683,-100.26923107659037 L 147.04755474630653,-100.30551530469144 L 147.04755474743015,-100.30551530805789 L 147.06077906843015,-100.3424748100579 L 147.06077907027458,-100.34247481482491 L 147.06077907066768,-100.34247481576851 L 147.06077907069815,-100.34247481583225 L 147.0721796417899,-100.3800574595139 L 147.07217964229656,-100.38005746172782 L 147.08171761964047,-100.41813520110843 L 147.08937955111014,-100.45665433541508 L 147.08937955119058,-100.45665433614035 L 147.0951393297944,-100.49548360546952 L 147.09898883216698,-100.53456826209907 L 147.100914942,-100.57377511470031 L 147.100914942,-100.61304888529969 L 147.09898883225296,-100.6522557361506 L 147.0951393297944,-100.69134039453049 L 147.08937955119058,-100.73016966385966 L 147.08937955111395,-100.73016966455069 L 147.08171761964047,-100.76868879889157 L 147.072179642893,-100.8067665358911 L 147.06077907164294,-100.84434918219108 L 147.06077907066768,-100.84434918423149 L 147.06077907027458,-100.84434918517509 L 147.06077906843015,-100.84434918994211 L 147.04755474825706,-100.88130868963104 L 147.03252532740683,-100.91759292340961 L 147.01574202056116,-100.95307824296893 L 147.0157420193547,-100.95307824571344 L 146.9972284942614,-100.9877146147652 L 146.97704783819123,-101.02138400554036 L 146.97704783653833,-101.02138400788728 L 146.95522849703855,-101.05403895664202 L 146.93184483725588,-101.08556817330395 L 146.9069298215633,-101.11592720805538 L 146.90692982149537,-101.11592720812851 L 146.88056835430882,-101.14501260412766 L 146.8527976041277,-101.17278335430883 L 146.8237122099474,-101.19914481984685 L 146.7933531733044,-101.22405983725555 L 146.76182395664188,-101.24744349703867 L 146.72916900992828,-101.26926283517457 L 146.69549961476497,-101.28944349426153 L 146.66086324724802,-101.30795701865823 L 146.66086324700441,-101.30795701876053 L 146.66086324296893,-101.30795702056118 L 146.62537792340984,-101.32474032740672 L 146.58909369530804,-101.33976974630674 L 146.5890936919421,-101.33976974743015 L 146.5521341899421,-101.35299406843015 L 146.5521341851739,-101.35299407027505 L 146.5521341842303,-101.35299407066816 L 146.5521341841673,-101.35299407069827 L 146.51455154020678,-101.3643946418746 L 146.51455153827217,-101.36439464229656 L 146.47647379889145,-101.37393261964046 L 146.43795466458477,-101.38159455111018 L 146.43795466385964,-101.38159455119059 L 146.3991253945308,-101.38735432979436 L 146.3600407379006,-101.391203832167 L 146.3208338852994,-101.39312994200002 L 146.2815601147006,-101.39312994200002 L 146.2423532638494,-101.39120383225296 L 146.2032686054692,-101.38735432979436 L 146.16443933614036,-101.38159455119059 L 146.16443933544937,-101.38159455111396 L 146.12592020110856,-101.37393261964046 L 146.08784246172783,-101.36439464229656 L 146.0878424615471,-101.36439464225714 L 146.0502598178093,-101.35299407164305 L 146.0502598157697,-101.35299407066816 L 146.0502598148261,-101.35299407027505 L 146.0502598100579,-101.35299406843015 L 146.01330031036932,-101.3397697482572 L 145.97701607659016,-101.32474032740672 L 145.9415307592502,-101.30795702161075 L 145.9068943852352,-101.28944349426165 L 145.87322499445904,-101.26926283819081 L 145.87322499211274,-101.26926283653835 L 145.84057004335813,-101.24744349703867 L 145.80904082669576,-101.2240598372557 L 145.77868179194465,-101.19914482156334 L 145.7786817918715,-101.19914482149538 L 145.74959639587232,-101.17278335430883 L 145.72182564569118,-101.14501260412766 L 145.69546418015332,-101.11592720994756 L 145.6705491627441,-101.08556817330395 L 145.64716550296146,-101.05403895664202 L 145.62534616482532,-101.0213840099281 L 145.6051655057386,-100.9877146147652 L 145.58665198121867,-100.9530782470177 L 145.58665197943884,-100.95307824296893 L 145.56986867259317,-100.91759292340961 L 145.55483925369347,-100.88130869530856 L 145.55483925256985,-100.88130869194211 L 145.54161493156985,-100.84434918994211 L 145.54161492972543,-100.84434918517509 L 145.54161492933233,-100.84434918423149 L 145.54161492930186,-100.84434918416775 L 145.5302143582101,-100.80676654048604 L 145.53021435770341,-100.80676653827219 L 145.52067638035953,-100.76868879889157 L 145.51301444888986,-100.73016966458492 L 145.51301444880943,-100.73016966385966 L 145.5072546702056,-100.69134039453049 L 145.50340516783302,-100.65225573790093 L 145.501479058,-100.61304888529969 z" fill="#66cc99" fill-rule="evenodd" opacity="0.6" stroke="#555555" stroke-width="0.02"/>
			<path d="M 141.79000010000001,-100.33400000270031 L 141.79108353562646,-100.3119461533041 L 141.79432341038026,-100.2901046960336 L 141.7996885179991,-100.26868598352404 L 141.79968851856984,-100.26868598205789 L 141.80712719791478,-100.24789626668344 L 141.81656780633,-100.22793577726115 L 141.82791941848353,-100.20899675600236 L 141.84107272471184,-100.1912615754362 L 141.85590104487554,-100.17490104487554 L 141.87226157423132,-100.16007272580387 L 141.8899967535811,-100.14691942027926 L 141.90893577717478,-100.13556780637087 L 141.92889626303887,-100.12612719921886 L 141.94968598181813,-100.11868851865563 L 141.97110469603373,-100.11332341038022 L 141.9929461522997,-100.1100835356758 L 142.01500000270053,-100.10900009999999 L 142.46499999729946,-100.10900009999999 L 142.48705384669574,-100.11008353562644 L 142.5088953039664,-100.11332341038025 L 142.53031401647604,-100.11868851799915 L 142.5303140179421,-100.11868851856984 L 142.55110373331655,-100.12612719791481 L 142.5710642185279,-100.13556780433838 L 142.59000324399778,-100.14691941848365 L 142.60773842456396,-100.16007272471198 L 142.62409895512445,-100.17490104487554 L 142.63892727419628,-100.19126157423148 L 142.6520805797207,-100.20899675358103 L 142.66343219362895,-100.22793577717438 L 142.6728728007812,-100.247896263039 L 142.68031148134432,-100.26868598181804 L 142.68567658961976,-100.2901046960336 L 142.6889164643242,-100.3119461522997 L 142.6899999,-100.33400000270031 L 142.6899999,-100.8339999972997 L 142.68891646437353,-100.8560538466959 L 142.68567658961976,-100.87789530396637 L 142.6803114820009,-100.89931401647597 L 142.68031148143015,-100.89931401794212 L 142.6728728020852,-100.92010373331657 L 142.66343219367,-100.94006422273884 L 142.65208058151669,-100.95900324399737 L 142.63892727528804,-100.97673842456393 L 142.62409895512445,-100.99309895512445 L 142.60773842576867,-101.00792727419613 L 142.59000324435803,-101.02108058124921 L 142.57106422282538,-101.03243219362906 L 142.55110373696112,-101.04187280078115 L 142.53031402256764,-101.0493114797751 L 142.5088953039663,-101.05467658961976 L 142.48705384770025,-101.05791646432421 L 142.46499999729946,-101.05899990000002 L 142.01500000270053,-101.05899990000002 L 141.99294615330427,-101.05791646437356 L 141.97110469603373,-101.05467658961977 L 141.9496859835942,-101.04931148201845 L 141.9496859820579,-101.04931148143015 L 141.92889626668344,-101.0418728020852 L 141.90893578147208,-101.03243219566163 L 141.88999675600232,-101.02108058151644 L 141.87226157543577,-101.00792727528778 L 141.85590104487554,-100.99309895512445 L 141.84107272580374,-100.97673842576852 L 141.82791941875067,-100.95900324435787 L 141.81656780637104,-100.94006422282561 L 141.8071271992188,-100.92010373696101 L 141.79968851865567,-100.89931401818197 L 141.79432341038026,-100.87789530396637 L 141.7910835356758,-100.85605384770028 L 141.79000010000001,-100.8339999972997 L 141.79000010000001,-100.33400000270031 z" fill="#66cc99" fill-rule="evenodd" opacity="0.6" stroke="#555555" stroke-width="0.02"/>
			<path d="M 140.2400001,-100.33400000270031 L 140.24108353562644,-100.3119461533041 L 140.24432341038025,-100.2901046960336 L 140.24968851798144,-100.26868598359455 L 140.24968851856985,-100.26868598205789 L 140.2571271979148,-100.24789626668344 L 140.26656780633002,-100.22793577726115 L 140.27791941848332,-100.20899675600263 L 140.291072724712,-100.19126157543603 L 140.30590104487555,-100.17490104487554 L 140.32226157423133,-100.16007272580387 L 140.3399967535811,-100.14691942027926 L 140.35893577717462,-100.13556780637094 L 140.37889626303888,-100.12612719921884 L 140.399685981818,-100.11868851865567 L 140.42110469603372,-100.11332341038022 L 140.44294615229975,-100.1100835356758 L 140.46500000270055,-100.10900009999999 L 140.91499999729945,-100.10900009999999 L 140.93705384669573,-100.11008353562644 L 140.95889530396627,-100.11332341038022 L 140.9803140164761,-100.11868851799916 L 140.9803140179421,-100.11868851856984 L 141.00110373331654,-100.12612719791481 L 141.02106421852793,-100.13556780433838 L 141.04000324399763,-100.14691941848352 L 141.0577384245641,-100.16007272471211 L 141.07409895512447,-100.17490104487554 L 141.08892727419627,-100.19126157423148 L 141.10208058124934,-100.20899675564213 L 141.11343219362894,-100.22793577717438 L 141.12287280078118,-100.247896263039 L 141.13031147977514,-100.2686859774325 L 141.13567658961975,-100.29010469603361 L 141.1389164643242,-100.3119461522997 L 141.1399999,-100.33400000270031 L 141.1399999,-100.8339999972997 L 141.13891646437355,-100.8560538466959 L 141.13567658961975,-100.87789530396637 L 141.13031148201856,-100.89931401640546 L 141.13031148143014,-100.89931401794212 L 141.1228728020852,-100.92010373331657 L 141.11343219366998,-100.94006422273884 L 141.10208058151647,-100.95900324399764 L 141.0889272752882,-100.97673842456376 L 141.07409895512447,-100.99309895512445 L 141.0577384257687,-101.00792727419613 L 141.0400032464189,-101.02108057972075 L 141.02106422282523,-101.03243219362913 L 141.0011037369611,-101.04187280078116 L 140.98031401818193,-101.04931148134435 L 140.95889530396627,-101.05467658961977 L 140.9370538477003,-101.05791646432421 L 140.91499999729945,-101.05899990000002 L 140.46500000270055,-101.05899990000002 L 140.44294615330426,-101.05791646437356 L 140.42110469603372,-101.05467658961977 L 140.3996859835239,-101.04931148200085 L 140.3996859820579,-101.04931148143015 L 140.37889626668345,-101.0418728020852 L 140.3589357814721,-101.03243219566163 L 140.3399967560023,-101.02108058151644 L 140.32226157543602,-101.00792727528798 L 140.30590104487555,-100.99309895512445 L 140.29107272580373,-100.97673842576852 L 140.27791942027932,-100.95900324641897 L 140.26656780637106,-100.94006422282561 L 140.25712719921881,-100.92010373696101 L 140.24968852022485,-100.89931402256751 L 140.24432341038025,-100.87789530396637 L 140.24108353567578,-100.85605384770028 L 140.2400001,-100.8339999972997 L 140.2400001,-100.33400000270031 z" fill="#66cc99" fill-rule="evenodd" opacity="0.6" stroke="#555555" stroke-width="0.02"/>
			<path d="M 153.1420001,-96.7530000027003 L 153.14296315462644,-96.73339658230411 L 153.14584304238025,-96.7139819540336 L 153.15061202699914,-96.694943100524 L 153.15061202756985,-96.69494309905787 L 153.1572241859148,-96.67646335268341 L 153.16561583733,-96.65872069626121 L 153.17570615948347,-96.64188601100243 L 153.18739798571198,-96.62612140743603 L 153.20057871487555,-96.61157871487553 L 153.21512140623133,-96.59839798680387 L 153.23088601064225,-96.5867061597506 L 153.24772069617467,-96.57661583737091 L 153.26546334903887,-96.56822418721885 L 153.283943098818,-96.56161202765568 L 153.3029819540338,-96.55684304238021 L 153.32239658129973,-96.5539631546758 L 153.34200000270062,-96.55300009999999 L 153.7419999972994,-96.55300009999999 L 153.76160341769577,-96.55396315462644 L 153.7810180459662,-96.55684304238021 L 153.80005689947615,-96.56161202699919 L 153.8000569009421,-96.56161202756985 L 153.81853664731656,-96.5682241859148 L 153.83627929952792,-96.57661583533837 L 153.8531139889978,-96.58670615948365 L 153.86887859256396,-96.59839798571198 L 153.88342128512446,-96.61157871487553 L 153.89660201319626,-96.62612140623149 L 153.90829383872065,-96.64188600858097 L 153.91838416262897,-96.65872069617446 L 153.92677581278122,-96.67646334903904 L 153.93338797234432,-96.69494309881799 L 153.93815695761975,-96.7139819540336 L 153.9410368453242,-96.7333965812997 L 153.94199989999998,-96.7530000027003 L 153.94199989999998,-97.3029999972997 L 153.94103684537353,-97.32260341769589 L 153.93815695761978,-97.34201804596634 L 153.93338797300086,-97.361056899476 L 153.93338797243015,-97.36105690094213 L 153.9267758140852,-97.3795366473166 L 153.91838416267,-97.39727930373878 L 153.90829384051648,-97.41411398899764 L 153.89660201428816,-97.42987859256378 L 153.88342128512446,-97.44442128512446 L 153.86887859376867,-97.45760201319612 L 153.85311398935792,-97.46929384024928 L 153.83627930382534,-97.47938416262909 L 153.81853665096114,-97.48777581278115 L 153.80005690118207,-97.4943879723443 L 153.7810180459662,-97.49915695761979 L 153.76160341870028,-97.5020368453242 L 153.7419999972994,-97.5029999 L 153.34200000270062,-97.5029999 L 153.32239658230424,-97.50203684537355 L 153.3029819540338,-97.49915695761979 L 153.28394310052386,-97.49438797300081 L 153.2839430990579,-97.49438797243016 L 153.26546335268344,-97.4877758140852 L 153.2477207004721,-97.47938416466162 L 153.2308860110021,-97.46929384051629 L 153.21512140743604,-97.45760201428801 L 153.20057871487555,-97.44442128512446 L 153.18739798680372,-97.4298785937685 L 153.17570615975066,-97.41411398935787 L 153.16561583737106,-97.39727930382561 L 153.15722418721876,-97.3795366509609 L 153.15061202765568,-97.36105690118201 L 153.14584304238022,-97.34201804596634 L 153.14296315467578,-97.3226034187003 L 153.1420001,-97.3029999972997 L 153.1420001,-96.7530000027003 z" fill="#66cc99" fill-rule="evenodd" opacity="0.6" stroke="#555555" stroke-width="0.02"/>
			<path d="M 151.4920001,-96.7530000027003 L 151.49296315462647,-96.73339658230411 L 151.49584304238024,-96.7139819540336 L 151.50061202699914,-96.694943100524 L 151.50061202756984,-96.69494309905787 L 151.5072241859148,-96.67646335268341 L 151.51561583733,-96.65872069626121 L 151.52570615948335,-96.64188601100261 L 151.53739798571183,-96.62612140743622 L 151.55057871487554,-96.61157871487553 L 151.56512140623133,-96.59839798680387 L 151.58088600858122,-96.5867061612792 L 151.59772069617466,-96.57661583737091 L 151.6154633490389,-96.56822418721883 L 151.633943098818,-96.56161202765568 L 151.6529819540337,-96.55684304238024 L 151.67239658129972,-96.5539631546758 L 151.6920000027006,-96.55300009999999 L 152.0919999972994,-96.55300009999999 L 152.11160341769576,-96.55396315462644 L 152.1310180459662,-96.55684304238021 L 152.15005689947614,-96.56161202699919 L 152.1500569009421,-96.56161202756985 L 152.16853664731656,-96.5682241859148 L 152.1862792995279,-96.57661583533837 L 152.20311398899779,-96.58670615948365 L 152.21887859256395,-96.59839798571198 L 152.23342128512445,-96.61157871487553 L 152.24660201319628,-96.62612140623149 L 152.25829383872065,-96.64188600858097 L 152.268384162629,-96.65872069617446 L 152.2767758127812,-96.67646334903904 L 152.28338797077515,-96.69494309443245 L 152.28815695761975,-96.71398195403361 L 152.29103684532421,-96.7333965812997 L 152.2919999,-96.7530000027003 L 152.2919999,-97.3029999972997 L 152.29103684537355,-97.32260341769589 L 152.28815695761978,-97.34201804596634 L 152.28338797301856,-97.36105689940548 L 152.28338797243015,-97.36105690094213 L 152.2767758140852,-97.3795366473166 L 152.26838416267003,-97.39727930373878 L 152.25829384051647,-97.41411398899764 L 152.24660201428802,-97.42987859256397 L 152.23342128512445,-97.44442128512446 L 152.21887859376866,-97.45760201319612 L 152.20311398935792,-97.46929384024928 L 152.1862793038255,-97.47938416262902 L 152.16853665096113,-97.48777581278115 L 152.15005690118207,-97.4943879723443 L 152.1310180459662,-97.49915695761979 L 152.1116034187003,-97.5020368453242 L 152.0919999972994,-97.5029999 L 151.6920000027006,-97.5029999 L 151.67239658230423,-97.50203684537355 L 151.6529819540337,-97.49915695761976 L 151.63394310052385,-97.49438797300081 L 151.6339430990579,-97.49438797243016 L 151.61546335268346,-97.4877758140852 L 151.59772070047208,-97.47938416466162 L 151.58088601100232,-97.46929384051644 L 151.56512140743604,-97.45760201428801 L 151.55057871487554,-97.44442128512446 L 151.53739798680374,-97.4298785937685 L 151.52570616127937,-97.41411399141904 L 151.51561583737103,-97.39727930382554 L 151.50722418721875,-97.3795366509609 L 151.50061202765568,-97.36105690118201 L 151.49584304238022,-97.34201804596634 L 151.4929631546758,-97.3226034187003 L 151.4920001,-97.3029999972997 L 151.4920001,-96.7530000027003 z" fill="#66cc99" fill-rule="evenodd" opacity="0.6" stroke="#555555" stroke-width="0.02"/>
			<path d="M 131.9060930816758,-97.1113145597003 L 131.90200010013265,-97.028 L 131.90609308162647,-96.9446854413041 L 131.91833261038025,-96.8621732440336 L 131.9386008089991,-96.78125805952403 L 131.93860080956983,-96.78125805805789 L 131.96670248991478,-96.70271912068344 L 132.00236701533,-96.62731281726116 L 132.04525091148335,-96.55576536000261 L 132.09494119171197,-96.48876577243607 L 132.15095930687554,-96.42695930687555 L 132.21276577123132,-96.37094119280387 L 132.27976535964208,-96.32125091175072 L 132.35131281717466,-96.2783670153709 L 132.42671911703889,-96.24270249121884 L 132.50525805343236,-96.2146008112249 L 132.5861732440337,-96.19433261038023 L 132.66868544029973,-96.1820930816758 L 132.752,-96.17800010013266 L 132.83531455869576,-96.18209308162645 L 132.9178267559662,-96.1943326103802 L 132.9987419404058,-96.21460080898156 L 132.9987419419421,-96.21460080956984 L 133.07728087931656,-96.2427024899148 L 133.15268717852788,-96.27836701333837 L 133.2242346399977,-96.32125091148356 L 133.29123422756396,-96.37094119171198 L 133.35304069312446,-96.42695930687555 L 133.40905880719626,-96.48876577123148 L 133.45874908672064,-96.55576535758097 L 133.50163298462897,-96.62731281717446 L 133.5372975087812,-96.702719117039 L 133.56539919034432,-96.78125805781804 L 133.58566738961974,-96.8621732440336 L 133.5979069183242,-96.94468544029972 L 133.60199989986737,-97.028 L 133.59790691837355,-97.1113145586959 L 133.58566738961977,-97.19382675596634 L 133.5653991910009,-97.27474194047596 L 133.56539919043016,-97.27474194194211 L 133.5372975100852,-97.35328087931657 L 133.50163298466998,-97.42868718273884 L 133.45874908851653,-97.50023463999757 L 133.40905880828817,-97.56723422756379 L 133.35304069312446,-97.62904069312447 L 133.29123422876867,-97.68505880719613 L 133.2242346424188,-97.73474908672081 L 133.15268718282533,-97.7776329846291 L 133.07728088296113,-97.81329750878115 L 132.99874194656763,-97.8413991887751 L 132.9178267559662,-97.8616673896198 L 132.8353145597003,-97.87390691832421 L 132.752,-97.87799989986733 L 132.66868544130423,-97.87390691837356 L 132.5861732440337,-97.86166738961977 L 132.50525805959418,-97.84139919101844 L 132.5052580580579,-97.84139919043015 L 132.42671912068346,-97.81329751008519 L 132.3513128214721,-97.77763298666163 L 132.27976536000222,-97.73474908851635 L 132.21276577243592,-97.68505880828789 L 132.15095930687554,-97.62904069312447 L 132.09494119280373,-97.56723422876853 L 132.04525091327938,-97.50023464241903 L 132.00236701537102,-97.42868718282554 L 131.96670249121877,-97.35328088296096 L 131.93860080965567,-97.27474194218196 L 131.91833261038022,-97.19382675596634 L 131.9060930816758,-97.1113145597003 z" fill="#66cc99" fill-rule="evenodd" opacity="0.6" stroke="#555555" stroke-width="0.02"/>
			<path d="M 140.2419631546758,-97.1846034187003 L 140.2410001,-97.1649999972997 L 140.2410001,-96.7650000027003 L 140.24196315462646,-96.74539658230411 L 140.2448430423802,-96.72598195403366 L 140.24961202699913,-96.706943100524 L 140.24961202756984,-96.70694309905787 L 140.2562241859148,-96.68846335268341 L 140.26461583732998,-96.67072069626121 L 140.27470615948334,-96.65388601100261 L 140.28639798571183,-96.63812140743622 L 140.29957871487554,-96.62357871487553 L 140.31412140623132,-96.61039798680387 L 140.3298860085812,-96.5987061612792 L 140.34672069617466,-96.58861583737091 L 140.36446334903889,-96.58022418721883 L 140.38294309443236,-96.5736120292249 L 140.4019819540337,-96.56884304238024 L 140.42139658129972,-96.5659631546758 L 140.4410000027006,-96.56500009999999 L 140.9909999972994,-96.56500009999999 L 141.01060341769576,-96.56596315462644 L 141.0300180459662,-96.56884304238021 L 141.04905689947614,-96.57361202699919 L 141.0490569009421,-96.57361202756985 L 141.06753664731656,-96.5802241859148 L 141.0852792995279,-96.58861583533837 L 141.1021139889978,-96.59870615948365 L 141.11787859256395,-96.61039798571198 L 141.13242128512445,-96.62357871487553 L 141.14560201319628,-96.63812140623149 L 141.15729383872065,-96.65388600858097 L 141.167384162629,-96.67072069617446 L 141.1757758127812,-96.68846334903904 L 141.18238797077515,-96.70694309443245 L 141.18715695761978,-96.72598195403366 L 141.19003684532422,-96.7453965812997 L 141.1909999,-96.7650000027003 L 141.1909999,-97.1649999972997 L 141.19003684537356,-97.1846034176959 L 141.18715695761975,-97.20401804596641 L 141.18238797301856,-97.22305689940548 L 141.18238797243015,-97.22305690094213 L 141.1757758140852,-97.2415366473166 L 141.16738416267003,-97.2592793037388 L 141.15729384051647,-97.27611398899764 L 141.14560201428804,-97.29187859256393 L 141.13242128512445,-97.30642128512446 L 141.11787859376867,-97.31960201319613 L 141.10211398935775,-97.3312938402494 L 141.08527930382533,-97.3413841626291 L 141.06753665096113,-97.34977581278115 L 141.04905690118198,-97.35638797234432 L 141.0300180459662,-97.3611569576198 L 141.0106034187003,-97.36403684532421 L 140.9909999972994,-97.36499990000002 L 140.4410000027006,-97.36499990000002 L 140.42139658230423,-97.36403684537356 L 140.4019819540337,-97.36115695761977 L 140.3829431005942,-97.35638797301844 L 140.3829430990579,-97.35638797243016 L 140.36446335268346,-97.34977581408519 L 140.34672070047208,-97.34138416466163 L 140.32988601100237,-97.33129384051648 L 140.314121407436,-97.31960201428798 L 140.29957871487554,-97.30642128512446 L 140.28639798680373,-97.2918785937685 L 140.27470616127937,-97.27611399141904 L 140.264615837371,-97.2592793038255 L 140.25622418721878,-97.24153665096097 L 140.24961202765567,-97.223056901182 L 140.24484304238024,-97.20401804596641 L 140.2419631546758,-97.1846034187003 z" fill="#66cc99" fill-rule="evenodd" opacity="0.6" stroke="#555555" stroke-width="0.02"/>
			<path d="M 149.5860001,-96.7530000027003 L 149.58696315462646,-96.73339658230411 L 149.58984304238024,-96.7139819540336 L 149.59461202699913,-96.694943100524 L 149.59461202756984,-96.69494309905787 L 149.6012241859148,-96.67646335268341 L 149.60961583732998,-96.65872069626121 L 149.61970615948334,-96.64188601100261 L 149.631397985712,-96.62612140743603 L 149.64457871487554,-96.61157871487553 L 149.65912140623132,-96.59839798680387 L 149.6748860085812,-96.5867061612792 L 149.69172069617466,-96.57661583737091 L 149.70946334903888,-96.56822418721883 L 149.72794309443236,-96.5616120292249 L 149.74698195403369,-96.55684304238024 L 149.76639658129972,-96.5539631546758 L 149.7860000027006,-96.55300009999999 L 150.1859999972994,-96.55300009999999 L 150.20560341769576,-96.55396315462644 L 150.22501804596618,-96.55684304238021 L 150.24405689940582,-96.56161202698156 L 150.2440569009421,-96.56161202756985 L 150.26253664731655,-96.5682241859148 L 150.2802792995279,-96.57661583533837 L 150.29711398899764,-96.58670615948353 L 150.3128785925641,-96.59839798571211 L 150.32742128512447,-96.61157871487553 L 150.34060201319627,-96.62612140623149 L 150.35229383872064,-96.64188600858097 L 150.36238416262898,-96.65872069617446 L 150.37077581278123,-96.67646334903904 L 150.37738797077515,-96.69494309443245 L 150.38215695761974,-96.71398195403361 L 150.3850368453242,-96.7333965812997 L 150.3859999,-96.7530000027003 L 150.3859999,-97.3029999972997 L 150.38503684537355,-97.32260341769589 L 150.38215695761977,-97.34201804596634 L 150.37738797301856,-97.36105689940548 L 150.37738797243014,-97.36105690094213 L 150.37077581408522,-97.3795366473166 L 150.36238416267003,-97.39727930373878 L 150.35229384051647,-97.41411398899764 L 150.340602014288,-97.42987859256397 L 150.32742128512447,-97.44442128512446 L 150.3128785937687,-97.45760201319612 L 150.2971139914188,-97.46929383872082 L 150.2802793038255,-97.47938416262902 L 150.26253665096112,-97.48777581278115 L 150.24405690118192,-97.49438797234436 L 150.22501804596618,-97.49915695761979 L 150.2056034187003,-97.5020368453242 L 150.1859999972994,-97.5029999 L 149.7860000027006,-97.5029999 L 149.76639658230422,-97.50203684537355 L 149.74698195403369,-97.49915695761976 L 149.72794310052393,-97.49438797300083 L 149.7279430990579,-97.49438797243016 L 149.70946335268346,-97.4877758140852 L 149.69172070047208,-97.47938416466162 L 149.67488601100231,-97.46929384051644 L 149.65912140743603,-97.45760201428801 L 149.64457871487554,-97.44442128512446 L 149.63139798680373,-97.4298785937685 L 149.61970616127937,-97.41411399141904 L 149.60961583737102,-97.39727930382554 L 149.60122418721875,-97.3795366509609 L 149.59461202765567,-97.36105690118201 L 149.5898430423802,-97.34201804596634 L 149.5869631546758,-97.3226034187003 L 149.5860001,-97.3029999972997 L 149.5860001,-96.7530000027003 z" fill="#66cc99" fill-rule="evenodd" opacity="0.6" stroke="#555555" stroke-width="0.02"/>
			<path d="M 147.9360001,-96.7530000027003 L 147.93696315462645,-96.73339658230411 L 147.93984304238026,-96.7139819540336 L 147.94461202699912,-96.694943100524 L 147.94461202756983,-96.69494309905787 L 147.95122418591478,-96.67646335268341 L 147.95961583732998,-96.65872069626121 L 147.96970615948348,-96.64188601100243 L 147.981397985712,-96.62612140743603 L 147.99457871487553,-96.61157871487553 L 148.00912140623132,-96.59839798680387 L 148.0248860085812,-96.5867061612792 L 148.0417206961745,-96.57661583737098 L 148.05946334903888,-96.56822418721885 L 148.07794309443236,-96.5616120292249 L 148.09698195403382,-96.55684304238021 L 148.1163965812997,-96.5539631546758 L 148.1360000027006,-96.55300009999999 L 148.5359999972994,-96.55300009999999 L 148.55560341769578,-96.55396315462644 L 148.57501804596632,-96.55684304238024 L 148.5940568994058,-96.56161202698156 L 148.5940569009421,-96.56161202756985 L 148.61253664731655,-96.5682241859148 L 148.63027929952793,-96.57661583533837 L 148.64711398899763,-96.58670615948353 L 148.66287859256408,-96.59839798571211 L 148.67742128512447,-96.61157871487553 L 148.69060201319627,-96.62612140623149 L 148.70229383872064,-96.64188600858097 L 148.71238416262898,-96.65872069617446 L 148.72077581278123,-96.67646334903904 L 148.72738797234433,-96.69494309881799 L 148.73215695761976,-96.7139819540336 L 148.7350368453242,-96.7333965812997 L 148.7359999,-96.7530000027003 L 148.7359999,-97.3029999972997 L 148.73503684537354,-97.32260341769589 L 148.7321569576198,-97.34201804596634 L 148.72738797300087,-97.361056899476 L 148.72738797243017,-97.36105690094213 L 148.72077581408521,-97.3795366473166 L 148.71238416267002,-97.39727930373878 L 148.7022938405167,-97.41411398899737 L 148.690602014288,-97.42987859256397 L 148.67742128512447,-97.44442128512446 L 148.66287859376868,-97.45760201319612 L 148.6471139914188,-97.46929383872082 L 148.63027930382535,-97.47938416262909 L 148.61253665096112,-97.48777581278117 L 148.59405690118192,-97.49438797234436 L 148.57501804596632,-97.49915695761976 L 148.5556034187003,-97.5020368453242 L 148.5359999972994,-97.5029999 L 148.1360000027006,-97.5029999 L 148.11639658230425,-97.50203684537355 L 148.09698195403382,-97.49915695761979 L 148.07794310052392,-97.49438797300083 L 148.0779430990579,-97.49438797243016 L 148.05946335268345,-97.4877758140852 L 148.0417207004721,-97.47938416466162 L 148.0248860110023,-97.46929384051644 L 148.0091214074359,-97.45760201428789 L 147.99457871487553,-97.44442128512446 L 147.98139798680373,-97.4298785937685 L 147.96970615975067,-97.41411398935787 L 147.95961583737105,-97.39727930382561 L 147.95122418721874,-97.3795366509609 L 147.94461202765567,-97.36105690118201 L 147.93984304238023,-97.34201804596634 L 147.9369631546758,-97.3226034187003 L 147.9360001,-97.3029999972997 L 147.9360001,-96.7530000027003 z" fill="#66cc99" fill-rule="evenodd" opacity="0.6" stroke="#555555" stroke-width="0.02"/>
			<path d="M 131.9060930816758,-99.6513145597003 L 131.90200010013265,-99.568 L 131.90609308162647,-99.48468544130411 L 131.91833261038025,-99.40217324403359 L 131.93860080899907,-99.32125805952413 L 131.93860080956983,-99.3212580580579 L 131.96670248991478,-99.24271912068343 L 132.00236701533,-99.16731281726115 L 132.04525091148332,-99.09576536000263 L 132.094941191712,-99.02876577243603 L 132.15095930687554,-98.96695930687554 L 132.21276577123132,-98.91094119280388 L 132.27976535964225,-98.8612509117506 L 132.35131281717466,-98.81836701537091 L 132.42671911703889,-98.78270249121884 L 132.50525805343236,-98.7546008112249 L 132.5861732440337,-98.73433261038024 L 132.66868544029973,-98.7220930816758 L 132.752,-98.71800010013266 L 132.83531455869576,-98.72209308162644 L 132.9178267559662,-98.7343326103802 L 132.9987419404058,-98.75460080898156 L 132.9987419419421,-98.75460080956985 L 133.07728087931656,-98.78270248991481 L 133.15268717852788,-98.81836701333837 L 133.22423463999763,-98.86125091148352 L 133.29123422756396,-98.91094119171198 L 133.35304069312446,-98.96695930687554 L 133.40905880719626,-99.02876577123148 L 133.45874908824933,-99.09576535964213 L 133.50163298462897,-99.16731281717445 L 133.5372975087812,-99.24271911703899 L 133.5653991903444,-99.32125805781824 L 133.58566738961974,-99.40217324403359 L 133.5979069183242,-99.4846854402997 L 133.60199989986737,-99.568 L 133.59790691837355,-99.65131455869589 L 133.58566738961974,-99.7338267559664 L 133.5653991910009,-99.81474194047597 L 133.56539919043016,-99.81474194194212 L 133.5372975100852,-99.89328087931656 L 133.50163298466998,-99.96868718273885 L 133.45874908851647,-100.04023463999764 L 133.40905880828817,-100.10723422756378 L 133.35304069312446,-100.16904069312446 L 133.29123422876867,-100.22505880719613 L 133.2242346424188,-100.2747490867208 L 133.15268718282533,-100.31763298462909 L 133.07728088296113,-100.35329750878115 L 132.9987419421819,-100.38139919034435 L 132.9178267559662,-100.40166738961979 L 132.8353145597003,-100.4139069183242 L 132.752,-100.41799989986734 L 132.66868544130423,-100.41390691837356 L 132.5861732440337,-100.40166738961976 L 132.50525805952392,-100.38139919100082 L 132.5052580580579,-100.38139919043016 L 132.42671912068346,-100.3532975100852 L 132.3513128214721,-100.31763298666162 L 132.27976536000222,-100.27474908851634 L 132.21276577243577,-100.22505880828778 L 132.15095930687554,-100.16904069312446 L 132.09494119280373,-100.10723422876852 L 132.04525091327938,-100.04023464241904 L 132.00236701537102,-99.96868718282555 L 131.9667024912188,-99.89328088296101 L 131.93860080965567,-99.81474194218197 L 131.91833261038025,-99.7338267559664 L 131.9060930816758,-99.6513145597003 z" fill="#66cc99" fill-rule="evenodd" opacity="0.6" stroke="#555555" stroke-width="0.02"/>
			<path d="M 149.64008353567579,-99.56105384770028 L 149.6390001,-99.5389999972997 L 149.6390001,-99.0890000027003 L 149.64008353562645,-99.0669461533041 L 149.64332341038025,-99.04510469603359 L 149.64868851798144,-99.02368598359455 L 149.64868851856986,-99.02368598205788 L 149.6561271979148,-99.00289626668344 L 149.66556780633002,-98.98293577726115 L 149.67691941848352,-98.96399675600236 L 149.69007272471197,-98.94626157543607 L 149.70490104487553,-98.92990104487554 L 149.72126157423133,-98.91507272580387 L 149.7389967535811,-98.90191942027926 L 149.75793577717462,-98.89056780637094 L 149.77789626303888,-98.88112719921884 L 149.79868598181807,-98.87368851865565 L 149.82010469603372,-98.86832341038021 L 149.84194615229976,-98.8650835356758 L 149.86400000270055,-98.86400009999998 L 150.36399999729946,-98.86400009999998 L 150.38605384669575,-98.86508353562644 L 150.4078953039664,-98.86832341038024 L 150.42931401640578,-98.87368851798155 L 150.4293140179421,-98.87368851856985 L 150.45010373331655,-98.88112719791481 L 150.4700642185279,-98.89056780433837 L 150.4890032439979,-98.90191941848371 L 150.506738424564,-98.91507272471202 L 150.52309895512445,-98.92990104487554 L 150.53792727419628,-98.94626157423149 L 150.5510805797207,-98.96399675358103 L 150.56243219362898,-98.98293577717445 L 150.5718728007812,-99.00289626303899 L 150.57931148134432,-99.02368598181803 L 150.58467658961976,-99.04510469603359 L 150.5879164643242,-99.06694615229972 L 150.5889999,-99.0890000027003 L 150.5889999,-99.5389999972997 L 150.58791646437354,-99.5610538466959 L 150.58467658961976,-99.58289530396641 L 150.5793114820009,-99.60431401647597 L 150.57931148143015,-99.60431401794212 L 150.5718728020852,-99.62510373331656 L 150.56243219367,-99.64506422273885 L 150.5510805815167,-99.66400324399737 L 150.53792727528804,-99.68173842456393 L 150.52309895512445,-99.69809895512446 L 150.50673842576867,-99.71292727419613 L 150.48900324435803,-99.7260805812492 L 150.47006422282539,-99.73743219362906 L 150.45010373696113,-99.74687280078115 L 150.42931402256764,-99.7543114797751 L 150.4078953039663,-99.75967658961977 L 150.38605384770025,-99.7629164643242 L 150.36399999729946,-99.76399990000002 L 149.86400000270055,-99.76399990000002 L 149.84194615330426,-99.76291646437356 L 149.82010469603372,-99.75967658961979 L 149.7986859835239,-99.75431148200084 L 149.7986859820579,-99.75431148143015 L 149.77789626668346,-99.74687280208519 L 149.7579357814721,-99.73743219566163 L 149.7389967560023,-99.72608058151644 L 149.72126157543602,-99.71292727528798 L 149.70490104487553,-99.69809895512446 L 149.69007272580373,-99.68173842576851 L 149.67691941875066,-99.66400324435787 L 149.66556780637103,-99.64506422282555 L 149.65612719921882,-99.62510373696101 L 149.64868852022485,-99.60431402256751 L 149.64332341038025,-99.5828953039664 L 149.64008353567579,-99.56105384770028 z" fill="#66cc99" fill-rule="evenodd" opacity="0.6" stroke="#555555" stroke-width="0.02"/>
			<path d="M 140.2419631546758,-98.8346034187003 L 140.2410001,-98.8149999972997 L 140.2410001,-98.41500000270031 L 140.24196315462646,-98.3953965823041 L 140.24484304238024,-98.37598195403359 L 140.24961202699913,-98.356943100524 L 140.24961202756984,-98.35694309905787 L 140.2562241859148,-98.3384633526834 L 140.26461583732998,-98.3207206962612 L 140.27470615948332,-98.30388601100263 L 140.28639798571183,-98.28812140743622 L 140.29957871487554,-98.27357871487554 L 140.31412140623132,-98.26039798680387 L 140.3298860085812,-98.24870616127919 L 140.34672069617466,-98.2386158373709 L 140.36446334903889,-98.23022418721884 L 140.3829430988181,-98.22361202765565 L 140.4019819540337,-98.21884304238023 L 140.42139658129972,-98.21596315467579 L 140.4410000027006,-98.21500009999998 L 140.9909999972994,-98.21500009999998 L 141.01060341769576,-98.21596315462644 L 141.0300180459662,-98.2188430423802 L 141.04905689947614,-98.22361202699919 L 141.0490569009421,-98.22361202756984 L 141.06753664731656,-98.2302241859148 L 141.0852792995279,-98.23861583533836 L 141.1021139889978,-98.24870615948365 L 141.11787859256398,-98.26039798571202 L 141.13242128512445,-98.27357871487554 L 141.14560201319628,-98.2881214062315 L 141.15729384024934,-98.30388601064213 L 141.167384162629,-98.32072069617445 L 141.1757758127812,-98.33846334903903 L 141.18238797077515,-98.35694309443245 L 141.18715695761975,-98.3759819540336 L 141.19003684532422,-98.39539658129972 L 141.1909999,-98.41500000270031 L 141.1909999,-98.8149999972997 L 141.19003684537356,-98.83460341769589 L 141.18715695761978,-98.85401804596634 L 141.18238797301856,-98.87305689940548 L 141.18238797243015,-98.87305690094213 L 141.1757758140852,-98.8915366473166 L 141.16738416267003,-98.90927930373878 L 141.15729384051647,-98.92611398899764 L 141.14560201428802,-98.94187859256397 L 141.13242128512445,-98.95642128512446 L 141.11787859376867,-98.96960201319612 L 141.10211398935792,-98.98129384024928 L 141.08527930382533,-98.99138416262909 L 141.06753665096113,-98.99977581278115 L 141.04905690118198,-99.00638797234431 L 141.0300180459662,-99.01115695761979 L 141.0106034187003,-99.0140368453242 L 140.9909999972994,-99.0149999 L 140.4410000027006,-99.0149999 L 140.42139658230423,-99.01403684537355 L 140.4019819540337,-99.01115695761976 L 140.3829431005942,-99.00638797301843 L 140.3829430990579,-99.00638797243015 L 140.36446335268346,-98.9997758140852 L 140.34672070047208,-98.99138416466162 L 140.32988601100232,-98.98129384051644 L 140.31412140743603,-98.96960201428801 L 140.29957871487554,-98.95642128512446 L 140.28639798680373,-98.94187859376851 L 140.27470616127937,-98.92611399141904 L 140.26461583737103,-98.90927930382554 L 140.25622418721875,-98.8915366509609 L 140.24961202765567,-98.87305690118201 L 140.2448430423802,-98.85401804596634 L 140.2419631546758,-98.8346034187003 z" fill="#66cc99" fill-rule="evenodd" opacity="0.6" stroke="#555555" stroke-width="0.02"/>
			<path d="M 144.55996315467578,-98.77160341870028 L 144.5590001,-98.75199999729969 L 144.5590001,-98.35200000270031 L 144.55996315462644,-98.3323965823041 L 144.56284304238022,-98.31298195403366 L 144.56761202698144,-98.29394310059452 L 144.56761202756985,-98.29394309905787 L 144.5742241859148,-98.2754633526834 L 144.58261583732997,-98.25772069626122 L 144.59270615948353,-98.24088601100236 L 144.60439798571198,-98.22512140743603 L 144.61757871487555,-98.21057871487554 L 144.63212140623133,-98.19739798680388 L 144.64788601064208,-98.18570615975072 L 144.66472069617467,-98.17561583737091 L 144.68246334903887,-98.16722418721885 L 144.70094309881793,-98.1606120276557 L 144.7199819540338,-98.15584304238021 L 144.7393965812997,-98.1529631546758 L 144.7590000027006,-98.15200009999998 L 145.3089999972994,-98.15200009999998 L 145.32860341769577,-98.15296315462645 L 145.3480180459663,-98.15584304238024 L 145.36705689947607,-98.16061202699917 L 145.3670569009421,-98.16061202756984 L 145.38553664731654,-98.1672241859148 L 145.40327929952792,-98.17561583533838 L 145.42011398899768,-98.18570615948356 L 145.43587859256397,-98.19739798571199 L 145.45042128512446,-98.21057871487554 L 145.46360201319627,-98.2251214062315 L 145.47529383872063,-98.24088600858096 L 145.48538416262897,-98.25772069617446 L 145.49377581278125,-98.2754633490391 L 145.50038797234433,-98.29394309881799 L 145.5051569576198,-98.31298195403366 L 145.5080368453242,-98.33239658129972 L 145.5089999,-98.35200000270031 L 145.5089999,-98.75199999729969 L 145.50803684537354,-98.7716034176959 L 145.50515695761976,-98.79101804596641 L 145.50038797300087,-98.810056899476 L 145.50038797243016,-98.81005690094213 L 145.4937758140852,-98.8285366473166 L 145.48538416267002,-98.8462793037388 L 145.47529384051668,-98.86311398899737 L 145.46360201428817,-98.87887859256378 L 145.45042128512446,-98.89342128512446 L 145.43587859376868,-98.90660201319612 L 145.4201139914188,-98.91829383872081 L 145.40327930382534,-98.92838416262909 L 145.38553665096111,-98.93677581278116 L 145.3670569011819,-98.94338797234435 L 145.3480180459663,-98.94815695761976 L 145.32860341870028,-98.95103684532421 L 145.3089999972994,-98.95199990000002 L 144.7590000027006,-98.95199990000002 L 144.73939658230424,-98.95103684537357 L 144.7199819540338,-98.94815695761979 L 144.70094310052386,-98.94338797300081 L 144.7009430990579,-98.94338797243016 L 144.68246335268344,-98.9367758140852 L 144.6647207004721,-98.92838416466162 L 144.6478860110021,-98.91829384051628 L 144.63212140743605,-98.90660201428801 L 144.61757871487555,-98.89342128512446 L 144.60439798680372,-98.8788785937685 L 144.59270615975066,-98.86311398935787 L 144.582615837371,-98.84627930382555 L 144.5742241872188,-98.82853665096097 L 144.56761202922485,-98.81005690556755 L 144.56284304238025,-98.7910180459664 L 144.55996315467578,-98.77160341870028 z" fill="#66cc99" fill-rule="evenodd" opacity="0.6" stroke="#555555" stroke-width="0.02"/>
			<path d="M 144.55996315467578,-97.1216034187003 L 144.5590001,-97.1019999972997 L 144.5590001,-96.7020000027003 L 144.55996315462644,-96.68239658230411 L 144.56284304238025,-96.6629819540336 L 144.56761202698146,-96.64394310059446 L 144.56761202756985,-96.64394309905788 L 144.5742241859148,-96.62546335268341 L 144.58261583732997,-96.60772069626121 L 144.59270615948347,-96.59088601100242 L 144.60439798571198,-96.57512140743603 L 144.61757871487555,-96.56057871487555 L 144.63212140623133,-96.54739798680387 L 144.64788601064225,-96.5357061597506 L 144.66472069617467,-96.5256158373709 L 144.68246334903887,-96.51722418721886 L 144.70094309881802,-96.51061202765568 L 144.7199819540338,-96.5058430423802 L 144.7393965812997,-96.5029631546758 L 144.7590000027006,-96.50200009999999 L 145.3089999972994,-96.50200009999999 L 145.32860341769577,-96.50296315462644 L 145.3480180459663,-96.50584304238023 L 145.3670568994058,-96.51061202698156 L 145.3670569009421,-96.51061202756985 L 145.38553664731654,-96.51722418591481 L 145.40327929952792,-96.52561583533837 L 145.42011398899763,-96.53570615948352 L 145.43587859256397,-96.54739798571198 L 145.45042128512446,-96.56057871487555 L 145.46360201319627,-96.57512140623149 L 145.47529383872063,-96.59088600858097 L 145.48538416262897,-96.60772069617445 L 145.49377581278122,-96.62546334903904 L 145.5003879723444,-96.6439430988182 L 145.50515695761976,-96.6629819540336 L 145.5080368453242,-96.6823965812997 L 145.5089999,-96.7020000027003 L 145.5089999,-97.1019999972997 L 145.50803684537354,-97.1216034176959 L 145.50515695761976,-97.1410180459664 L 145.50038797300087,-97.16005689947599 L 145.50038797243016,-97.16005690094212 L 145.4937758140852,-97.17853664731659 L 145.48538416267002,-97.19627930373879 L 145.47529384051668,-97.21311398899736 L 145.46360201428817,-97.22887859256379 L 145.45042128512446,-97.24342128512446 L 145.43587859376868,-97.25660201319613 L 145.4201139914188,-97.26829383872081 L 145.40327930382534,-97.2783841626291 L 145.38553665096111,-97.28677581278116 L 145.36705690556764,-97.2933879707751 L 145.3480180459663,-97.29815695761977 L 145.32860341870028,-97.3010368453242 L 145.3089999972994,-97.30199990000001 L 144.7590000027006,-97.30199990000001 L 144.73939658230424,-97.30103684537356 L 144.7199819540338,-97.2981569576198 L 144.70094310052386,-97.29338797300082 L 144.7009430990579,-97.29338797243015 L 144.68246335268344,-97.28677581408519 L 144.6647207004721,-97.27838416466163 L 144.6478860110022,-97.26829384051635 L 144.63212140743605,-97.25660201428802 L 144.61757871487555,-97.24342128512446 L 144.60439798680372,-97.22887859376851 L 144.59270615975066,-97.21311398935786 L 144.58261583737104,-97.19627930382562 L 144.5742241872188,-97.17853665096096 L 144.56761202922485,-97.16005690556754 L 144.56284304238025,-97.14101804596639 L 144.55996315467578,-97.1216034187003 z" fill="#66cc99" fill-rule="evenodd" opacity="0.6" stroke="#555555" stroke-width="0.02"/>
			<path d="M 129.974987594,-85.85200000270031 L 129.97510803562642,-85.84954835630437 L 129.9754682003803,-85.84712032003338 L 129.9760646179991,-85.84473928852405 L 129.97606461856984,-85.84473928705786 L 129.97689154991485,-85.84242816668326 L 129.97794102932986,-85.84020922926136 L 129.97920294248334,-85.8381038540026 L 129.980665147712,-85.83613229843603 L 129.98231355787553,-85.83431355787555 L 129.9841322972314,-85.83266514880378 L 129.98610385364188,-85.83120294275086 L 129.98820922917488,-85.8299410293708 L 129.99042816303893,-85.82889155121882 L 129.9927392824324,-85.82806462022485 L 129.99512032003375,-85.82746820038022 L 129.99754835529976,-85.82710803567579 L 130.00000000270057,-85.82698759399999 L 155.95599999729941,-85.82698759399999 L 155.95845164369578,-85.82710803562644 L 155.96087967996615,-85.82746820038021 L 155.96326071140592,-85.8280646179816 L 155.96326071294214,-85.82806461856985 L 155.96557183501906,-85.82889155052395 L 155.96779076652803,-85.82994102733845 L 155.96989614599758,-85.83120294248349 L 155.9718677015641,-85.8326651477121 L 155.97368644212446,-85.83431355787555 L 155.97533485119627,-85.83613229723147 L 155.97679705572065,-85.83810385158098 L 155.97805897062912,-85.84020922917469 L 155.9791084487812,-85.8424281630389 L 155.97993538134438,-85.84473928681813 L 155.98053179961968,-85.84712032003338 L 155.9808919643242,-85.84954835529996 L 155.981012406,-85.85200000270031 L 155.981012406,-103.9919999972997 L 155.98089196437357,-103.99445164369564 L 155.98053179961968,-103.99687967996655 L 155.97993538200086,-103.99926071147604 L 155.97993538143015,-103.99926071294215 L 155.97910845008516,-104.00157183331673 L 155.97805897067013,-104.00379077073863 L 155.97679705751648,-104.00589614599765 L 155.97533485228817,-104.0078677015638 L 155.97368644212446,-104.00968644212446 L 155.9718677027686,-104.01133485119621 L 155.96989614841888,-104.01279705572075 L 155.96779077082522,-104.01405897062916 L 155.96557183696115,-104.01510844878115 L 155.96326071756758,-104.01593537977514 L 155.96087967996624,-104.01653179961978 L 155.9584516447003,-104.0168919643242 L 155.95599999729941,-104.017012406 L 130.00000000270057,-104.017012406 L 129.9975483563042,-104.01689196437356 L 129.99512032003383,-104.0165317996198 L 129.9927392885942,-104.01593538201845 L 129.99273928705784,-104.01593538143014 L 129.99042816498093,-104.01510844947605 L 129.98820923347196,-104.01405897266156 L 129.9861038540023,-104.01279705751644 L 129.98413229843604,-104.01133485228802 L 129.98231355787553,-104.00968644212446 L 129.98066514880372,-104.00786770276852 L 129.97920294427936,-104.00589614841903 L 129.9779410293709,-104.00379077082538 L 129.9768915512188,-104.00157183696109 L 129.9760646186557,-103.99926071318208 L 129.9754682003803,-103.99687967996655 L 129.9751080356758,-103.99445164470005 L 129.974987594,-103.9919999972997 L 129.974987594,-85.85200000270031 z M 130.025012516,-85.877012406 L 130.02501251109393,-85.87701240612041 L 130.02501251011375,-85.87701240616856 L 130.02501250034612,-85.8770124071306 L 130.0250124993754,-85.87701240727459 L 130.02501248975193,-85.87701240918881 L 130.02501248879997,-85.87701240942725 L 130.02501247940756,-85.8770124122764 L 130.02501247848357,-85.87701241260702 L 130.02501246941802,-85.8770124163621 L 130.0250124685309,-85.87701241678168 L 130.02501245987608,-85.87701242140773 L 130.02501245903434,-85.87701242191224 L 130.0250124508738,-85.87701242736496 L 130.02501245008557,-85.87701242794955 L 130.02501244250016,-85.87701243417479 L 130.02501244177301,-85.87701243483383 L 130.0250124348345,-85.8770124417723 L 130.02501243417547,-85.87701244249942 L 130.02501242794835,-85.87701245008718 L 130.02501242736378,-85.87701245087541 L 130.02501242191227,-85.87701245903433 L 130.02501242140775,-85.87701245987607 L 130.02501241678226,-85.87701246852968 L 130.02501241636267,-85.87701246941681 L 130.02501241260657,-85.87701247848484 L 130.02501241227597,-85.87701247940883 L 130.02501240942772,-85.87701248879827 L 130.02501240918926,-85.87701248975021 L 130.02501240727432,-85.87701249937722 L 130.02501240713033,-85.87701250034796 L 130.02501240616874,-85.87701251011079 L 130.02501240612057,-85.87701251109095 L 130.025012406,-85.877012516 L 130.025012406,-103.966987484 L 130.02501240612057,-103.96698748890904 L 130.02501240616874,-103.9669874898892 L 130.02501240713033,-103.96698749965203 L 130.02501240727432,-103.96698750062278 L 130.02501240918926,-103.96698751024978 L 130.02501240942772,-103.96698751120172 L 130.02501241227597,-103.96698752059116 L 130.02501241260657,-103.96698752151515 L 130.02501241636267,-103.96698753058318 L 130.02501241678226,-103.96698753147031 L 130.02501242140775,-103.96698754012392 L 130.02501242191227,-103.96698754096566 L 130.02501242736378,-103.96698754912458 L 130.02501242794835,-103.96698754991282 L 130.02501243417547,-103.96698755750057 L 130.0250124348345,-103.9669875582277 L 130.02501244177301,-103.96698756516616 L 130.02501244250016,-103.9669875658252 L 130.02501245008557,-103.96698757205044 L 130.0250124508738,-103.96698757263503 L 130.02501245903434,-103.96698757808775 L 130.02501245987608,-103.96698757859227 L 130.0250124685309,-103.96698758321831 L 130.02501246941802,-103.96698758363789 L 130.02501247848357,-103.96698758739298 L 130.02501247940756,-103.9669875877236 L 130.02501248879997,-103.96698759057274 L 130.02501248975193,-103.96698759081119 L 130.0250124993754,-103.9669875927254 L 130.02501250034612,-103.9669875928694 L 130.02501251011375,-103.96698759383143 L 130.02501251109393,-103.96698759387958 L 130.025012516,-103.96698759399999 L 155.930987484,-103.96698759399999 L 155.93098748890608,-103.96698759387958 L 155.93098748988626,-103.96698759383143 L 155.9309874996539,-103.9669875928694 L 155.9309875006246,-103.9669875927254 L 155.9309875102481,-103.96698759081119 L 155.93098751120004,-103.96698759057274 L 155.93098752059245,-103.9669875877236 L 155.93098752151644,-103.96698758739298 L 155.930987530582,-103.96698758363789 L 155.93098753146913,-103.96698758321831 L 155.93098754012394,-103.96698757859227 L 155.93098754096567,-103.96698757808775 L 155.93098754912623,-103.96698757263503 L 155.93098754991445,-103.96698757205044 L 155.93098755749986,-103.9669875658252 L 155.930987558227,-103.96698756516616 L 155.9309875651655,-103.9669875582277 L 155.93098756582455,-103.96698755750057 L 155.93098757205166,-103.96698754991282 L 155.93098757263624,-103.96698754912458 L 155.93098757808775,-103.96698754096566 L 155.93098757859227,-103.96698754012392 L 155.93098758321776,-103.96698753147031 L 155.93098758363735,-103.96698753058318 L 155.93098758739345,-103.96698752151515 L 155.93098758772405,-103.96698752059116 L 155.9309875905723,-103.96698751120172 L 155.93098759081076,-103.96698751024978 L 155.9309875927257,-103.96698750062278 L 155.93098759286968,-103.96698749965203 L 155.93098759383128,-103.9669874898892 L 155.93098759387945,-103.96698748890904 L 155.93098759400002,-103.966987484 L 155.93098759400002,-85.877012516 L 155.93098759387945,-85.87701251109095 L 155.93098759383128,-85.87701251011079 L 155.93098759286968,-85.87701250034796 L 155.9309875927257,-85.87701249937722 L 155.93098759081076,-85.87701248975021 L 155.9309875905723,-85.87701248879827 L 155.93098758772405,-85.87701247940883 L 155.93098758739345,-85.87701247848484 L 155.93098758363735,-85.87701246941681 L 155.93098758321776,-85.87701246852968 L 155.93098757859227,-85.87701245987607 L 155.93098757808775,-85.87701245903433 L 155.93098757263624,-85.87701245087541 L 155.93098757205166,-85.87701245008718 L 155.93098756582455,-85.87701244249942 L 155.9309875651655,-85.8770124417723 L 155.930987558227,-85.87701243483383 L 155.93098755749986,-85.87701243417479 L 155.93098754991445,-85.87701242794955 L 155.93098754912623,-85.87701242736496 L 155.93098754096567,-85.87701242191224 L 155.93098754012394,-85.87701242140773 L 155.93098753146913,-85.87701241678168 L 155.930987530582,-85.8770124163621 L 155.93098752151644,-85.87701241260702 L 155.93098752059245,-85.8770124122764 L 155.93098751120004,-85.87701240942725 L 155.9309875102481,-85.87701240918881 L 155.9309875006246,-85.87701240727459 L 155.9309874996539,-85.8770124071306 L 155.93098748988626,-85.87701240616856 L 155.93098748890608,-85.87701240612041 L 155.930987484,-85.877012406 L 130.025012516,-85.877012406 z" fill="#66cc99" fill-rule="evenodd" opacity="0.6" stroke="#555555" stroke-width="0.02"/>
		</g>
	</g>
	 
</svg>
