<?xml version="1.0" ?>
<svg height="18.19002481200002mm" version="1.1" viewBox="129.974987594 -122.20703721800002 26.006024811999993 18.19002481200002" width="26.006024811999993mm" xmlns="http://www.w3.org/2000/svg" xmlns:xlink="http://www.w3.org/1999/xlink">
	<g transform="scale(1,-1)">
		<g>
			<path d="M 136.360281058,-101.11400588529969 L 136.360281058,-101.07473211470031 L 136.36220716774704,-101.03552526384941 L 136.3660566702056,-100.99644060546952 L 136.37181644880943,-100.95761133614035 L 136.37181644888605,-100.95761133544931 L 136.37947838035953,-100.91909220110843 L 136.38901635710698,-100.8810144641089 L 136.40041692835695,-100.84343181780915 L 136.40041692933232,-100.84343181576851 L 136.40041692972542,-100.84343181482491 L 136.40041693156985,-100.8434318100579 L 136.41364125174294,-100.80647231036896 L 136.42867067259317,-100.77018807659037 L 136.44545397943884,-100.73470275703106 L 136.4454539806453,-100.73470275428654 L 136.4639675057386,-100.7000663852348 L 136.48414816180878,-100.66639699445965 L 136.48414816346167,-100.66639699211272 L 136.50596750296145,-100.63374204335798 L 136.52935116274412,-100.60221282669605 L 136.5542661784367,-100.57185379194462 L 136.55426617850463,-100.57185379187149 L 136.58062764569118,-100.54276839587233 L 136.6083983958723,-100.51499764569117 L 136.6374837900526,-100.48863618015315 L 136.6678428266956,-100.46372116274445 L 136.69937204335812,-100.44033750296133 L 136.73202699007172,-100.41851816482543 L 136.765696385235,-100.39833750573847 L 136.80033275275198,-100.37982398134177 L 136.8003327529956,-100.37982398123947 L 136.80033275703107,-100.37982397943883 L 136.83581807659016,-100.36304067259329 L 136.87210230469196,-100.34801125369326 L 136.8721023080579,-100.34801125256985 L 136.9090618100579,-100.33478693156985 L 136.9090618148261,-100.33478692972496 L 136.9090618157697,-100.33478692933184 L 136.9090618158327,-100.33478692930173 L 136.94664445979322,-100.3233863581254 L 136.94664446172783,-100.32338635770344 L 136.98472220110855,-100.31384838035954 L 137.02324133541524,-100.30618644888982 L 137.02324133614036,-100.30618644880941 L 137.0620706054692,-100.30042667020564 L 137.1011552620994,-100.29657716783301 L 137.1403621147006,-100.29465105799999 L 137.1796358852994,-100.29465105799999 L 137.2188427361506,-100.29657716774705 L 137.2579273945308,-100.30042667020564 L 137.29675666385964,-100.30618644880941 L 137.29675666455063,-100.30618644888604 L 137.33527579889144,-100.31384838035954 L 137.37335353827217,-100.32338635770344 L 137.3733535384529,-100.32338635774286 L 137.41093618219105,-100.33478692835705 L 137.41093618423147,-100.33478692933232 L 137.41093618517507,-100.33478692972542 L 137.41093618522532,-100.33478692960479 L 137.4109361899421,-100.33478693156985 L 137.44789568963068,-100.3480112517428 L 137.48417992340984,-100.36304067259329 L 137.5196652407498,-100.37982397838925 L 137.5543016147648,-100.39833750573835 L 137.58797100554096,-100.41851816180919 L 137.58797100788726,-100.41851816346166 L 137.62062595664187,-100.44033750296133 L 137.65215517330424,-100.4637211627443 L 137.6825142080553,-100.4886361784366 L 137.6825142081285,-100.48863617850462 L 137.71159960412768,-100.51499764569117 L 137.73937035430882,-100.54276839587233 L 137.76573181984668,-100.57185379005244 L 137.79064683725588,-100.60221282669605 L 137.81403049703854,-100.63374204335798 L 137.83584983517468,-100.6663969900719 L 137.8560304942614,-100.7000663852348 L 137.8745440187814,-100.73470275298246 L 137.87454402056116,-100.73470275703106 L 137.89132732740683,-100.77018807659037 L 137.90635674630653,-100.80647230469144 L 137.90635674743015,-100.80647230805789 L 137.91958106843015,-100.8434318100579 L 137.91958107027457,-100.84343181482491 L 137.91958107066768,-100.84343181576851 L 137.91958107069814,-100.84343181583225 L 137.9309816417899,-100.8810144595139 L 137.9309816422966,-100.88101446172782 L 137.94051961964047,-100.91909220110843 L 137.94818155111014,-100.95761133541508 L 137.94818155119057,-100.95761133614035 L 137.9539413297944,-100.99644060546952 L 137.95779083216698,-101.03552526209907 L 137.959716942,-101.07473211470031 L 137.959716942,-101.11400588529969 L 137.95779083225295,-101.15321273615059 L 137.9539413297944,-101.19229739453048 L 137.94818155119057,-101.23112666385965 L 137.94818155111395,-101.23112666455069 L 137.94051961964047,-101.26964579889157 L 137.93098164289302,-101.3077235358911 L 137.91958107164305,-101.34530618219085 L 137.91958107066768,-101.34530618423149 L 137.91958107027457,-101.34530618517509 L 137.91958106843015,-101.34530618994211 L 137.90635674825705,-101.38226568963104 L 137.89132732740683,-101.41854992340961 L 137.87454402056116,-101.45403524296893 L 137.8745440193547,-101.45403524571344 L 137.8560304942614,-101.4886716147652 L 137.83584983819122,-101.52234100554035 L 137.83584983653833,-101.52234100788728 L 137.81403049703854,-101.55499595664202 L 137.79064683725588,-101.58652517330395 L 137.7657318215633,-101.61688420805538 L 137.76573182149536,-101.61688420812851 L 137.73937035430882,-101.64596960412766 L 137.71159960412768,-101.67374035430883 L 137.68251420994739,-101.70010181984685 L 137.6521551733044,-101.72501683725555 L 137.62062595664187,-101.74840049703867 L 137.58797100992828,-101.77021983517457 L 137.554301614765,-101.79040049426153 L 137.519665247248,-101.80891401865823 L 137.5196652470044,-101.80891401876053 L 137.51966524296893,-101.80891402056118 L 137.48417992340984,-101.82569732740671 L 137.44789569530803,-101.84072674630674 L 137.4478956919421,-101.84072674743015 L 137.4109361899421,-101.85395106843015 L 137.4109361851739,-101.85395107027504 L 137.4109361842303,-101.85395107066816 L 137.4109361841673,-101.85395107069827 L 137.37335354020678,-101.8653516418746 L 137.37335353827217,-101.86535164229656 L 137.33527579889144,-101.87488961964046 L 137.29675666458476,-101.88255155111018 L 137.29675666385964,-101.88255155119059 L 137.2579273945308,-101.88831132979436 L 137.2188427379006,-101.892160832167 L 137.1796358852994,-101.89408694200002 L 137.1403621147006,-101.89408694200002 L 137.1011552638494,-101.89216083225296 L 137.0620706054692,-101.88831132979436 L 137.02324133614036,-101.88255155119059 L 137.02324133544937,-101.88255155111396 L 136.98472220110855,-101.87488961964046 L 136.94664446172783,-101.86535164229656 L 136.9466444615471,-101.86535164225714 L 136.9090618178093,-101.85395107164305 L 136.9090618157697,-101.85395107066816 L 136.9090618148261,-101.85395107027504 L 136.9090618100579,-101.85395106843015 L 136.8721023103693,-101.8407267482572 L 136.83581807659016,-101.82569732740671 L 136.8003327592502,-101.80891402161075 L 136.7656963852352,-101.79040049426165 L 136.73202699445903,-101.77021983819081 L 136.73202699211274,-101.77021983653835 L 136.69937204335812,-101.74840049703867 L 136.66784282669576,-101.7250168372557 L 136.63748379194465,-101.70010182156334 L 136.6374837918715,-101.70010182149538 L 136.6083983958723,-101.67374035430883 L 136.58062764569118,-101.64596960412766 L 136.55426618015332,-101.61688420994756 L 136.52935116274412,-101.58652517330395 L 136.50596750296145,-101.55499595664202 L 136.4841481648253,-101.5223410099281 L 136.4639675057386,-101.4886716147652 L 136.44545398121866,-101.4540352470177 L 136.44545397943884,-101.45403524296893 L 136.42867067259317,-101.41854992340961 L 136.41364125369347,-101.38226569530856 L 136.41364125256985,-101.38226569194211 L 136.40041693156985,-101.34530618994211 L 136.40041692972542,-101.34530618517509 L 136.40041692933232,-101.34530618423149 L 136.40041692930185,-101.34530618416775 L 136.38901635821009,-101.3077235404861 L 136.3890163577034,-101.30772353827219 L 136.37947838035953,-101.26964579889157 L 136.37181644888986,-101.23112666458492 L 136.37181644880943,-101.23112666385965 L 136.3660566702056,-101.19229739453048 L 136.36220716783302,-101.15321273790093 L 136.360281058,-101.11400588529969 z" fill="#66cc99" fill-rule="evenodd" opacity="0.6" stroke="#555555" stroke-width="0.02"/>
			<path d="M 145.489859058,-100.6089758852997 L 145.489859058,-100.5697021147003 L 145.49178516774705,-100.5304952638494 L 145.49563467020562,-100.49141060546951 L 145.5013944488094,-100.45258133614034 L 145.50139444888603,-100.45258133544931 L 145.50905638035954,-100.41406220110844 L 145.518594357107,-100.37598446410891 L 145.52999492835696,-100.33840181780914 L 145.52999492933233,-100.3384018157685 L 145.52999492972543,-100.3384018148249 L 145.52999493156986,-100.33840181005789 L 145.54321925174295,-100.30144231036896 L 145.55824867259318,-100.26515807659038 L 145.57503197943885,-100.22967275703107 L 145.57503198064532,-100.22967275428655 L 145.59354550573858,-100.1950363852348 L 145.61372616180893,-100.16136699445944 L 145.61372616346165,-100.16136699211273 L 145.63554550296143,-100.128712043358 L 145.6589291627441,-100.09718282669606 L 145.68384417843686,-100.06682379194442 L 145.68384417850461,-100.06682379187149 L 145.7102056456912,-100.03773839587234 L 145.73797639587232,-100.00996764569116 L 145.76706179005262,-99.98360618015316 L 145.7974208266956,-99.95869116274444 L 145.82895004335813,-99.93530750296134 L 145.8616049900717,-99.91348816482544 L 145.895274385235,-99.89330750573848 L 145.929910752752,-99.87479398134177 L 145.9299107529956,-99.87479398123946 L 145.92991075703108,-99.87479397943882 L 145.96539607659017,-99.85801067259328 L 146.00168030469197,-99.84298125369325 L 146.0016803080579,-99.84298125256984 L 146.0386398100579,-99.82975693156985 L 146.0386398148261,-99.82975692972495 L 146.0386398157697,-99.82975692933184 L 146.0386398158327,-99.82975692930172 L 146.0762224597932,-99.81835635812541 L 146.07622246172784,-99.81835635770344 L 146.11430020110853,-99.80881838035954 L 146.1528193354153,-99.80115644888983 L 146.15281933614034,-99.80115644880942 L 146.1916486054692,-99.79539667020565 L 146.23073326209936,-99.79154716783302 L 146.2699401147006,-99.789621058 L 146.30921388529939,-99.789621058 L 146.34842073615062,-99.79154716774705 L 146.38750539453082,-99.79539667020565 L 146.42633466385965,-99.80115644880942 L 146.42633466455064,-99.80115644888605 L 146.46485379889145,-99.80881838035954 L 146.50293153827218,-99.81835635770344 L 146.5029315384529,-99.81835635774286 L 146.54051418219103,-99.82975692835704 L 146.54051418423145,-99.82975692933232 L 146.54051418517506,-99.82975692972542 L 146.5405141852253,-99.82975692960478 L 146.5405141899421,-99.82975693156985 L 146.57747368963066,-99.8429812517428 L 146.61375792340982,-99.85801067259328 L 146.64924324074977,-99.87479397838925 L 146.68387961476478,-99.89330750573836 L 146.71754900554097,-99.9134881618092 L 146.71754900788727,-99.91348816346166 L 146.75020395664188,-99.93530750296134 L 146.78173317330425,-99.9586911627443 L 146.8120922080557,-99.98360617843699 L 146.81209220812852,-99.98360617850463 L 146.84117760412767,-100.00996764569116 L 146.86894835430883,-100.03773839587234 L 146.8953098198467,-100.06682379005244 L 146.9202248372559,-100.09718282669606 L 146.94360849703855,-100.128712043358 L 146.9654278351747,-100.16136699007191 L 146.9856084942614,-100.1950363852348 L 147.00412201878135,-100.2296727529823 L 147.00412202056117,-100.22967275703107 L 147.0209053274068,-100.26515807659038 L 147.03593474630654,-100.30144230469143 L 147.03593474743016,-100.30144230805789 L 147.04915906843016,-100.33840181005789 L 147.04915907027458,-100.3384018148249 L 147.04915907066768,-100.3384018157685 L 147.04915907069815,-100.33840181583224 L 147.0605596417899,-100.37598445951392 L 147.06055964229657,-100.37598446172782 L 147.07009761964045,-100.41406220110844 L 147.07775955111015,-100.4525813354151 L 147.07775955119058,-100.45258133614034 L 147.0835193297944,-100.49141060546951 L 147.087368832167,-100.5304952620991 L 147.089294942,-100.5697021147003 L 147.089294942,-100.6089758852997 L 147.08736883225296,-100.64818273615059 L 147.0835193297944,-100.68726739453048 L 147.07775955119058,-100.72609666385965 L 147.07775955111396,-100.72609666455068 L 147.07009761964045,-100.76461579889157 L 147.060559642893,-100.8026935358911 L 147.04915907164295,-100.84027618219109 L 147.04915907066768,-100.8402761842315 L 147.04915907027458,-100.8402761851751 L 147.04915906843016,-100.84027618994212 L 147.03593474825706,-100.87723568963105 L 147.0209053274068,-100.91351992340962 L 147.00412202056117,-100.94900524296894 L 147.0041220193547,-100.94900524571345 L 146.9856084942614,-100.98364161476519 L 146.96542783819106,-101.01731100554056 L 146.96542783653834,-101.01731100788727 L 146.94360849703855,-101.04996595664201 L 146.9202248372559,-101.08149517330395 L 146.89530982156313,-101.11185420805558 L 146.89530982149537,-101.1118542081285 L 146.86894835430883,-101.14093960412767 L 146.84117760412767,-101.16871035430884 L 146.8120922099474,-101.19507181984685 L 146.78173317330442,-101.21998683725555 L 146.75020395664188,-101.24337049703867 L 146.7175490099283,-101.26518983517457 L 146.68387961476498,-101.28537049426153 L 146.64924324724814,-101.30388401865818 L 146.6492432470044,-101.30388401876054 L 146.6492432429689,-101.30388402056118 L 146.61375792340982,-101.32066732740671 L 146.577473695308,-101.33569674630675 L 146.5774736919421,-101.33569674743015 L 146.5405141899421,-101.34892106843016 L 146.5405141851739,-101.34892107027505 L 146.5405141842303,-101.34892107066817 L 146.54051418416728,-101.34892107069828 L 146.5029315402068,-101.36032164187459 L 146.50293153827218,-101.36032164229655 L 146.46485379889145,-101.36985961964047 L 146.4263346645847,-101.37752155111018 L 146.42633466385965,-101.37752155119058 L 146.38750539453082,-101.38328132979436 L 146.3484207379006,-101.38713083216699 L 146.30921388529939,-101.38905694200001 L 146.2699401147006,-101.38905694200001 L 146.2307332638494,-101.38713083225295 L 146.1916486054692,-101.38328132979436 L 146.15281933614034,-101.37752155119058 L 146.15281933544935,-101.37752155111396 L 146.11430020110853,-101.36985961964047 L 146.07622246172784,-101.36032164229655 L 146.0762224615471,-101.36032164225713 L 146.0386398178092,-101.34892107164302 L 146.0386398157697,-101.34892107066817 L 146.0386398148261,-101.34892107027505 L 146.0386398100579,-101.34892106843016 L 146.00168031036932,-101.33569674825719 L 145.96539607659017,-101.32066732740671 L 145.92991075925022,-101.30388402161076 L 145.8952743852352,-101.28537049426164 L 145.86160499445896,-101.26518983819075 L 145.86160499211272,-101.26518983653834 L 145.82895004335813,-101.24337049703867 L 145.79742082669577,-101.21998683725569 L 145.7670617919447,-101.1950718215634 L 145.7670617918715,-101.19507182149538 L 145.73797639587232,-101.16871035430884 L 145.7102056456912,-101.14093960412767 L 145.6838441801533,-101.11185420994755 L 145.6589291627441,-101.08149517330395 L 145.63554550296143,-101.04996595664201 L 145.6137261648253,-101.0173110099281 L 145.59354550573858,-100.98364161476519 L 145.57503198121867,-100.94900524701771 L 145.57503197943885,-100.94900524296894 L 145.55824867259318,-100.91351992340962 L 145.54321925369348,-100.8772356953085 L 145.54321925256986,-100.87723569194212 L 145.52999493156986,-100.84027618994212 L 145.52999492972543,-100.8402761851751 L 145.52999492933233,-100.8402761842315 L 145.52999492930186,-100.84027618416776 L 145.5185943582101,-100.80269354048609 L 145.51859435770342,-100.80269353827218 L 145.50905638035954,-100.76461579889157 L 145.50139444888984,-100.72609666458492 L 145.5013944488094,-100.72609666385965 L 145.49563467020562,-100.68726739453048 L 145.49178516783303,-100.64818273790092 L 145.489859058,-100.6089758852997 z" fill="#66cc99" fill-rule="evenodd" opacity="0.6" stroke="#555555" stroke-width="0.02"/>
			<path d="M 131.9060930816758,-99.6513145597003 L 131.90200010013265,-99.568 L 131.90609308162647,-99.48468544130411 L 131.91833261038025,-99.40217324403359 L 131.93860080899907,-99.32125805952413 L 131.93860080956983,-99.3212580580579 L 131.96670248991478,-99.24271912068343 L 132.00236701533,-99.16731281726115 L 132.04525091148332,-99.09576536000263 L 132.094941191712,-99.02876577243603 L 132.15095930687554,-98.96695930687554 L 132.21276577123132,-98.91094119280388 L 132.27976535964225,-98.8612509117506 L 132.35131281717466,-98.81836701537091 L 132.42671911703889,-98.78270249121884 L 132.50525805343236,-98.7546008112249 L 132.5861732440337,-98.73433261038024 L 132.66868544029973,-98.7220930816758 L 132.752,-98.71800010013266 L 132.83531455869576,-98.72209308162644 L 132.9178267559662,-98.7343326103802 L 132.9987419404058,-98.75460080898156 L 132.9987419419421,-98.75460080956985 L 133.07728087931656,-98.78270248991481 L 133.15268717852788,-98.81836701333837 L 133.22423463999763,-98.86125091148352 L 133.29123422756396,-98.91094119171198 L 133.35304069312446,-98.96695930687554 L 133.40905880719626,-99.02876577123148 L 133.45874908824933,-99.09576535964213 L 133.50163298462897,-99.16731281717445 L 133.5372975087812,-99.24271911703899 L 133.5653991903444,-99.32125805781824 L 133.58566738961974,-99.40217324403359 L 133.5979069183242,-99.4846854402997 L 133.60199989986737,-99.568 L 133.59790691837355,-99.65131455869589 L 133.58566738961974,-99.7338267559664 L 133.5653991910009,-99.81474194047597 L 133.56539919043016,-99.81474194194212 L 133.5372975100852,-99.89328087931656 L 133.50163298466998,-99.96868718273885 L 133.45874908851647,-100.04023463999764 L 133.40905880828817,-100.10723422756378 L 133.35304069312446,-100.16904069312446 L 133.29123422876867,-100.22505880719613 L 133.2242346424188,-100.2747490867208 L 133.15268718282533,-100.31763298462909 L 133.07728088296113,-100.35329750878115 L 132.9987419421819,-100.38139919034435 L 132.9178267559662,-100.40166738961979 L 132.8353145597003,-100.4139069183242 L 132.752,-100.41799989986734 L 132.66868544130423,-100.41390691837356 L 132.5861732440337,-100.40166738961976 L 132.50525805952392,-100.38139919100082 L 132.5052580580579,-100.38139919043016 L 132.42671912068346,-100.3532975100852 L 132.3513128214721,-100.31763298666162 L 132.27976536000222,-100.27474908851634 L 132.21276577243577,-100.22505880828778 L 132.15095930687554,-100.16904069312446 L 132.09494119280373,-100.10723422876852 L 132.04525091327938,-100.04023464241904 L 132.00236701537102,-99.96868718282555 L 131.9667024912188,-99.89328088296101 L 131.93860080965567,-99.81474194218197 L 131.91833261038025,-99.7338267559664 L 131.9060930816758,-99.6513145597003 z" fill="#66cc99" fill-rule="evenodd" opacity="0.6" stroke="#555555" stroke-width="0.02"/>
			<path d="M 131.9060930816758,-97.1113145597003 L 131.90200010013265,-97.028 L 131.90609308162647,-96.9446854413041 L 131.91833261038025,-96.8621732440336 L 131.9386008089991,-96.78125805952403 L 131.93860080956983,-96.78125805805789 L 131.96670248991478,-96.70271912068344 L 132.00236701533,-96.62731281726116 L 132.04525091148335,-96.55576536000261 L 132.09494119171197,-96.48876577243607 L 132.15095930687554,-96.42695930687555 L 132.21276577123132,-96.37094119280387 L 132.27976535964208,-96.32125091175072 L 132.35131281717466,-96.2783670153709 L 132.42671911703889,-96.24270249121884 L 132.50525805343236,-96.2146008112249 L 132.5861732440337,-96.19433261038023 L 132.66868544029973,-96.1820930816758 L 132.752,-96.17800010013266 L 132.83531455869576,-96.18209308162645 L 132.9178267559662,-96.1943326103802 L 132.9987419404058,-96.21460080898156 L 132.9987419419421,-96.21460080956984 L 133.07728087931656,-96.2427024899148 L 133.15268717852788,-96.27836701333837 L 133.2242346399977,-96.32125091148356 L 133.29123422756396,-96.37094119171198 L 133.35304069312446,-96.42695930687555 L 133.40905880719626,-96.48876577123148 L 133.45874908672064,-96.55576535758097 L 133.50163298462897,-96.62731281717446 L 133.5372975087812,-96.702719117039 L 133.56539919034432,-96.78125805781804 L 133.58566738961974,-96.8621732440336 L 133.5979069183242,-96.94468544029972 L 133.60199989986737,-97.028 L 133.59790691837355,-97.1113145586959 L 133.58566738961977,-97.19382675596634 L 133.5653991910009,-97.27474194047596 L 133.56539919043016,-97.27474194194211 L 133.5372975100852,-97.35328087931657 L 133.50163298466998,-97.42868718273884 L 133.45874908851653,-97.50023463999757 L 133.40905880828817,-97.56723422756379 L 133.35304069312446,-97.62904069312447 L 133.29123422876867,-97.68505880719613 L 133.2242346424188,-97.73474908672081 L 133.15268718282533,-97.7776329846291 L 133.07728088296113,-97.81329750878115 L 132.99874194656763,-97.8413991887751 L 132.9178267559662,-97.8616673896198 L 132.8353145597003,-97.87390691832421 L 132.752,-97.87799989986733 L 132.66868544130423,-97.87390691837356 L 132.5861732440337,-97.86166738961977 L 132.50525805959418,-97.84139919101844 L 132.5052580580579,-97.84139919043015 L 132.42671912068346,-97.81329751008519 L 132.3513128214721,-97.77763298666163 L 132.27976536000222,-97.73474908851635 L 132.21276577243592,-97.68505880828789 L 132.15095930687554,-97.62904069312447 L 132.09494119280373,-97.56723422876853 L 132.04525091327938,-97.50023464241903 L 132.00236701537102,-97.42868718282554 L 131.96670249121877,-97.35328088296096 L 131.93860080965567,-97.27474194218196 L 131.91833261038022,-97.19382675596634 L 131.9060930816758,-97.1113145597003 z" fill="#66cc99" fill-rule="evenodd" opacity="0.6" stroke="#555555" stroke-width="0.02"/>
			<path d="M 131.9060930816758,-94.5713145597003 L 131.90200010013265,-94.488 L 131.90609308162647,-94.40468544130411 L 131.91833261038025,-94.32217324403359 L 131.9386008089991,-94.24125805952403 L 131.93860080956983,-94.24125805805788 L 131.96670248991478,-94.16271912068343 L 132.00236701533,-94.08731281726115 L 132.04525091148332,-94.01576536000263 L 132.094941191712,-93.94876577243603 L 132.15095930687554,-93.88695930687554 L 132.21276577123132,-93.83094119280388 L 132.27976535964225,-93.7812509117506 L 132.35131281717466,-93.73836701537091 L 132.42671911703889,-93.70270249121884 L 132.50525805343236,-93.6746008112249 L 132.5861732440337,-93.65433261038024 L 132.66868544029973,-93.6420930816758 L 132.752,-93.63800010013266 L 132.83531455869576,-93.64209308162644 L 132.9178267559662,-93.65433261038021 L 132.9987419404058,-93.67460080898157 L 132.9987419419421,-93.67460080956985 L 133.07728087931656,-93.70270248991481 L 133.15268717852788,-93.73836701333838 L 133.22423463999763,-93.78125091148353 L 133.29123422756396,-93.83094119171199 L 133.35304069312446,-93.88695930687554 L 133.40905880719626,-93.94876577123148 L 133.45874908824933,-94.01576535964213 L 133.50163298462894,-94.08731281717438 L 133.5372975087812,-94.16271911703899 L 133.56539919034432,-94.24125805781803 L 133.58566738961974,-94.32217324403359 L 133.5979069183242,-94.4046854402997 L 133.60199989986737,-94.488 L 133.59790691837355,-94.57131455869589 L 133.58566738961974,-94.6538267559664 L 133.5653991910009,-94.73474194047597 L 133.56539919043016,-94.73474194194212 L 133.5372975100852,-94.81328087931657 L 133.50163298466998,-94.88868718273885 L 133.45874908851647,-94.96023463999764 L 133.40905880828817,-95.02723422756378 L 133.35304069312446,-95.08904069312446 L 133.29123422876867,-95.14505880719612 L 133.2242346424188,-95.1947490867208 L 133.15268718282533,-95.23763298462909 L 133.07728088296113,-95.27329750878114 L 132.9987419421819,-95.30139919034436 L 132.9178267559662,-95.32166738961979 L 132.8353145597003,-95.3339069183242 L 132.752,-95.33799989986734 L 132.66868544130423,-95.33390691837356 L 132.5861732440337,-95.32166738961976 L 132.50525805952392,-95.30139919100083 L 132.5052580580579,-95.30139919043016 L 132.42671912068346,-95.27329751008519 L 132.3513128214721,-95.23763298666162 L 132.27976536000222,-95.19474908851635 L 132.21276577243592,-95.14505880828789 L 132.15095930687554,-95.08904069312446 L 132.09494119280373,-95.02723422876852 L 132.04525091327938,-94.96023464241904 L 132.00236701537102,-94.88868718282555 L 131.9667024912188,-94.81328088296101 L 131.93860080965567,-94.73474194218197 L 131.91833261038025,-94.6538267559664 L 131.9060930816758,-94.5713145597003 z" fill="#66cc99" fill-rule="evenodd" opacity="0.6" stroke="#555555" stroke-width="0.02"/>
			<path d="M 129.974987594,-85.85200000270031 L 129.97510803562642,-85.84954835630437 L 129.9754682003803,-85.84712032003338 L 129.9760646179991,-85.84473928852405 L 129.97606461856984,-85.84473928705786 L 129.97689154991485,-85.84242816668326 L 129.97794102932986,-85.84020922926136 L 129.97920294248334,-85.8381038540026 L 129.980665147712,-85.83613229843603 L 129.98231355787553,-85.83431355787555 L 129.9841322972314,-85.83266514880378 L 129.98610385364188,-85.83120294275086 L 129.98820922917488,-85.8299410293708 L 129.99042816303893,-85.82889155121882 L 129.9927392824324,-85.82806462022485 L 129.99512032003375,-85.82746820038022 L 129.99754835529976,-85.82710803567579 L 130.00000000270057,-85.82698759399999 L 155.95599999729941,-85.82698759399999 L 155.95845164369578,-85.82710803562644 L 155.96087967996615,-85.82746820038021 L 155.96326071140592,-85.8280646179816 L 155.96326071294214,-85.82806461856985 L 155.96557183501906,-85.82889155052395 L 155.96779076652803,-85.82994102733845 L 155.96989614599758,-85.83120294248349 L 155.9718677015641,-85.8326651477121 L 155.97368644212446,-85.83431355787555 L 155.97533485119627,-85.83613229723147 L 155.97679705572065,-85.83810385158098 L 155.97805897062912,-85.84020922917469 L 155.9791084487812,-85.8424281630389 L 155.97993538134438,-85.84473928681813 L 155.98053179961968,-85.84712032003338 L 155.9808919643242,-85.84954835529996 L 155.981012406,-85.85200000270031 L 155.981012406,-103.9919999972997 L 155.98089196437357,-103.99445164369564 L 155.98053179961968,-103.99687967996655 L 155.97993538200086,-103.99926071147604 L 155.97993538143015,-103.99926071294215 L 155.97910845008516,-104.00157183331673 L 155.97805897067013,-104.00379077073863 L 155.97679705751648,-104.00589614599765 L 155.97533485228817,-104.0078677015638 L 155.97368644212446,-104.00968644212446 L 155.9718677027686,-104.01133485119621 L 155.96989614841888,-104.01279705572075 L 155.96779077082522,-104.01405897062916 L 155.96557183696115,-104.01510844878115 L 155.96326071756758,-104.01593537977514 L 155.96087967996624,-104.01653179961978 L 155.9584516447003,-104.0168919643242 L 155.95599999729941,-104.017012406 L 130.00000000270057,-104.017012406 L 129.9975483563042,-104.01689196437356 L 129.99512032003383,-104.0165317996198 L 129.9927392885942,-104.01593538201845 L 129.99273928705784,-104.01593538143014 L 129.99042816498093,-104.01510844947605 L 129.98820923347196,-104.01405897266156 L 129.9861038540023,-104.01279705751644 L 129.98413229843604,-104.01133485228802 L 129.98231355787553,-104.00968644212446 L 129.98066514880372,-104.00786770276852 L 129.97920294427936,-104.00589614841903 L 129.9779410293709,-104.00379077082538 L 129.9768915512188,-104.00157183696109 L 129.9760646186557,-103.99926071318208 L 129.9754682003803,-103.99687967996655 L 129.9751080356758,-103.99445164470005 L 129.974987594,-103.9919999972997 L 129.974987594,-85.85200000270031 z M 130.025012516,-85.877012406 L 130.02501251109393,-85.87701240612041 L 130.02501251011375,-85.87701240616856 L 130.02501250034612,-85.8770124071306 L 130.0250124993754,-85.87701240727459 L 130.02501248975193,-85.87701240918881 L 130.02501248879997,-85.87701240942725 L 130.02501247940756,-85.8770124122764 L 130.02501247848357,-85.87701241260702 L 130.02501246941802,-85.8770124163621 L 130.0250124685309,-85.87701241678168 L 130.02501245987608,-85.87701242140773 L 130.02501245903434,-85.87701242191224 L 130.0250124508738,-85.87701242736496 L 130.02501245008557,-85.87701242794955 L 130.02501244250016,-85.87701243417479 L 130.02501244177301,-85.87701243483383 L 130.0250124348345,-85.8770124417723 L 130.02501243417547,-85.87701244249942 L 130.02501242794835,-85.87701245008718 L 130.02501242736378,-85.87701245087541 L 130.02501242191227,-85.87701245903433 L 130.02501242140775,-85.87701245987607 L 130.02501241678226,-85.87701246852968 L 130.02501241636267,-85.87701246941681 L 130.02501241260657,-85.87701247848484 L 130.02501241227597,-85.87701247940883 L 130.02501240942772,-85.87701248879827 L 130.02501240918926,-85.87701248975021 L 130.02501240727432,-85.87701249937722 L 130.02501240713033,-85.87701250034796 L 130.02501240616874,-85.87701251011079 L 130.02501240612057,-85.87701251109095 L 130.025012406,-85.877012516 L 130.025012406,-103.966987484 L 130.02501240612057,-103.96698748890904 L 130.02501240616874,-103.9669874898892 L 130.02501240713033,-103.96698749965203 L 130.02501240727432,-103.96698750062278 L 130.02501240918926,-103.96698751024978 L 130.02501240942772,-103.96698751120172 L 130.02501241227597,-103.96698752059116 L 130.02501241260657,-103.96698752151515 L 130.02501241636267,-103.96698753058318 L 130.02501241678226,-103.96698753147031 L 130.02501242140775,-103.96698754012392 L 130.02501242191227,-103.96698754096566 L 130.02501242736378,-103.96698754912458 L 130.02501242794835,-103.96698754991282 L 130.02501243417547,-103.96698755750057 L 130.0250124348345,-103.9669875582277 L 130.02501244177301,-103.96698756516616 L 130.02501244250016,-103.9669875658252 L 130.02501245008557,-103.96698757205044 L 130.0250124508738,-103.96698757263503 L 130.02501245903434,-103.96698757808775 L 130.02501245987608,-103.96698757859227 L 130.0250124685309,-103.96698758321831 L 130.02501246941802,-103.96698758363789 L 130.02501247848357,-103.96698758739298 L 130.02501247940756,-103.9669875877236 L 130.02501248879997,-103.96698759057274 L 130.02501248975193,-103.96698759081119 L 130.0250124993754,-103.9669875927254 L 130.02501250034612,-103.9669875928694 L 130.02501251011375,-103.96698759383143 L 130.02501251109393,-103.96698759387958 L 130.025012516,-103.96698759399999 L 155.930987484,-103.96698759399999 L 155.93098748890608,-103.96698759387958 L 155.93098748988626,-103.96698759383143 L 155.9309874996539,-103.9669875928694 L 155.9309875006246,-103.9669875927254 L 155.9309875102481,-103.96698759081119 L 155.93098751120004,-103.96698759057274 L 155.93098752059245,-103.9669875877236 L 155.93098752151644,-103.96698758739298 L 155.930987530582,-103.96698758363789 L 155.93098753146913,-103.96698758321831 L 155.93098754012394,-103.96698757859227 L 155.93098754096567,-103.96698757808775 L 155.93098754912623,-103.96698757263503 L 155.93098754991445,-103.96698757205044 L 155.93098755749986,-103.9669875658252 L 155.930987558227,-103.96698756516616 L 155.9309875651655,-103.9669875582277 L 155.93098756582455,-103.96698755750057 L 155.93098757205166,-103.96698754991282 L 155.93098757263624,-103.96698754912458 L 155.93098757808775,-103.96698754096566 L 155.93098757859227,-103.96698754012392 L 155.93098758321776,-103.96698753147031 L 155.93098758363735,-103.96698753058318 L 155.93098758739345,-103.96698752151515 L 155.93098758772405,-103.96698752059116 L 155.9309875905723,-103.96698751120172 L 155.93098759081076,-103.96698751024978 L 155.9309875927257,-103.96698750062278 L 155.93098759286968,-103.96698749965203 L 155.93098759383128,-103.9669874898892 L 155.93098759387945,-103.96698748890904 L 155.93098759400002,-103.966987484 L 155.93098759400002,-85.877012516 L 155.93098759387945,-85.87701251109095 L 155.93098759383128,-85.87701251011079 L 155.93098759286968,-85.87701250034796 L 155.9309875927257,-85.87701249937722 L 155.93098759081076,-85.87701248975021 L 155.9309875905723,-85.87701248879827 L 155.93098758772405,-85.87701247940883 L 155.93098758739345,-85.87701247848484 L 155.93098758363735,-85.87701246941681 L 155.93098758321776,-85.87701246852968 L 155.93098757859227,-85.87701245987607 L 155.93098757808775,-85.87701245903433 L 155.93098757263624,-85.87701245087541 L 155.93098757205166,-85.87701245008718 L 155.93098756582455,-85.87701244249942 L 155.9309875651655,-85.8770124417723 L 155.930987558227,-85.87701243483383 L 155.93098755749986,-85.87701243417479 L 155.93098754991445,-85.87701242794955 L 155.93098754912623,-85.87701242736496 L 155.93098754096567,-85.87701242191224 L 155.93098754012394,-85.87701242140773 L 155.93098753146913,-85.87701241678168 L 155.930987530582,-85.8770124163621 L 155.93098752151644,-85.87701241260702 L 155.93098752059245,-85.8770124122764 L 155.93098751120004,-85.87701240942725 L 155.9309875102481,-85.87701240918881 L 155.9309875006246,-85.87701240727459 L 155.9309874996539,-85.8770124071306 L 155.93098748988626,-85.87701240616856 L 155.93098748890608,-85.87701240612041 L 155.930987484,-85.877012406 L 130.025012516,-85.877012406 z" fill="#66cc99" fill-rule="evenodd" opacity="0.6" stroke="#555555" stroke-width="0.02"/>
			<path d="M 150.070939058,-92.2308338852997 L 150.070939058,-92.19156011470031 L 150.07286516774704,-92.1523532638494 L 150.0767146702056,-92.11326860546951 L 150.08247444880942,-92.07443933614034 L 150.08247444888605,-92.07443933544931 L 150.09013638035955,-92.03592020110842 L 150.099674357107,-91.9978424641089 L 150.11107492835706,-91.96025981780892 L 150.11107492933232,-91.96025981576851 L 150.11107492972542,-91.96025981482491 L 150.11107493156985,-91.96025981005789 L 150.12429925174294,-91.92330031036896 L 150.1393286725932,-91.88701607659038 L 150.15611197943883,-91.85153075703107 L 150.1561119806453,-91.85153075428656 L 150.1746255057386,-91.8168943852348 L 150.19480616180888,-91.78322499445949 L 150.19480616346166,-91.78322499211274 L 150.21662550296145,-91.75057004335798 L 150.24000916274412,-91.71904082669604 L 150.2649241784367,-91.68868179194462 L 150.26492417850463,-91.68868179187149 L 150.29128564569118,-91.65959639587234 L 150.3190563958723,-91.63182564569117 L 150.3481417900526,-91.60546418015315 L 150.37850082669559,-91.58054916274445 L 150.41003004335812,-91.55716550296134 L 150.4426849900717,-91.53534616482543 L 150.47635438523503,-91.51516550573847 L 150.51099075275198,-91.49665198134177 L 150.51099075299558,-91.49665198123947 L 150.51099075703107,-91.49665197943882 L 150.54647607659015,-91.47986867259328 L 150.58276030469202,-91.46483925369324 L 150.5827603080579,-91.46483925256985 L 150.61971981005792,-91.45161493156985 L 150.6197198148261,-91.45161492972495 L 150.6197198157697,-91.45161492933184 L 150.61971981583272,-91.45161492930173 L 150.65730245979321,-91.4402143581254 L 150.65730246172782,-91.44021435770344 L 150.69538020110855,-91.43067638035954 L 150.73389933541523,-91.42301444888982 L 150.73389933614035,-91.42301444880941 L 150.77272860546918,-91.41725467020564 L 150.8118132620994,-91.413405167833 L 150.8510201147006,-91.41147905799998 L 150.8902938852994,-91.41147905799998 L 150.9295007361506,-91.41340516774704 L 150.9685853945308,-91.41725467020564 L 151.00741466385966,-91.42301444880941 L 151.00741466455065,-91.42301444888604 L 151.04593379889147,-91.43067638035954 L 151.08401153827216,-91.44021435770344 L 151.0840115384529,-91.44021435774286 L 151.12159418219105,-91.45161492835705 L 151.12159418423147,-91.45161492933232 L 151.12159418517507,-91.45161492972542 L 151.12159418522532,-91.45161492960479 L 151.1215941899421,-91.45161493156985 L 151.15855368963068,-91.4648392517428 L 151.19483792340984,-91.47986867259328 L 151.23032324074978,-91.49665197838925 L 151.2649596147648,-91.51516550573835 L 151.29862900554096,-91.5353461618092 L 151.29862900788726,-91.53534616346165 L 151.33128395664187,-91.55716550296134 L 151.36281317330423,-91.5805491627443 L 151.39317220805535,-91.60546417843666 L 151.3931722081285,-91.60546417850462 L 151.42225760412768,-91.63182564569117 L 151.4500283543088,-91.65959639587234 L 151.4763898198467,-91.68868179005244 L 151.5013048372559,-91.71904082669604 L 151.52468849703857,-91.75057004335798 L 151.5465078351747,-91.78322499007191 L 151.56668849426143,-91.8168943852348 L 151.58520201878133,-91.8515307529823 L 151.58520202056116,-91.85153075703107 L 151.60198532740682,-91.88701607659038 L 151.61701474630652,-91.92330030469144 L 151.61701474743015,-91.92330030805789 L 151.63023906843014,-91.96025981005789 L 151.63023907027457,-91.96025981482491 L 151.63023907066767,-91.96025981576851 L 151.63023907069814,-91.96025981583225 L 151.6416396417899,-91.99784245951396 L 151.64163964229658,-91.99784246172781 L 151.65117761964046,-92.03592020110842 L 151.65883955111016,-92.07443933541511 L 151.6588395511906,-92.07443933614034 L 151.66459932979438,-92.11326860546951 L 151.66844883216697,-92.15235326209907 L 151.670374942,-92.19156011470031 L 151.670374942,-92.2308338852997 L 151.66844883225295,-92.27004073615059 L 151.66459932979438,-92.30912539453048 L 151.6588395511906,-92.34795466385965 L 151.65883955111397,-92.34795466455068 L 151.65117761964046,-92.38647379889157 L 151.641639642893,-92.4245515358911 L 151.63023907164305,-92.46213418219087 L 151.63023907066767,-92.4621341842315 L 151.63023907027457,-92.4621341851751 L 151.63023906843014,-92.46213418994212 L 151.61701474825705,-92.49909368963104 L 151.60198532740682,-92.53537792340963 L 151.58520202056116,-92.57086324296894 L 151.58520201935468,-92.57086324571345 L 151.56668849426143,-92.6054996147652 L 151.54650783819108,-92.63916900554057 L 151.54650783653835,-92.63916900788728 L 151.52468849703857,-92.67182395664202 L 151.5013048372559,-92.70335317330395 L 151.47638982156315,-92.73371220805558 L 151.4763898214954,-92.73371220812851 L 151.4500283543088,-92.76279760412767 L 151.42225760412768,-92.79056835430883 L 151.39317220994738,-92.81692981984685 L 151.3628131733044,-92.84184483725555 L 151.33128395664187,-92.86522849703867 L 151.29862900992828,-92.88704783517457 L 151.264959614765,-92.90722849426153 L 151.230323247248,-92.92574201865823 L 151.2303232470044,-92.92574201876053 L 151.23032324296892,-92.92574202056117 L 151.19483792340984,-92.94252532740671 L 151.15855369530803,-92.95755474630674 L 151.1585536919421,-92.95755474743015 L 151.1215941899421,-92.97077906843015 L 151.1215941851739,-92.97077907027504 L 151.1215941842303,-92.97077907066816 L 151.1215941841673,-92.97077907069827 L 151.08401154020677,-92.9821796418746 L 151.08401153827216,-92.98217964229656 L 151.04593379889147,-92.99171761964045 L 151.0074146645847,-92.99937955111018 L 151.00741466385966,-92.99937955119059 L 150.9685853945308,-93.00513932979436 L 150.92950073790064,-93.00898883216699 L 150.8902938852994,-93.01091494200001 L 150.8510201147006,-93.01091494200001 L 150.8118132638494,-93.00898883225295 L 150.77272860546918,-93.00513932979436 L 150.73389933614035,-92.99937955119059 L 150.73389933544937,-92.99937955111396 L 150.69538020110855,-92.99171761964045 L 150.65730246172782,-92.98217964229656 L 150.6573024615471,-92.98217964225714 L 150.6197198178093,-92.97077907164305 L 150.6197198157697,-92.97077907066816 L 150.6197198148261,-92.97077907027504 L 150.61971981005792,-92.97077906843015 L 150.58276031036934,-92.9575547482572 L 150.54647607659015,-92.94252532740671 L 150.5109907592502,-92.92574202161074 L 150.47635438523523,-92.90722849426164 L 150.44268499445903,-92.88704783819081 L 150.44268499211273,-92.88704783653834 L 150.41003004335812,-92.86522849703867 L 150.37850082669576,-92.84184483725569 L 150.3481417919443,-92.81692982156302 L 150.34814179187148,-92.81692982149538 L 150.3190563958723,-92.79056835430883 L 150.29128564569118,-92.76279760412767 L 150.26492418015332,-92.73371220994756 L 150.24000916274412,-92.70335317330395 L 150.21662550296145,-92.67182395664202 L 150.1948061648253,-92.6391690099281 L 150.1746255057386,-92.6054996147652 L 150.1561119812186,-92.57086324701754 L 150.15611197943883,-92.57086324296894 L 150.1393286725932,-92.53537792340963 L 150.12429925369347,-92.49909369530856 L 150.12429925256984,-92.49909369194211 L 150.11107493156985,-92.46213418994212 L 150.11107492972542,-92.4621341851751 L 150.11107492933232,-92.4621341842315 L 150.11107492930185,-92.46213418416777 L 150.0996743582101,-92.42455154048609 L 150.09967435770344,-92.42455153827218 L 150.09013638035955,-92.38647379889157 L 150.08247444888985,-92.34795466458492 L 150.08247444880942,-92.34795466385965 L 150.0767146702056,-92.30912539453048 L 150.07286516783302,-92.27004073790093 L 150.070939058,-92.2308338852997 z" fill="#66cc99" fill-rule="evenodd" opacity="0.6" stroke="#555555" stroke-width="0.02"/>
			<path d="M 147.5398523186758,-93.5504137027003 L 147.53600010013264,-93.472 L 147.53985231862646,-93.3935862983041 L 147.55137187438024,-93.31592776003363 L 147.57044782498147,-93.23977229359447 L 147.57044782556986,-93.23977229205789 L 147.59689646691479,-93.16585329268344 L 147.63046307933,-93.09488265426116 L 147.67082439148348,-93.02754387200243 L 147.71759171371195,-92.96448543743607 L 147.77031464587554,-92.90631464587554 L 147.82848543623132,-92.85359171480387 L 147.89154387164197,-92.8068243917508 L 147.95888265417477,-92.76646307937087 L 148.02985328903887,-92.73289646821885 L 148.10377229181802,-92.70644782565567 L 148.17992776003373,-92.68737187438022 L 148.25758629729972,-92.6758523186758 L 148.336,-92.67200010013266 L 148.41441370169576,-92.67585231862644 L 148.49207223996626,-92.68737187438022 L 148.56822770647605,-92.70644782499915 L 148.5682277079421,-92.70644782556984 L 148.64214670731656,-92.73289646691481 L 148.71311734152792,-92.76646307733837 L 148.7804561279977,-92.80682439148356 L 148.84351456256397,-92.85359171371198 L 148.90168535412445,-92.90631464587554 L 148.95440828519628,-92.96448543623148 L 149.0011756067207,-93.02754386958104 L 149.04153692062894,-93.09488265417438 L 149.0751035317812,-93.16585328903899 L 149.10155217434442,-93.23977229181824 L 149.12062812561976,-93.31592776003363 L 149.1321476813242,-93.39358629729972 L 149.13599989986736,-93.472 L 149.13214768137354,-93.55041370169589 L 149.12062812561976,-93.62807223996637 L 149.1015521750009,-93.70422770647596 L 149.10155217443017,-93.70422770794211 L 149.0751035330852,-93.77814670731657 L 149.04153692066998,-93.84911734573885 L 149.00117560851646,-93.91645612799763 L 148.95440828628801,-93.97951456256396 L 148.90168535412445,-94.03768535412446 L 148.84351456376868,-94.09040828519613 L 148.7804561304189,-94.13717560672073 L 148.71311734582522,-94.17753692062914 L 148.64214671096113,-94.21110353178115 L 148.56822771256765,-94.2375521727751 L 148.49207223996618,-94.2566281256198 L 148.41441370270027,-94.26814768132421 L 148.336,-94.27199989986734 L 148.25758629830423,-94.26814768137356 L 148.17992776003373,-94.25662812561978 L 148.10377229352392,-94.23755217500084 L 148.1037722920579,-94.23755217443015 L 148.02985329268344,-94.2111035330852 L 147.95888265847208,-94.17753692266163 L 147.89154387200222,-94.13717560851634 L 147.82848543743577,-94.09040828628778 L 147.77031464587554,-94.03768535412446 L 147.71759171480372,-93.97951456376852 L 147.67082439175067,-93.91645612835786 L 147.63046307937105,-93.84911734582562 L 147.5968964682188,-93.77814671096101 L 147.57044782722485,-93.7042277125675 L 147.55137187438024,-93.62807223996637 L 147.5398523186758,-93.5504137027003 z" fill="#66cc99" fill-rule="evenodd" opacity="0.6" stroke="#555555" stroke-width="0.02"/>
			<path d="M 139.9160001,-94.27199990000001 L 139.9160001,-92.67200010033176 L 141.51599989966826,-92.67200009999999 L 141.5159999,-94.27199989966833 L 139.9160001,-94.27199990000001 z" fill="#66cc99" fill-rule="evenodd" opacity="0.6" stroke="#555555" stroke-width="0.02"/>
			<path d="M 131.9020001,-90.25799990000002 L 131.9020001,-88.55800010033167 L 133.60199989966827,-88.55800009999999 L 133.6019999,-90.25799989966826 L 131.9020001,-90.25799990000002 z" fill="#66cc99" fill-rule="evenodd" opacity="0.6" stroke="#555555" stroke-width="0.02"/>
			<path d="M 131.9060930816758,-92.0313145597003 L 131.90200010013265,-91.948 L 131.90609308162647,-91.8646854413041 L 131.91833261038022,-91.78217324403366 L 131.9386008089991,-91.70125805952404 L 131.93860080956983,-91.70125805805789 L 131.96670248991478,-91.62271912068344 L 132.00236701533,-91.54731281726116 L 132.04525091148335,-91.47576536000261 L 132.094941191712,-91.40876577243603 L 132.15095930687554,-91.34695930687555 L 132.21276577123132,-91.29094119280387 L 132.27976535964225,-91.2412509117506 L 132.35131281717466,-91.1983670153709 L 132.42671911703889,-91.16270249121884 L 132.50525805343236,-91.1346008112249 L 132.5861732440337,-91.11433261038023 L 132.66868544029973,-91.10209308167579 L 132.752,-91.09800010013267 L 132.83531455869576,-91.10209308162644 L 132.9178267559662,-91.1143326103802 L 132.9987419404058,-91.13460080898156 L 132.9987419419421,-91.13460080956985 L 133.07728087931656,-91.1627024899148 L 133.15268717852788,-91.19836701333837 L 133.22423463999763,-91.24125091148352 L 133.29123422756396,-91.29094119171198 L 133.35304069312446,-91.34695930687555 L 133.40905880719626,-91.40876577123147 L 133.45874908672064,-91.47576535758097 L 133.50163298462897,-91.54731281717446 L 133.5372975087812,-91.622719117039 L 133.56539919034432,-91.70125805781804 L 133.58566738961977,-91.78217324403366 L 133.5979069183242,-91.8646854402997 L 133.60199989986737,-91.948 L 133.59790691837355,-92.0313145586959 L 133.58566738961977,-92.11382675596634 L 133.5653991910009,-92.19474194047596 L 133.56539919043016,-92.19474194194211 L 133.5372975100852,-92.27328087931656 L 133.50163298466998,-92.34868718273884 L 133.45874908851653,-92.42023463999757 L 133.4090588082882,-92.48723422756376 L 133.35304069312446,-92.54904069312445 L 133.29123422876867,-92.60505880719613 L 133.2242346424188,-92.65474908672081 L 133.15268718282533,-92.6976329846291 L 133.07728088296113,-92.73329750878115 L 132.99874194656763,-92.7613991887751 L 132.9178267559662,-92.7816673896198 L 132.8353145597003,-92.79390691832421 L 132.752,-92.79799989986734 L 132.66868544130423,-92.79390691837357 L 132.5861732440337,-92.78166738961977 L 132.50525805959418,-92.76139919101844 L 132.5052580580579,-92.76139919043015 L 132.42671912068346,-92.7332975100852 L 132.3513128214721,-92.69763298666163 L 132.27976536000222,-92.65474908851635 L 132.21276577243592,-92.6050588082879 L 132.15095930687554,-92.54904069312445 L 132.09494119280373,-92.48723422876851 L 132.04525091327938,-92.42023464241903 L 132.00236701537102,-92.34868718282554 L 131.9667024912188,-92.273280882961 L 131.93860080965567,-92.19474194218196 L 131.91833261038022,-92.11382675596634 L 131.9060930816758,-92.0313145597003 z" fill="#66cc99" fill-rule="evenodd" opacity="0.6" stroke="#555555" stroke-width="0.02"/>
			<path d="M 135.06906205800001,-90.7748018852997 L 135.06906205800001,-90.7355281147003 L 135.07098816774706,-90.69632126384941 L 135.07483767020562,-90.65723660546952 L 135.0805974488094,-90.61840733614035 L 135.08059744888604,-90.61840733544932 L 135.08825938035955,-90.57988820110843 L 135.097797357107,-90.5418104641089 L 135.10919792835705,-90.50422781780891 L 135.1091979293323,-90.5042278157685 L 135.1091979297254,-90.5042278148249 L 135.10919793156984,-90.50422781005788 L 135.12242225174293,-90.46726831036895 L 135.1374516725932,-90.43098407659038 L 135.15423497943883,-90.39549875703106 L 135.1542349806453,-90.39549875428655 L 135.17274850573858,-90.36086238523481 L 135.19292916180893,-90.32719299445944 L 135.19292916346166,-90.32719299211273 L 135.21474850296144,-90.29453804335799 L 135.2381321627441,-90.26300882669605 L 135.26304717843686,-90.23264979194443 L 135.26304717850462,-90.2326497918715 L 135.28940864569117,-90.20356439587233 L 135.31717939587233,-90.17579364569116 L 135.3462647900526,-90.14943218015316 L 135.3766238266956,-90.12451716274445 L 135.40815304335814,-90.10113350296133 L 135.4408079900717,-90.07931416482543 L 135.47447738523502,-90.05913350573847 L 135.50911375275186,-90.04061998134182 L 135.5091137529956,-90.04061998123946 L 135.5091137570311,-90.04061997943882 L 135.54459907659017,-90.02383667259328 L 135.580883304692,-90.00880725369325 L 135.5808833080579,-90.00880725256985 L 135.6178428100579,-89.99558293156984 L 135.6178428148261,-89.99558292972495 L 135.6178428157697,-89.99558292933183 L 135.61784281583272,-89.99558292930172 L 135.6554254597932,-89.98418235812541 L 135.65542546172784,-89.98418235770343 L 135.69350320110854,-89.97464438035954 L 135.7320223354153,-89.96698244888982 L 135.73202233614035,-89.96698244880942 L 135.7708516054692,-89.96122267020564 L 135.8099362620994,-89.95737316783301 L 135.8491431147006,-89.95544705799999 L 135.8884168852994,-89.95544705799999 L 135.9276237361506,-89.95737316774705 L 135.9667083945308,-89.96122267020564 L 136.00553766385966,-89.96698244880942 L 136.00553766455064,-89.96698244888604 L 136.04405679889146,-89.97464438035954 L 136.08213453827216,-89.98418235770343 L 136.0821345384529,-89.98418235774285 L 136.11971718219112,-89.99558292835708 L 136.11971718423146,-89.99558292933231 L 136.11971718517506,-89.99558292972542 L 136.1197171852253,-89.99558292960478 L 136.1197171899421,-89.99558293156984 L 136.15667668963067,-90.00880725174281 L 136.19296092340983,-90.02383667259328 L 136.22844624074978,-90.04061997838924 L 136.26308261476478,-90.05913350573836 L 136.29675200554104,-90.07931416180925 L 136.29675200788728,-90.07931416346166 L 136.32940695664186,-90.10113350296133 L 136.36093617330422,-90.12451716274431 L 136.39129520805528,-90.1494321784366 L 136.3912952081285,-90.14943217850463 L 136.42038060412767,-90.17579364569116 L 136.44815135430883,-90.20356439587233 L 136.4745128198467,-90.23264979005245 L 136.4994278372559,-90.26300882669605 L 136.52281149703856,-90.29453804335799 L 136.5446308351747,-90.32719299007191 L 136.56481149426142,-90.36086238523481 L 136.58332501878135,-90.39549875298229 L 136.58332502056118,-90.39549875703106 L 136.60010832740682,-90.43098407659038 L 136.61513774630652,-90.4672683046915 L 136.61513774743014,-90.46726830805788 L 136.62836206843016,-90.50422781005788 L 136.6283620702746,-90.5042278148249 L 136.6283620706677,-90.5042278157685 L 136.62836207069816,-90.50422781583224 L 136.6397626417899,-90.54181045951391 L 136.63976264229657,-90.54181046172782 L 136.64930061964046,-90.57988820110843 L 136.65696255111015,-90.61840733541509 L 136.6569625511906,-90.61840733614035 L 136.66272232979438,-90.65723660546952 L 136.66657183216697,-90.69632126209908 L 136.668497942,-90.7355281147003 L 136.668497942,-90.7748018852997 L 136.66657183225294,-90.8140087361506 L 136.66272232979438,-90.85309339453049 L 136.6569625511906,-90.89192266385965 L 136.65696255111396,-90.89192266455068 L 136.64930061964046,-90.93044179889156 L 136.639762642893,-90.96851953589109 L 136.62836207164295,-91.00610218219109 L 136.6283620706677,-91.0061021842315 L 136.6283620702746,-91.0061021851751 L 136.62836206843016,-91.00610218994211 L 136.61513774825704,-91.04306168963105 L 136.60010832740682,-91.07934592340962 L 136.58332502056118,-91.11483124296893 L 136.5833250193547,-91.11483124571345 L 136.56481149426142,-91.1494676147652 L 136.54463083819107,-91.18313700554056 L 136.54463083653835,-91.18313700788727 L 136.52281149703856,-91.21579195664201 L 136.4994278372559,-91.24732117330394 L 136.47451282156314,-91.27768020805559 L 136.47451282149538,-91.27768020812852 L 136.44815135430883,-91.30676560412766 L 136.42038060412767,-91.33453635430884 L 136.39129520994737,-91.36089781984684 L 136.3609361733044,-91.38581283725556 L 136.32940695664186,-91.40919649703866 L 136.2967520099283,-91.43101583517456 L 136.26308261476498,-91.45119649426152 L 136.22844624724814,-91.46971001865818 L 136.2284462470044,-91.46971001876054 L 136.22844624296891,-91.46971002056118 L 136.19296092340983,-91.48649332740672 L 136.15667669530802,-91.50152274630675 L 136.1566766919421,-91.50152274743016 L 136.1197171899421,-91.51474706843015 L 136.1197171851739,-91.51474707027505 L 136.1197171842303,-91.51474707066816 L 136.11971718416729,-91.51474707069828 L 136.0821345402068,-91.52614764187459 L 136.08213453827216,-91.52614764229656 L 136.04405679889146,-91.53568561964046 L 136.0055376645847,-91.54334755111017 L 136.00553766385966,-91.54334755119058 L 135.9667083945308,-91.54910732979435 L 135.92762373790063,-91.55295683216698 L 135.8884168852994,-91.554882942 L 135.8491431147006,-91.554882942 L 135.80993626384938,-91.55295683225295 L 135.7708516054692,-91.54910732979435 L 135.73202233614035,-91.54334755119058 L 135.73202233544936,-91.54334755111395 L 135.69350320110854,-91.53568561964046 L 135.65542546172784,-91.52614764229656 L 135.6554254615471,-91.52614764225714 L 135.6178428178093,-91.51474707164306 L 135.6178428157697,-91.51474707066816 L 135.6178428148261,-91.51474707027505 L 135.6178428100579,-91.51474706843015 L 135.58088331036933,-91.5015227482572 L 135.54459907659017,-91.48649332740672 L 135.50911375925023,-91.46971002161075 L 135.47447738523522,-91.45119649426164 L 135.44080799445896,-91.43101583819075 L 135.44080799211272,-91.43101583653834 L 135.40815304335814,-91.40919649703866 L 135.37662382669578,-91.3858128372557 L 135.3462647919443,-91.36089782156301 L 135.34626479187148,-91.36089782149537 L 135.31717939587233,-91.33453635430884 L 135.28940864569117,-91.30676560412766 L 135.2630471801533,-91.27768020994756 L 135.2381321627441,-91.24732117330394 L 135.21474850296144,-91.21579195664201 L 135.1929291648253,-91.18313700992809 L 135.17274850573858,-91.1494676147652 L 135.15423498121865,-91.1148312470177 L 135.15423497943883,-91.11483124296893 L 135.1374516725932,-91.07934592340962 L 135.12242225369346,-91.04306169530857 L 135.12242225256983,-91.04306169194211 L 135.10919793156984,-91.00610218994211 L 135.1091979297254,-91.0061021851751 L 135.1091979293323,-91.0061021842315 L 135.10919792930184,-91.00610218416776 L 135.0977973582101,-90.96851954048608 L 135.09779735770343,-90.96851953827218 L 135.08825938035955,-90.93044179889156 L 135.08059744888985,-90.89192266458491 L 135.0805974488094,-90.89192266385965 L 135.07483767020562,-90.85309339453049 L 135.07098816783304,-90.8140087379009 L 135.06906205800001,-90.7748018852997 z" fill="#66cc99" fill-rule="evenodd" opacity="0.6" stroke="#555555" stroke-width="0.02"/>
		</g>
	</g>
	 
</svg>
